<?xml version="1.0" encoding="utf-8" standalone="no"?>
<!DOCTYPE svg PUBLIC "-//W3C//DTD SVG 1.1//EN"
  "http://www.w3.org/Graphics/SVG/1.1/DTD/svg11.dtd">
<svg xmlns:xlink="http://www.w3.org/1999/xlink" width="604.090156pt" height="306.659567pt" viewBox="0 0 604.090156 306.659567" xmlns="http://www.w3.org/2000/svg" version="1.1">
 <metadata>
  <rdf:RDF xmlns:dc="http://purl.org/dc/elements/1.1/" xmlns:cc="http://creativecommons.org/ns#" xmlns:rdf="http://www.w3.org/1999/02/22-rdf-syntax-ns#">
   <cc:Work>
    <dc:type rdf:resource="http://purl.org/dc/dcmitype/StillImage"/>
    <dc:date>2026-06-09T12:27:36.761031</dc:date>
    <dc:format>image/svg+xml</dc:format>
    <dc:creator>
     <cc:Agent>
      <dc:title>Matplotlib v3.10.8, https://matplotlib.org/</dc:title>
     </cc:Agent>
    </dc:creator>
   </cc:Work>
  </rdf:RDF>
 </metadata>
 <defs>
  <style type="text/css">*{stroke-linejoin: round; stroke-linecap: butt}</style>
 </defs>
 <g id="figure_1">
  <g id="patch_1">
   <path d="M 0 306.659567 
L 604.090156 306.659567 
L 604.090156 0 
L 0 0 
z
" style="fill: #ffffff"/>
  </g>
  <g id="axes_1">
   <g id="patch_2">
    <path d="M 51.150156 256.871304 
L 326.994823 256.871304 
L 326.994823 23.693384 
L 51.150156 23.693384 
z
" style="fill: #ffffff"/>
   </g>
   <g id="patch_3">
    <path d="M 51.150156 256.871304 
L 65.668297 256.871304 
L 65.668297 256.871304 
L 51.150156 256.871304 
z
" clip-path="url(#paaa5f86cb1)" style="fill: #8dbad7; opacity: 0.8; stroke: #ffffff; stroke-width: 0.55; stroke-linejoin: miter"/>
   </g>
   <g id="patch_4">
    <path d="M 65.668297 256.871304 
L 80.186437 256.871304 
L 80.186437 243.808116 
L 65.668297 243.808116 
z
" clip-path="url(#paaa5f86cb1)" style="fill: #8dbad7; opacity: 0.8; stroke: #ffffff; stroke-width: 0.55; stroke-linejoin: miter"/>
   </g>
   <g id="patch_5">
    <path d="M 80.186437 256.871304 
L 94.704577 256.871304 
L 94.704577 256.871304 
L 80.186437 256.871304 
z
" clip-path="url(#paaa5f86cb1)" style="fill: #8dbad7; opacity: 0.8; stroke: #ffffff; stroke-width: 0.55; stroke-linejoin: miter"/>
   </g>
   <g id="patch_6">
    <path d="M 94.704577 256.871304 
L 109.222718 256.871304 
L 109.222718 256.871304 
L 94.704577 256.871304 
z
" clip-path="url(#paaa5f86cb1)" style="fill: #8dbad7; opacity: 0.8; stroke: #ffffff; stroke-width: 0.55; stroke-linejoin: miter"/>
   </g>
   <g id="patch_7">
    <path d="M 109.222718 256.871304 
L 123.740858 256.871304 
L 123.740858 230.744927 
L 109.222718 230.744927 
z
" clip-path="url(#paaa5f86cb1)" style="fill: #8dbad7; opacity: 0.8; stroke: #ffffff; stroke-width: 0.55; stroke-linejoin: miter"/>
   </g>
   <g id="patch_8">
    <path d="M 123.740858 256.871304 
L 138.258998 256.871304 
L 138.258998 243.808116 
L 123.740858 243.808116 
z
" clip-path="url(#paaa5f86cb1)" style="fill: #8dbad7; opacity: 0.8; stroke: #ffffff; stroke-width: 0.55; stroke-linejoin: miter"/>
   </g>
   <g id="patch_9">
    <path d="M 138.258998 256.871304 
L 152.777139 256.871304 
L 152.777139 256.871304 
L 138.258998 256.871304 
z
" clip-path="url(#paaa5f86cb1)" style="fill: #8dbad7; opacity: 0.8; stroke: #ffffff; stroke-width: 0.55; stroke-linejoin: miter"/>
   </g>
   <g id="patch_10">
    <path d="M 152.777139 256.871304 
L 167.295279 256.871304 
L 167.295279 191.55536 
L 152.777139 191.55536 
z
" clip-path="url(#paaa5f86cb1)" style="fill: #8dbad7; opacity: 0.8; stroke: #ffffff; stroke-width: 0.55; stroke-linejoin: miter"/>
   </g>
   <g id="patch_11">
    <path d="M 167.295279 256.871304 
L 181.813419 256.871304 
L 181.813419 139.302605 
L 167.295279 139.302605 
z
" clip-path="url(#paaa5f86cb1)" style="fill: #8dbad7; opacity: 0.8; stroke: #ffffff; stroke-width: 0.55; stroke-linejoin: miter"/>
   </g>
   <g id="patch_12">
    <path d="M 181.813419 256.871304 
L 196.33156 256.871304 
L 196.33156 60.923473 
L 181.813419 60.923473 
z
" clip-path="url(#paaa5f86cb1)" style="fill: #8dbad7; opacity: 0.8; stroke: #ffffff; stroke-width: 0.55; stroke-linejoin: miter"/>
   </g>
   <g id="patch_13">
    <path d="M 196.33156 256.871304 
L 210.8497 256.871304 
L 210.8497 100.113039 
L 196.33156 100.113039 
z
" clip-path="url(#paaa5f86cb1)" style="fill: #8dbad7; opacity: 0.8; stroke: #ffffff; stroke-width: 0.55; stroke-linejoin: miter"/>
   </g>
   <g id="patch_14">
    <path d="M 210.8497 256.871304 
L 225.36784 256.871304 
L 225.36784 152.365794 
L 210.8497 152.365794 
z
" clip-path="url(#paaa5f86cb1)" style="fill: #8dbad7; opacity: 0.8; stroke: #ffffff; stroke-width: 0.55; stroke-linejoin: miter"/>
   </g>
   <g id="patch_15">
    <path d="M 225.36784 256.871304 
L 239.885981 256.871304 
L 239.885981 34.797095 
L 225.36784 34.797095 
z
" clip-path="url(#paaa5f86cb1)" style="fill: #8dbad7; opacity: 0.8; stroke: #ffffff; stroke-width: 0.55; stroke-linejoin: miter"/>
   </g>
   <g id="patch_16">
    <path d="M 239.885981 256.871304 
L 254.404121 256.871304 
L 254.404121 73.986661 
L 239.885981 73.986661 
z
" clip-path="url(#paaa5f86cb1)" style="fill: #8dbad7; opacity: 0.8; stroke: #ffffff; stroke-width: 0.55; stroke-linejoin: miter"/>
   </g>
   <g id="patch_17">
    <path d="M 254.404121 256.871304 
L 268.922262 256.871304 
L 268.922262 178.492172 
L 254.404121 178.492172 
z
" clip-path="url(#paaa5f86cb1)" style="fill: #8dbad7; opacity: 0.8; stroke: #ffffff; stroke-width: 0.55; stroke-linejoin: miter"/>
   </g>
   <g id="patch_18">
    <path d="M 268.922262 256.871304 
L 283.440402 256.871304 
L 283.440402 230.744927 
L 268.922262 230.744927 
z
" clip-path="url(#paaa5f86cb1)" style="fill: #8dbad7; opacity: 0.8; stroke: #ffffff; stroke-width: 0.55; stroke-linejoin: miter"/>
   </g>
   <g id="patch_19">
    <path d="M 283.440402 256.871304 
L 297.958542 256.871304 
L 297.958542 256.871304 
L 283.440402 256.871304 
z
" clip-path="url(#paaa5f86cb1)" style="fill: #8dbad7; opacity: 0.8; stroke: #ffffff; stroke-width: 0.55; stroke-linejoin: miter"/>
   </g>
   <g id="patch_20">
    <path d="M 297.958542 256.871304 
L 312.476683 256.871304 
L 312.476683 230.744927 
L 297.958542 230.744927 
z
" clip-path="url(#paaa5f86cb1)" style="fill: #8dbad7; opacity: 0.8; stroke: #ffffff; stroke-width: 0.55; stroke-linejoin: miter"/>
   </g>
   <g id="patch_21">
    <path d="M 312.476683 256.871304 
L 326.994823 256.871304 
L 326.994823 243.808116 
L 312.476683 243.808116 
z
" clip-path="url(#paaa5f86cb1)" style="fill: #8dbad7; opacity: 0.8; stroke: #ffffff; stroke-width: 0.55; stroke-linejoin: miter"/>
   </g>
   <g id="matplotlib.axis_1">
    <g id="xtick_1">
     <g id="line2d_1">
      <defs>
       <path id="m77745bf186" d="M 0 0 
L 0 3.5 
" style="stroke: #000000; stroke-width: 0.8"/>
      </defs>
      <g>
       <use xlink:href="#m77745bf186" x="77.421077" y="256.871304" style="stroke: #000000; stroke-width: 0.8"/>
      </g>
     </g>
     <g id="text_1">
      <!-- −5 -->
      <g transform="translate(70.197405 271.317773) scale(0.098 -0.098)">
       <defs>
        <path id="DejaVuSans-2212" d="M 678 2272 
L 4684 2272 
L 4684 1741 
L 678 1741 
L 678 2272 
z
" transform="scale(0.015625)"/>
        <path id="DejaVuSans-35" d="M 691 4666 
L 3169 4666 
L 3169 4134 
L 1269 4134 
L 1269 2991 
Q 1406 3038 1543 3061 
Q 1681 3084 1819 3084 
Q 2600 3084 3056 2656 
Q 3513 2228 3513 1497 
Q 3513 744 3044 326 
Q 2575 -91 1722 -91 
Q 1428 -91 1123 -41 
Q 819 9 494 109 
L 494 744 
Q 775 591 1075 516 
Q 1375 441 1709 441 
Q 2250 441 2565 725 
Q 2881 1009 2881 1497 
Q 2881 1984 2565 2268 
Q 2250 2553 1709 2553 
Q 1456 2553 1204 2497 
Q 953 2441 691 2322 
L 691 4666 
z
" transform="scale(0.015625)"/>
       </defs>
       <use xlink:href="#DejaVuSans-2212"/>
       <use xlink:href="#DejaVuSans-35" transform="translate(83.789062 0)"/>
      </g>
     </g>
    </g>
    <g id="xtick_2">
     <g id="line2d_2">
      <g>
       <use xlink:href="#m77745bf186" x="110.259728" y="256.871304" style="stroke: #000000; stroke-width: 0.8"/>
      </g>
     </g>
     <g id="text_2">
      <!-- −4 -->
      <g transform="translate(103.036056 271.317773) scale(0.098 -0.098)">
       <defs>
        <path id="DejaVuSans-34" d="M 2419 4116 
L 825 1625 
L 2419 1625 
L 2419 4116 
z
M 2253 4666 
L 3047 4666 
L 3047 1625 
L 3713 1625 
L 3713 1100 
L 3047 1100 
L 3047 0 
L 2419 0 
L 2419 1100 
L 313 1100 
L 313 1709 
L 2253 4666 
z
" transform="scale(0.015625)"/>
       </defs>
       <use xlink:href="#DejaVuSans-2212"/>
       <use xlink:href="#DejaVuSans-34" transform="translate(83.789062 0)"/>
      </g>
     </g>
    </g>
    <g id="xtick_3">
     <g id="line2d_3">
      <g>
       <use xlink:href="#m77745bf186" x="143.098378" y="256.871304" style="stroke: #000000; stroke-width: 0.8"/>
      </g>
     </g>
     <g id="text_3">
      <!-- −3 -->
      <g transform="translate(135.874707 271.317773) scale(0.098 -0.098)">
       <defs>
        <path id="DejaVuSans-33" d="M 2597 2516 
Q 3050 2419 3304 2112 
Q 3559 1806 3559 1356 
Q 3559 666 3084 287 
Q 2609 -91 1734 -91 
Q 1441 -91 1130 -33 
Q 819 25 488 141 
L 488 750 
Q 750 597 1062 519 
Q 1375 441 1716 441 
Q 2309 441 2620 675 
Q 2931 909 2931 1356 
Q 2931 1769 2642 2001 
Q 2353 2234 1838 2234 
L 1294 2234 
L 1294 2753 
L 1863 2753 
Q 2328 2753 2575 2939 
Q 2822 3125 2822 3475 
Q 2822 3834 2567 4026 
Q 2313 4219 1838 4219 
Q 1578 4219 1281 4162 
Q 984 4106 628 3988 
L 628 4550 
Q 988 4650 1302 4700 
Q 1616 4750 1894 4750 
Q 2613 4750 3031 4423 
Q 3450 4097 3450 3541 
Q 3450 3153 3228 2886 
Q 3006 2619 2597 2516 
z
" transform="scale(0.015625)"/>
       </defs>
       <use xlink:href="#DejaVuSans-2212"/>
       <use xlink:href="#DejaVuSans-33" transform="translate(83.789062 0)"/>
      </g>
     </g>
    </g>
    <g id="xtick_4">
     <g id="line2d_4">
      <g>
       <use xlink:href="#m77745bf186" x="175.937029" y="256.871304" style="stroke: #000000; stroke-width: 0.8"/>
      </g>
     </g>
     <g id="text_4">
      <!-- −2 -->
      <g transform="translate(168.713357 271.317773) scale(0.098 -0.098)">
       <defs>
        <path id="DejaVuSans-32" d="M 1228 531 
L 3431 531 
L 3431 0 
L 469 0 
L 469 531 
Q 828 903 1448 1529 
Q 2069 2156 2228 2338 
Q 2531 2678 2651 2914 
Q 2772 3150 2772 3378 
Q 2772 3750 2511 3984 
Q 2250 4219 1831 4219 
Q 1534 4219 1204 4116 
Q 875 4013 500 3803 
L 500 4441 
Q 881 4594 1212 4672 
Q 1544 4750 1819 4750 
Q 2544 4750 2975 4387 
Q 3406 4025 3406 3419 
Q 3406 3131 3298 2873 
Q 3191 2616 2906 2266 
Q 2828 2175 2409 1742 
Q 1991 1309 1228 531 
z
" transform="scale(0.015625)"/>
       </defs>
       <use xlink:href="#DejaVuSans-2212"/>
       <use xlink:href="#DejaVuSans-32" transform="translate(83.789062 0)"/>
      </g>
     </g>
    </g>
    <g id="xtick_5">
     <g id="line2d_5">
      <g>
       <use xlink:href="#m77745bf186" x="208.77568" y="256.871304" style="stroke: #000000; stroke-width: 0.8"/>
      </g>
     </g>
     <g id="text_5">
      <!-- −1 -->
      <g transform="translate(201.552008 271.317773) scale(0.098 -0.098)">
       <defs>
        <path id="DejaVuSans-31" d="M 794 531 
L 1825 531 
L 1825 4091 
L 703 3866 
L 703 4441 
L 1819 4666 
L 2450 4666 
L 2450 531 
L 3481 531 
L 3481 0 
L 794 0 
L 794 531 
z
" transform="scale(0.015625)"/>
       </defs>
       <use xlink:href="#DejaVuSans-2212"/>
       <use xlink:href="#DejaVuSans-31" transform="translate(83.789062 0)"/>
      </g>
     </g>
    </g>
    <g id="xtick_6">
     <g id="line2d_6">
      <g>
       <use xlink:href="#m77745bf186" x="241.614331" y="256.871304" style="stroke: #000000; stroke-width: 0.8"/>
      </g>
     </g>
     <g id="text_6">
      <!-- 0 -->
      <g transform="translate(238.496706 271.317773) scale(0.098 -0.098)">
       <defs>
        <path id="DejaVuSans-30" d="M 2034 4250 
Q 1547 4250 1301 3770 
Q 1056 3291 1056 2328 
Q 1056 1369 1301 889 
Q 1547 409 2034 409 
Q 2525 409 2770 889 
Q 3016 1369 3016 2328 
Q 3016 3291 2770 3770 
Q 2525 4250 2034 4250 
z
M 2034 4750 
Q 2819 4750 3233 4129 
Q 3647 3509 3647 2328 
Q 3647 1150 3233 529 
Q 2819 -91 2034 -91 
Q 1250 -91 836 529 
Q 422 1150 422 2328 
Q 422 3509 836 4129 
Q 1250 4750 2034 4750 
z
" transform="scale(0.015625)"/>
       </defs>
       <use xlink:href="#DejaVuSans-30"/>
      </g>
     </g>
    </g>
    <g id="xtick_7">
     <g id="line2d_7">
      <g>
       <use xlink:href="#m77745bf186" x="274.452982" y="256.871304" style="stroke: #000000; stroke-width: 0.8"/>
      </g>
     </g>
     <g id="text_7">
      <!-- 1 -->
      <g transform="translate(271.335357 271.317773) scale(0.098 -0.098)">
       <use xlink:href="#DejaVuSans-31"/>
      </g>
     </g>
    </g>
    <g id="xtick_8">
     <g id="line2d_8">
      <g>
       <use xlink:href="#m77745bf186" x="307.291632" y="256.871304" style="stroke: #000000; stroke-width: 0.8"/>
      </g>
     </g>
     <g id="text_8">
      <!-- 2 -->
      <g transform="translate(304.174007 271.317773) scale(0.098 -0.098)">
       <use xlink:href="#DejaVuSans-32"/>
      </g>
     </g>
    </g>
    <g id="text_9">
     <!-- Consensus error, $\Delta$logP -->
     <g transform="translate(122.25749 286.095867) scale(0.115 -0.115)">
      <defs>
       <path id="DejaVuSans-43" d="M 4122 4306 
L 4122 3641 
Q 3803 3938 3442 4084 
Q 3081 4231 2675 4231 
Q 1875 4231 1450 3742 
Q 1025 3253 1025 2328 
Q 1025 1406 1450 917 
Q 1875 428 2675 428 
Q 3081 428 3442 575 
Q 3803 722 4122 1019 
L 4122 359 
Q 3791 134 3420 21 
Q 3050 -91 2638 -91 
Q 1578 -91 968 557 
Q 359 1206 359 2328 
Q 359 3453 968 4101 
Q 1578 4750 2638 4750 
Q 3056 4750 3426 4639 
Q 3797 4528 4122 4306 
z
" transform="scale(0.015625)"/>
       <path id="DejaVuSans-6f" d="M 1959 3097 
Q 1497 3097 1228 2736 
Q 959 2375 959 1747 
Q 959 1119 1226 758 
Q 1494 397 1959 397 
Q 2419 397 2687 759 
Q 2956 1122 2956 1747 
Q 2956 2369 2687 2733 
Q 2419 3097 1959 3097 
z
M 1959 3584 
Q 2709 3584 3137 3096 
Q 3566 2609 3566 1747 
Q 3566 888 3137 398 
Q 2709 -91 1959 -91 
Q 1206 -91 779 398 
Q 353 888 353 1747 
Q 353 2609 779 3096 
Q 1206 3584 1959 3584 
z
" transform="scale(0.015625)"/>
       <path id="DejaVuSans-6e" d="M 3513 2113 
L 3513 0 
L 2938 0 
L 2938 2094 
Q 2938 2591 2744 2837 
Q 2550 3084 2163 3084 
Q 1697 3084 1428 2787 
Q 1159 2491 1159 1978 
L 1159 0 
L 581 0 
L 581 3500 
L 1159 3500 
L 1159 2956 
Q 1366 3272 1645 3428 
Q 1925 3584 2291 3584 
Q 2894 3584 3203 3211 
Q 3513 2838 3513 2113 
z
" transform="scale(0.015625)"/>
       <path id="DejaVuSans-73" d="M 2834 3397 
L 2834 2853 
Q 2591 2978 2328 3040 
Q 2066 3103 1784 3103 
Q 1356 3103 1142 2972 
Q 928 2841 928 2578 
Q 928 2378 1081 2264 
Q 1234 2150 1697 2047 
L 1894 2003 
Q 2506 1872 2764 1633 
Q 3022 1394 3022 966 
Q 3022 478 2636 193 
Q 2250 -91 1575 -91 
Q 1294 -91 989 -36 
Q 684 19 347 128 
L 347 722 
Q 666 556 975 473 
Q 1284 391 1588 391 
Q 1994 391 2212 530 
Q 2431 669 2431 922 
Q 2431 1156 2273 1281 
Q 2116 1406 1581 1522 
L 1381 1569 
Q 847 1681 609 1914 
Q 372 2147 372 2553 
Q 372 3047 722 3315 
Q 1072 3584 1716 3584 
Q 2034 3584 2315 3537 
Q 2597 3491 2834 3397 
z
" transform="scale(0.015625)"/>
       <path id="DejaVuSans-65" d="M 3597 1894 
L 3597 1613 
L 953 1613 
Q 991 1019 1311 708 
Q 1631 397 2203 397 
Q 2534 397 2845 478 
Q 3156 559 3463 722 
L 3463 178 
Q 3153 47 2828 -22 
Q 2503 -91 2169 -91 
Q 1331 -91 842 396 
Q 353 884 353 1716 
Q 353 2575 817 3079 
Q 1281 3584 2069 3584 
Q 2775 3584 3186 3129 
Q 3597 2675 3597 1894 
z
M 3022 2063 
Q 3016 2534 2758 2815 
Q 2500 3097 2075 3097 
Q 1594 3097 1305 2825 
Q 1016 2553 972 2059 
L 3022 2063 
z
" transform="scale(0.015625)"/>
       <path id="DejaVuSans-75" d="M 544 1381 
L 544 3500 
L 1119 3500 
L 1119 1403 
Q 1119 906 1312 657 
Q 1506 409 1894 409 
Q 2359 409 2629 706 
Q 2900 1003 2900 1516 
L 2900 3500 
L 3475 3500 
L 3475 0 
L 2900 0 
L 2900 538 
Q 2691 219 2414 64 
Q 2138 -91 1772 -91 
Q 1169 -91 856 284 
Q 544 659 544 1381 
z
M 1991 3584 
L 1991 3584 
z
" transform="scale(0.015625)"/>
       <path id="DejaVuSans-20" transform="scale(0.015625)"/>
       <path id="DejaVuSans-72" d="M 2631 2963 
Q 2534 3019 2420 3045 
Q 2306 3072 2169 3072 
Q 1681 3072 1420 2755 
Q 1159 2438 1159 1844 
L 1159 0 
L 581 0 
L 581 3500 
L 1159 3500 
L 1159 2956 
Q 1341 3275 1631 3429 
Q 1922 3584 2338 3584 
Q 2397 3584 2469 3576 
Q 2541 3569 2628 3553 
L 2631 2963 
z
" transform="scale(0.015625)"/>
       <path id="DejaVuSans-2c" d="M 750 794 
L 1409 794 
L 1409 256 
L 897 -744 
L 494 -744 
L 750 256 
L 750 794 
z
" transform="scale(0.015625)"/>
       <path id="DejaVuSans-394" d="M 2188 4044 
L 906 525 
L 3472 525 
L 2188 4044 
z
M 50 0 
L 1831 4666 
L 2547 4666 
L 4325 0 
L 50 0 
z
" transform="scale(0.015625)"/>
       <path id="DejaVuSans-6c" d="M 603 4863 
L 1178 4863 
L 1178 0 
L 603 0 
L 603 4863 
z
" transform="scale(0.015625)"/>
       <path id="DejaVuSans-67" d="M 2906 1791 
Q 2906 2416 2648 2759 
Q 2391 3103 1925 3103 
Q 1463 3103 1205 2759 
Q 947 2416 947 1791 
Q 947 1169 1205 825 
Q 1463 481 1925 481 
Q 2391 481 2648 825 
Q 2906 1169 2906 1791 
z
M 3481 434 
Q 3481 -459 3084 -895 
Q 2688 -1331 1869 -1331 
Q 1566 -1331 1297 -1286 
Q 1028 -1241 775 -1147 
L 775 -588 
Q 1028 -725 1275 -790 
Q 1522 -856 1778 -856 
Q 2344 -856 2625 -561 
Q 2906 -266 2906 331 
L 2906 616 
Q 2728 306 2450 153 
Q 2172 0 1784 0 
Q 1141 0 747 490 
Q 353 981 353 1791 
Q 353 2603 747 3093 
Q 1141 3584 1784 3584 
Q 2172 3584 2450 3431 
Q 2728 3278 2906 2969 
L 2906 3500 
L 3481 3500 
L 3481 434 
z
" transform="scale(0.015625)"/>
       <path id="DejaVuSans-50" d="M 1259 4147 
L 1259 2394 
L 2053 2394 
Q 2494 2394 2734 2622 
Q 2975 2850 2975 3272 
Q 2975 3691 2734 3919 
Q 2494 4147 2053 4147 
L 1259 4147 
z
M 628 4666 
L 2053 4666 
Q 2838 4666 3239 4311 
Q 3641 3956 3641 3272 
Q 3641 2581 3239 2228 
Q 2838 1875 2053 1875 
L 1259 1875 
L 1259 0 
L 628 0 
L 628 4666 
z
" transform="scale(0.015625)"/>
      </defs>
      <use xlink:href="#DejaVuSans-43" transform="translate(0 0.015625)"/>
      <use xlink:href="#DejaVuSans-6f" transform="translate(69.824219 0.015625)"/>
      <use xlink:href="#DejaVuSans-6e" transform="translate(131.005859 0.015625)"/>
      <use xlink:href="#DejaVuSans-73" transform="translate(194.384766 0.015625)"/>
      <use xlink:href="#DejaVuSans-65" transform="translate(246.484375 0.015625)"/>
      <use xlink:href="#DejaVuSans-6e" transform="translate(308.007812 0.015625)"/>
      <use xlink:href="#DejaVuSans-73" transform="translate(371.386719 0.015625)"/>
      <use xlink:href="#DejaVuSans-75" transform="translate(423.486328 0.015625)"/>
      <use xlink:href="#DejaVuSans-73" transform="translate(486.865234 0.015625)"/>
      <use xlink:href="#DejaVuSans-20" transform="translate(538.964844 0.015625)"/>
      <use xlink:href="#DejaVuSans-65" transform="translate(570.751953 0.015625)"/>
      <use xlink:href="#DejaVuSans-72" transform="translate(632.275391 0.015625)"/>
      <use xlink:href="#DejaVuSans-72" transform="translate(673.388672 0.015625)"/>
      <use xlink:href="#DejaVuSans-6f" transform="translate(714.501953 0.015625)"/>
      <use xlink:href="#DejaVuSans-72" transform="translate(775.683594 0.015625)"/>
      <use xlink:href="#DejaVuSans-2c" transform="translate(816.796875 0.015625)"/>
      <use xlink:href="#DejaVuSans-20" transform="translate(848.583984 0.015625)"/>
      <use xlink:href="#DejaVuSans-394" transform="translate(880.371094 0.015625)"/>
      <use xlink:href="#DejaVuSans-6c" transform="translate(948.779297 0.015625)"/>
      <use xlink:href="#DejaVuSans-6f" transform="translate(976.5625 0.015625)"/>
      <use xlink:href="#DejaVuSans-67" transform="translate(1037.744141 0.015625)"/>
      <use xlink:href="#DejaVuSans-50" transform="translate(1101.220703 0.015625)"/>
     </g>
    </g>
   </g>
   <g id="matplotlib.axis_2">
    <g id="ytick_1">
     <g id="line2d_9">
      <path d="M 51.150156 256.871304 
L 326.994823 256.871304 
" clip-path="url(#paaa5f86cb1)" style="fill: none; stroke: #b0b0b0; stroke-opacity: 0.3; stroke-width: 0.45; stroke-linecap: square"/>
     </g>
     <g id="line2d_10">
      <defs>
       <path id="m40588a955e" d="M 0 0 
L -3.5 0 
" style="stroke: #000000; stroke-width: 0.8"/>
      </defs>
      <g>
       <use xlink:href="#m40588a955e" x="51.150156" y="256.871304" style="stroke: #000000; stroke-width: 0.8"/>
      </g>
     </g>
     <g id="text_10">
      <!-- 0.00 -->
      <g transform="translate(22.329844 260.594539) scale(0.098 -0.098)">
       <defs>
        <path id="DejaVuSans-2e" d="M 684 794 
L 1344 794 
L 1344 0 
L 684 0 
L 684 794 
z
" transform="scale(0.015625)"/>
       </defs>
       <use xlink:href="#DejaVuSans-30"/>
       <use xlink:href="#DejaVuSans-2e" transform="translate(63.623047 0)"/>
       <use xlink:href="#DejaVuSans-30" transform="translate(95.410156 0)"/>
       <use xlink:href="#DejaVuSans-30" transform="translate(159.033203 0)"/>
      </g>
     </g>
    </g>
    <g id="ytick_2">
     <g id="line2d_11">
      <path d="M 51.150156 229.438608 
L 326.994823 229.438608 
" clip-path="url(#paaa5f86cb1)" style="fill: none; stroke: #b0b0b0; stroke-opacity: 0.3; stroke-width: 0.45; stroke-linecap: square"/>
     </g>
     <g id="line2d_12">
      <g>
       <use xlink:href="#m40588a955e" x="51.150156" y="229.438608" style="stroke: #000000; stroke-width: 0.8"/>
      </g>
     </g>
     <g id="text_11">
      <!-- 0.05 -->
      <g transform="translate(22.329844 233.161842) scale(0.098 -0.098)">
       <use xlink:href="#DejaVuSans-30"/>
       <use xlink:href="#DejaVuSans-2e" transform="translate(63.623047 0)"/>
       <use xlink:href="#DejaVuSans-30" transform="translate(95.410156 0)"/>
       <use xlink:href="#DejaVuSans-35" transform="translate(159.033203 0)"/>
      </g>
     </g>
    </g>
    <g id="ytick_3">
     <g id="line2d_13">
      <path d="M 51.150156 202.005912 
L 326.994823 202.005912 
" clip-path="url(#paaa5f86cb1)" style="fill: none; stroke: #b0b0b0; stroke-opacity: 0.3; stroke-width: 0.45; stroke-linecap: square"/>
     </g>
     <g id="line2d_14">
      <g>
       <use xlink:href="#m40588a955e" x="51.150156" y="202.005912" style="stroke: #000000; stroke-width: 0.8"/>
      </g>
     </g>
     <g id="text_12">
      <!-- 0.10 -->
      <g transform="translate(22.329844 205.729146) scale(0.098 -0.098)">
       <use xlink:href="#DejaVuSans-30"/>
       <use xlink:href="#DejaVuSans-2e" transform="translate(63.623047 0)"/>
       <use xlink:href="#DejaVuSans-31" transform="translate(95.410156 0)"/>
       <use xlink:href="#DejaVuSans-30" transform="translate(159.033203 0)"/>
      </g>
     </g>
    </g>
    <g id="ytick_4">
     <g id="line2d_15">
      <path d="M 51.150156 174.573215 
L 326.994823 174.573215 
" clip-path="url(#paaa5f86cb1)" style="fill: none; stroke: #b0b0b0; stroke-opacity: 0.3; stroke-width: 0.45; stroke-linecap: square"/>
     </g>
     <g id="line2d_16">
      <g>
       <use xlink:href="#m40588a955e" x="51.150156" y="174.573215" style="stroke: #000000; stroke-width: 0.8"/>
      </g>
     </g>
     <g id="text_13">
      <!-- 0.15 -->
      <g transform="translate(22.329844 178.296449) scale(0.098 -0.098)">
       <use xlink:href="#DejaVuSans-30"/>
       <use xlink:href="#DejaVuSans-2e" transform="translate(63.623047 0)"/>
       <use xlink:href="#DejaVuSans-31" transform="translate(95.410156 0)"/>
       <use xlink:href="#DejaVuSans-35" transform="translate(159.033203 0)"/>
      </g>
     </g>
    </g>
    <g id="ytick_5">
     <g id="line2d_17">
      <path d="M 51.150156 147.140519 
L 326.994823 147.140519 
" clip-path="url(#paaa5f86cb1)" style="fill: none; stroke: #b0b0b0; stroke-opacity: 0.3; stroke-width: 0.45; stroke-linecap: square"/>
     </g>
     <g id="line2d_18">
      <g>
       <use xlink:href="#m40588a955e" x="51.150156" y="147.140519" style="stroke: #000000; stroke-width: 0.8"/>
      </g>
     </g>
     <g id="text_14">
      <!-- 0.20 -->
      <g transform="translate(22.329844 150.863753) scale(0.098 -0.098)">
       <use xlink:href="#DejaVuSans-30"/>
       <use xlink:href="#DejaVuSans-2e" transform="translate(63.623047 0)"/>
       <use xlink:href="#DejaVuSans-32" transform="translate(95.410156 0)"/>
       <use xlink:href="#DejaVuSans-30" transform="translate(159.033203 0)"/>
      </g>
     </g>
    </g>
    <g id="ytick_6">
     <g id="line2d_19">
      <path d="M 51.150156 119.707822 
L 326.994823 119.707822 
" clip-path="url(#paaa5f86cb1)" style="fill: none; stroke: #b0b0b0; stroke-opacity: 0.3; stroke-width: 0.45; stroke-linecap: square"/>
     </g>
     <g id="line2d_20">
      <g>
       <use xlink:href="#m40588a955e" x="51.150156" y="119.707822" style="stroke: #000000; stroke-width: 0.8"/>
      </g>
     </g>
     <g id="text_15">
      <!-- 0.25 -->
      <g transform="translate(22.329844 123.431056) scale(0.098 -0.098)">
       <use xlink:href="#DejaVuSans-30"/>
       <use xlink:href="#DejaVuSans-2e" transform="translate(63.623047 0)"/>
       <use xlink:href="#DejaVuSans-32" transform="translate(95.410156 0)"/>
       <use xlink:href="#DejaVuSans-35" transform="translate(159.033203 0)"/>
      </g>
     </g>
    </g>
    <g id="ytick_7">
     <g id="line2d_21">
      <path d="M 51.150156 92.275126 
L 326.994823 92.275126 
" clip-path="url(#paaa5f86cb1)" style="fill: none; stroke: #b0b0b0; stroke-opacity: 0.3; stroke-width: 0.45; stroke-linecap: square"/>
     </g>
     <g id="line2d_22">
      <g>
       <use xlink:href="#m40588a955e" x="51.150156" y="92.275126" style="stroke: #000000; stroke-width: 0.8"/>
      </g>
     </g>
     <g id="text_16">
      <!-- 0.30 -->
      <g transform="translate(22.329844 95.99836) scale(0.098 -0.098)">
       <use xlink:href="#DejaVuSans-30"/>
       <use xlink:href="#DejaVuSans-2e" transform="translate(63.623047 0)"/>
       <use xlink:href="#DejaVuSans-33" transform="translate(95.410156 0)"/>
       <use xlink:href="#DejaVuSans-30" transform="translate(159.033203 0)"/>
      </g>
     </g>
    </g>
    <g id="ytick_8">
     <g id="line2d_23">
      <path d="M 51.150156 64.842429 
L 326.994823 64.842429 
" clip-path="url(#paaa5f86cb1)" style="fill: none; stroke: #b0b0b0; stroke-opacity: 0.3; stroke-width: 0.45; stroke-linecap: square"/>
     </g>
     <g id="line2d_24">
      <g>
       <use xlink:href="#m40588a955e" x="51.150156" y="64.842429" style="stroke: #000000; stroke-width: 0.8"/>
      </g>
     </g>
     <g id="text_17">
      <!-- 0.35 -->
      <g transform="translate(22.329844 68.565664) scale(0.098 -0.098)">
       <use xlink:href="#DejaVuSans-30"/>
       <use xlink:href="#DejaVuSans-2e" transform="translate(63.623047 0)"/>
       <use xlink:href="#DejaVuSans-33" transform="translate(95.410156 0)"/>
       <use xlink:href="#DejaVuSans-35" transform="translate(159.033203 0)"/>
      </g>
     </g>
    </g>
    <g id="ytick_9">
     <g id="line2d_25">
      <path d="M 51.150156 37.409733 
L 326.994823 37.409733 
" clip-path="url(#paaa5f86cb1)" style="fill: none; stroke: #b0b0b0; stroke-opacity: 0.3; stroke-width: 0.45; stroke-linecap: square"/>
     </g>
     <g id="line2d_26">
      <g>
       <use xlink:href="#m40588a955e" x="51.150156" y="37.409733" style="stroke: #000000; stroke-width: 0.8"/>
      </g>
     </g>
     <g id="text_18">
      <!-- 0.40 -->
      <g transform="translate(22.329844 41.132967) scale(0.098 -0.098)">
       <use xlink:href="#DejaVuSans-30"/>
       <use xlink:href="#DejaVuSans-2e" transform="translate(63.623047 0)"/>
       <use xlink:href="#DejaVuSans-34" transform="translate(95.410156 0)"/>
       <use xlink:href="#DejaVuSans-30" transform="translate(159.033203 0)"/>
      </g>
     </g>
    </g>
    <g id="text_19">
     <!-- Density -->
     <g transform="translate(15.938203 162.142227) rotate(-90) scale(0.115 -0.115)">
      <defs>
       <path id="DejaVuSans-44" d="M 1259 4147 
L 1259 519 
L 2022 519 
Q 2988 519 3436 956 
Q 3884 1394 3884 2338 
Q 3884 3275 3436 3711 
Q 2988 4147 2022 4147 
L 1259 4147 
z
M 628 4666 
L 1925 4666 
Q 3281 4666 3915 4102 
Q 4550 3538 4550 2338 
Q 4550 1131 3912 565 
Q 3275 0 1925 0 
L 628 0 
L 628 4666 
z
" transform="scale(0.015625)"/>
       <path id="DejaVuSans-69" d="M 603 3500 
L 1178 3500 
L 1178 0 
L 603 0 
L 603 3500 
z
M 603 4863 
L 1178 4863 
L 1178 4134 
L 603 4134 
L 603 4863 
z
" transform="scale(0.015625)"/>
       <path id="DejaVuSans-74" d="M 1172 4494 
L 1172 3500 
L 2356 3500 
L 2356 3053 
L 1172 3053 
L 1172 1153 
Q 1172 725 1289 603 
Q 1406 481 1766 481 
L 2356 481 
L 2356 0 
L 1766 0 
Q 1100 0 847 248 
Q 594 497 594 1153 
L 594 3053 
L 172 3053 
L 172 3500 
L 594 3500 
L 594 4494 
L 1172 4494 
z
" transform="scale(0.015625)"/>
       <path id="DejaVuSans-79" d="M 2059 -325 
Q 1816 -950 1584 -1140 
Q 1353 -1331 966 -1331 
L 506 -1331 
L 506 -850 
L 844 -850 
Q 1081 -850 1212 -737 
Q 1344 -625 1503 -206 
L 1606 56 
L 191 3500 
L 800 3500 
L 1894 763 
L 2988 3500 
L 3597 3500 
L 2059 -325 
z
" transform="scale(0.015625)"/>
      </defs>
      <use xlink:href="#DejaVuSans-44"/>
      <use xlink:href="#DejaVuSans-65" transform="translate(77.001953 0)"/>
      <use xlink:href="#DejaVuSans-6e" transform="translate(138.525391 0)"/>
      <use xlink:href="#DejaVuSans-73" transform="translate(201.904297 0)"/>
      <use xlink:href="#DejaVuSans-69" transform="translate(254.003906 0)"/>
      <use xlink:href="#DejaVuSans-74" transform="translate(281.787109 0)"/>
      <use xlink:href="#DejaVuSans-79" transform="translate(320.996094 0)"/>
     </g>
    </g>
   </g>
   <g id="line2d_27">
    <path d="M 57.928054 253.507016 
L 63.368966 252.687464 
L 67.449649 252.2681 
L 71.530333 252.069259 
L 76.291131 252.093389 
L 87.172955 252.298107 
L 90.573524 252.049264 
L 93.29398 251.64507 
L 96.014436 251.036759 
L 98.734892 250.224063 
L 102.135462 248.95288 
L 106.216146 247.162793 
L 115.057627 243.19385 
L 119.138311 241.671299 
L 124.579223 239.946893 
L 128.659907 238.593285 
L 131.380363 237.459507 
L 133.420705 236.396319 
L 135.461047 235.090024 
L 137.501388 233.489833 
L 139.54173 231.551225 
L 141.582072 229.2379 
L 143.622414 226.522983 
L 145.662756 223.389439 
L 147.703098 219.829738 
L 149.74344 215.844919 
L 151.783782 211.443263 
L 154.504238 204.950927 
L 157.224694 197.78818 
L 159.94515 190.010781 
L 163.345719 179.526722 
L 167.426403 166.047206 
L 174.907657 140.156105 
L 178.988341 126.551396 
L 181.708797 118.224721 
L 183.749139 112.561732 
L 185.78948 107.516345 
L 187.829822 103.179618 
L 189.19005 100.717083 
L 190.550278 98.613729 
L 191.910506 96.876176 
L 193.270734 95.503887 
L 194.630962 94.48883 
L 195.99119 93.815401 
L 197.351418 93.460615 
L 198.711646 93.394582 
L 200.071874 93.581263 
L 201.432102 93.979483 
L 203.472444 94.874123 
L 206.873014 96.758448 
L 209.593469 98.201702 
L 211.633811 99.037366 
L 212.994039 99.421486 
L 214.354267 99.644887 
L 215.714495 99.697978 
L 217.074723 99.579986 
L 218.434951 99.298919 
L 220.475293 98.609668 
L 223.195749 97.336215 
L 227.276433 95.286821 
L 229.316775 94.526037 
L 230.677003 94.221846 
L 232.037231 94.130435 
L 233.397458 94.290983 
L 234.757686 94.737984 
L 236.117914 95.500419 
L 237.478142 96.601146 
L 238.83837 98.056499 
L 240.198598 99.876103 
L 241.558826 102.062898 
L 242.919054 104.613347 
L 244.279282 107.517816 
L 246.319624 112.503668 
L 248.359966 118.179252 
L 250.400308 124.453674 
L 253.120764 133.569271 
L 256.521334 145.791262 
L 266.723043 183.165912 
L 270.123613 194.474119 
L 272.844069 202.751486 
L 275.564525 210.231923 
L 277.604867 215.274389 
L 279.645209 219.807784 
L 281.68555 223.823095 
L 283.725892 227.322035 
L 285.766234 230.317349 
L 287.806576 232.83279 
L 289.846918 234.90265 
L 291.88726 236.570731 
L 293.927602 237.888761 
L 295.967944 238.914274 
L 298.008286 239.708096 
L 300.728742 240.511904 
L 305.489539 241.594599 
L 310.250337 242.748761 
L 313.650907 243.803422 
L 317.051477 245.085343 
L 321.132161 246.865535 
L 329.293528 250.640324 
L 329.293528 250.640324 
" clip-path="url(#paaa5f86cb1)" style="fill: none; stroke: #1f6fb5; stroke-width: 1.7; stroke-linecap: square"/>
   </g>
   <g id="line2d_28">
    <path d="M 241.614331 256.871304 
L 241.614331 23.693384 
" clip-path="url(#paaa5f86cb1)" style="fill: none; stroke-dasharray: 3.7,1.6; stroke-dashoffset: 0; stroke: #595959; stroke-opacity: 0.85"/>
   </g>
   <g id="line2d_29">
    <path d="M 212.743073 256.871304 
L 212.743073 23.693384 
" clip-path="url(#paaa5f86cb1)" style="fill: none; stroke: #d62728; stroke-opacity: 0.95; stroke-width: 1.3; stroke-linecap: square"/>
   </g>
   <g id="patch_22">
    <path d="M 51.150156 256.871304 
L 51.150156 23.693384 
" style="fill: none; stroke: #000000; stroke-width: 0.9; stroke-linejoin: miter; stroke-linecap: square"/>
   </g>
   <g id="patch_23">
    <path d="M 51.150156 256.871304 
L 326.994823 256.871304 
" style="fill: none; stroke: #000000; stroke-width: 0.9; stroke-linejoin: miter; stroke-linecap: square"/>
   </g>
   <g id="text_20">
    <g id="patch_24">
     <path d="M 59.425496 72.986045 
L 211.175184 72.986045 
Q 213.927184 72.986045 213.927184 70.234045 
L 213.927184 33.020501 
Q 213.927184 30.268501 211.175184 30.268501 
L 59.425496 30.268501 
Q 56.673496 30.268501 56.673496 33.020501 
L 56.673496 70.234045 
Q 56.673496 72.986045 59.425496 72.986045 
z
" style="fill: #ffffff; opacity: 0.95; stroke: #8c8c8c; stroke-width: 0.6; stroke-linejoin: miter"/>
    </g>
    <!-- Mean = -0.879 -->
    <g transform="translate(59.425496 39.555158) scale(0.086 -0.086)">
     <defs>
      <path id="DejaVuSans-4d" d="M 628 4666 
L 1569 4666 
L 2759 1491 
L 3956 4666 
L 4897 4666 
L 4897 0 
L 4281 0 
L 4281 4097 
L 3078 897 
L 2444 897 
L 1241 4097 
L 1241 0 
L 628 0 
L 628 4666 
z
" transform="scale(0.015625)"/>
      <path id="DejaVuSans-61" d="M 2194 1759 
Q 1497 1759 1228 1600 
Q 959 1441 959 1056 
Q 959 750 1161 570 
Q 1363 391 1709 391 
Q 2188 391 2477 730 
Q 2766 1069 2766 1631 
L 2766 1759 
L 2194 1759 
z
M 3341 1997 
L 3341 0 
L 2766 0 
L 2766 531 
Q 2569 213 2275 61 
Q 1981 -91 1556 -91 
Q 1019 -91 701 211 
Q 384 513 384 1019 
Q 384 1609 779 1909 
Q 1175 2209 1959 2209 
L 2766 2209 
L 2766 2266 
Q 2766 2663 2505 2880 
Q 2244 3097 1772 3097 
Q 1472 3097 1187 3025 
Q 903 2953 641 2809 
L 641 3341 
Q 956 3463 1253 3523 
Q 1550 3584 1831 3584 
Q 2591 3584 2966 3190 
Q 3341 2797 3341 1997 
z
" transform="scale(0.015625)"/>
      <path id="DejaVuSans-3d" d="M 678 2906 
L 4684 2906 
L 4684 2381 
L 678 2381 
L 678 2906 
z
M 678 1631 
L 4684 1631 
L 4684 1100 
L 678 1100 
L 678 1631 
z
" transform="scale(0.015625)"/>
      <path id="DejaVuSans-2d" d="M 313 2009 
L 1997 2009 
L 1997 1497 
L 313 1497 
L 313 2009 
z
" transform="scale(0.015625)"/>
      <path id="DejaVuSans-38" d="M 2034 2216 
Q 1584 2216 1326 1975 
Q 1069 1734 1069 1313 
Q 1069 891 1326 650 
Q 1584 409 2034 409 
Q 2484 409 2743 651 
Q 3003 894 3003 1313 
Q 3003 1734 2745 1975 
Q 2488 2216 2034 2216 
z
M 1403 2484 
Q 997 2584 770 2862 
Q 544 3141 544 3541 
Q 544 4100 942 4425 
Q 1341 4750 2034 4750 
Q 2731 4750 3128 4425 
Q 3525 4100 3525 3541 
Q 3525 3141 3298 2862 
Q 3072 2584 2669 2484 
Q 3125 2378 3379 2068 
Q 3634 1759 3634 1313 
Q 3634 634 3220 271 
Q 2806 -91 2034 -91 
Q 1263 -91 848 271 
Q 434 634 434 1313 
Q 434 1759 690 2068 
Q 947 2378 1403 2484 
z
M 1172 3481 
Q 1172 3119 1398 2916 
Q 1625 2713 2034 2713 
Q 2441 2713 2670 2916 
Q 2900 3119 2900 3481 
Q 2900 3844 2670 4047 
Q 2441 4250 2034 4250 
Q 1625 4250 1398 4047 
Q 1172 3844 1172 3481 
z
" transform="scale(0.015625)"/>
      <path id="DejaVuSans-37" d="M 525 4666 
L 3525 4666 
L 3525 4397 
L 1831 0 
L 1172 0 
L 2766 4134 
L 525 4134 
L 525 4666 
z
" transform="scale(0.015625)"/>
      <path id="DejaVuSans-39" d="M 703 97 
L 703 672 
Q 941 559 1184 500 
Q 1428 441 1663 441 
Q 2288 441 2617 861 
Q 2947 1281 2994 2138 
Q 2813 1869 2534 1725 
Q 2256 1581 1919 1581 
Q 1219 1581 811 2004 
Q 403 2428 403 3163 
Q 403 3881 828 4315 
Q 1253 4750 1959 4750 
Q 2769 4750 3195 4129 
Q 3622 3509 3622 2328 
Q 3622 1225 3098 567 
Q 2575 -91 1691 -91 
Q 1453 -91 1209 -44 
Q 966 3 703 97 
z
M 1959 2075 
Q 2384 2075 2632 2365 
Q 2881 2656 2881 3163 
Q 2881 3666 2632 3958 
Q 2384 4250 1959 4250 
Q 1534 4250 1286 3958 
Q 1038 3666 1038 3163 
Q 1038 2656 1286 2365 
Q 1534 2075 1959 2075 
z
" transform="scale(0.015625)"/>
     </defs>
     <use xlink:href="#DejaVuSans-4d"/>
     <use xlink:href="#DejaVuSans-65" transform="translate(86.279297 0)"/>
     <use xlink:href="#DejaVuSans-61" transform="translate(147.802734 0)"/>
     <use xlink:href="#DejaVuSans-6e" transform="translate(209.082031 0)"/>
     <use xlink:href="#DejaVuSans-20" transform="translate(272.460938 0)"/>
     <use xlink:href="#DejaVuSans-3d" transform="translate(304.248047 0)"/>
     <use xlink:href="#DejaVuSans-20" transform="translate(388.037109 0)"/>
     <use xlink:href="#DejaVuSans-2d" transform="translate(419.824219 0)"/>
     <use xlink:href="#DejaVuSans-30" transform="translate(455.908203 0)"/>
     <use xlink:href="#DejaVuSans-2e" transform="translate(519.53125 0)"/>
     <use xlink:href="#DejaVuSans-38" transform="translate(551.318359 0)"/>
     <use xlink:href="#DejaVuSans-37" transform="translate(614.941406 0)"/>
     <use xlink:href="#DejaVuSans-39" transform="translate(678.564453 0)"/>
    </g>
    <!-- Median = -0.880 -->
    <g transform="translate(59.425496 49.185276) scale(0.086 -0.086)">
     <defs>
      <path id="DejaVuSans-64" d="M 2906 2969 
L 2906 4863 
L 3481 4863 
L 3481 0 
L 2906 0 
L 2906 525 
Q 2725 213 2448 61 
Q 2172 -91 1784 -91 
Q 1150 -91 751 415 
Q 353 922 353 1747 
Q 353 2572 751 3078 
Q 1150 3584 1784 3584 
Q 2172 3584 2448 3432 
Q 2725 3281 2906 2969 
z
M 947 1747 
Q 947 1113 1208 752 
Q 1469 391 1925 391 
Q 2381 391 2643 752 
Q 2906 1113 2906 1747 
Q 2906 2381 2643 2742 
Q 2381 3103 1925 3103 
Q 1469 3103 1208 2742 
Q 947 2381 947 1747 
z
" transform="scale(0.015625)"/>
     </defs>
     <use xlink:href="#DejaVuSans-4d"/>
     <use xlink:href="#DejaVuSans-65" transform="translate(86.279297 0)"/>
     <use xlink:href="#DejaVuSans-64" transform="translate(147.802734 0)"/>
     <use xlink:href="#DejaVuSans-69" transform="translate(211.279297 0)"/>
     <use xlink:href="#DejaVuSans-61" transform="translate(239.0625 0)"/>
     <use xlink:href="#DejaVuSans-6e" transform="translate(300.341797 0)"/>
     <use xlink:href="#DejaVuSans-20" transform="translate(363.720703 0)"/>
     <use xlink:href="#DejaVuSans-3d" transform="translate(395.507812 0)"/>
     <use xlink:href="#DejaVuSans-20" transform="translate(479.296875 0)"/>
     <use xlink:href="#DejaVuSans-2d" transform="translate(511.083984 0)"/>
     <use xlink:href="#DejaVuSans-30" transform="translate(547.167969 0)"/>
     <use xlink:href="#DejaVuSans-2e" transform="translate(610.791016 0)"/>
     <use xlink:href="#DejaVuSans-38" transform="translate(642.578125 0)"/>
     <use xlink:href="#DejaVuSans-38" transform="translate(706.201172 0)"/>
     <use xlink:href="#DejaVuSans-30" transform="translate(769.824219 0)"/>
    </g>
    <!-- Overestimated = 77.9% -->
    <g transform="translate(59.425496 58.815395) scale(0.086 -0.086)">
     <defs>
      <path id="DejaVuSans-4f" d="M 2522 4238 
Q 1834 4238 1429 3725 
Q 1025 3213 1025 2328 
Q 1025 1447 1429 934 
Q 1834 422 2522 422 
Q 3209 422 3611 934 
Q 4013 1447 4013 2328 
Q 4013 3213 3611 3725 
Q 3209 4238 2522 4238 
z
M 2522 4750 
Q 3503 4750 4090 4092 
Q 4678 3434 4678 2328 
Q 4678 1225 4090 567 
Q 3503 -91 2522 -91 
Q 1538 -91 948 565 
Q 359 1222 359 2328 
Q 359 3434 948 4092 
Q 1538 4750 2522 4750 
z
" transform="scale(0.015625)"/>
      <path id="DejaVuSans-76" d="M 191 3500 
L 800 3500 
L 1894 563 
L 2988 3500 
L 3597 3500 
L 2284 0 
L 1503 0 
L 191 3500 
z
" transform="scale(0.015625)"/>
      <path id="DejaVuSans-6d" d="M 3328 2828 
Q 3544 3216 3844 3400 
Q 4144 3584 4550 3584 
Q 5097 3584 5394 3201 
Q 5691 2819 5691 2113 
L 5691 0 
L 5113 0 
L 5113 2094 
Q 5113 2597 4934 2840 
Q 4756 3084 4391 3084 
Q 3944 3084 3684 2787 
Q 3425 2491 3425 1978 
L 3425 0 
L 2847 0 
L 2847 2094 
Q 2847 2600 2669 2842 
Q 2491 3084 2119 3084 
Q 1678 3084 1418 2786 
Q 1159 2488 1159 1978 
L 1159 0 
L 581 0 
L 581 3500 
L 1159 3500 
L 1159 2956 
Q 1356 3278 1631 3431 
Q 1906 3584 2284 3584 
Q 2666 3584 2933 3390 
Q 3200 3197 3328 2828 
z
" transform="scale(0.015625)"/>
      <path id="DejaVuSans-25" d="M 4653 2053 
Q 4381 2053 4226 1822 
Q 4072 1591 4072 1178 
Q 4072 772 4226 539 
Q 4381 306 4653 306 
Q 4919 306 5073 539 
Q 5228 772 5228 1178 
Q 5228 1588 5073 1820 
Q 4919 2053 4653 2053 
z
M 4653 2450 
Q 5147 2450 5437 2106 
Q 5728 1763 5728 1178 
Q 5728 594 5436 251 
Q 5144 -91 4653 -91 
Q 4153 -91 3862 251 
Q 3572 594 3572 1178 
Q 3572 1766 3864 2108 
Q 4156 2450 4653 2450 
z
M 1428 4353 
Q 1159 4353 1004 4120 
Q 850 3888 850 3481 
Q 850 3069 1003 2837 
Q 1156 2606 1428 2606 
Q 1700 2606 1854 2837 
Q 2009 3069 2009 3481 
Q 2009 3884 1853 4118 
Q 1697 4353 1428 4353 
z
M 4250 4750 
L 4750 4750 
L 1831 -91 
L 1331 -91 
L 4250 4750 
z
M 1428 4750 
Q 1922 4750 2215 4408 
Q 2509 4066 2509 3481 
Q 2509 2891 2217 2550 
Q 1925 2209 1428 2209 
Q 931 2209 642 2551 
Q 353 2894 353 3481 
Q 353 4063 643 4406 
Q 934 4750 1428 4750 
z
" transform="scale(0.015625)"/>
     </defs>
     <use xlink:href="#DejaVuSans-4f"/>
     <use xlink:href="#DejaVuSans-76" transform="translate(78.710938 0)"/>
     <use xlink:href="#DejaVuSans-65" transform="translate(137.890625 0)"/>
     <use xlink:href="#DejaVuSans-72" transform="translate(199.414062 0)"/>
     <use xlink:href="#DejaVuSans-65" transform="translate(238.277344 0)"/>
     <use xlink:href="#DejaVuSans-73" transform="translate(299.800781 0)"/>
     <use xlink:href="#DejaVuSans-74" transform="translate(351.900391 0)"/>
     <use xlink:href="#DejaVuSans-69" transform="translate(391.109375 0)"/>
     <use xlink:href="#DejaVuSans-6d" transform="translate(418.892578 0)"/>
     <use xlink:href="#DejaVuSans-61" transform="translate(516.304688 0)"/>
     <use xlink:href="#DejaVuSans-74" transform="translate(577.583984 0)"/>
     <use xlink:href="#DejaVuSans-65" transform="translate(616.792969 0)"/>
     <use xlink:href="#DejaVuSans-64" transform="translate(678.316406 0)"/>
     <use xlink:href="#DejaVuSans-20" transform="translate(741.792969 0)"/>
     <use xlink:href="#DejaVuSans-3d" transform="translate(773.580078 0)"/>
     <use xlink:href="#DejaVuSans-20" transform="translate(857.369141 0)"/>
     <use xlink:href="#DejaVuSans-37" transform="translate(889.15625 0)"/>
     <use xlink:href="#DejaVuSans-37" transform="translate(952.779297 0)"/>
     <use xlink:href="#DejaVuSans-2e" transform="translate(1016.402344 0)"/>
     <use xlink:href="#DejaVuSans-39" transform="translate(1048.189453 0)"/>
     <use xlink:href="#DejaVuSans-25" transform="translate(1111.8125 0)"/>
    </g>
    <!-- Shapiro–Wilk W = 0.977, p = 0.088 -->
    <g transform="translate(59.425496 68.445514) scale(0.086 -0.086)">
     <defs>
      <path id="DejaVuSans-53" d="M 3425 4513 
L 3425 3897 
Q 3066 4069 2747 4153 
Q 2428 4238 2131 4238 
Q 1616 4238 1336 4038 
Q 1056 3838 1056 3469 
Q 1056 3159 1242 3001 
Q 1428 2844 1947 2747 
L 2328 2669 
Q 3034 2534 3370 2195 
Q 3706 1856 3706 1288 
Q 3706 609 3251 259 
Q 2797 -91 1919 -91 
Q 1588 -91 1214 -16 
Q 841 59 441 206 
L 441 856 
Q 825 641 1194 531 
Q 1563 422 1919 422 
Q 2459 422 2753 634 
Q 3047 847 3047 1241 
Q 3047 1584 2836 1778 
Q 2625 1972 2144 2069 
L 1759 2144 
Q 1053 2284 737 2584 
Q 422 2884 422 3419 
Q 422 4038 858 4394 
Q 1294 4750 2059 4750 
Q 2388 4750 2728 4690 
Q 3069 4631 3425 4513 
z
" transform="scale(0.015625)"/>
      <path id="DejaVuSans-68" d="M 3513 2113 
L 3513 0 
L 2938 0 
L 2938 2094 
Q 2938 2591 2744 2837 
Q 2550 3084 2163 3084 
Q 1697 3084 1428 2787 
Q 1159 2491 1159 1978 
L 1159 0 
L 581 0 
L 581 4863 
L 1159 4863 
L 1159 2956 
Q 1366 3272 1645 3428 
Q 1925 3584 2291 3584 
Q 2894 3584 3203 3211 
Q 3513 2838 3513 2113 
z
" transform="scale(0.015625)"/>
      <path id="DejaVuSans-70" d="M 1159 525 
L 1159 -1331 
L 581 -1331 
L 581 3500 
L 1159 3500 
L 1159 2969 
Q 1341 3281 1617 3432 
Q 1894 3584 2278 3584 
Q 2916 3584 3314 3078 
Q 3713 2572 3713 1747 
Q 3713 922 3314 415 
Q 2916 -91 2278 -91 
Q 1894 -91 1617 61 
Q 1341 213 1159 525 
z
M 3116 1747 
Q 3116 2381 2855 2742 
Q 2594 3103 2138 3103 
Q 1681 3103 1420 2742 
Q 1159 2381 1159 1747 
Q 1159 1113 1420 752 
Q 1681 391 2138 391 
Q 2594 391 2855 752 
Q 3116 1113 3116 1747 
z
" transform="scale(0.015625)"/>
      <path id="DejaVuSans-2013" d="M 313 1978 
L 2888 1978 
L 2888 1528 
L 313 1528 
L 313 1978 
z
" transform="scale(0.015625)"/>
      <path id="DejaVuSans-57" d="M 213 4666 
L 850 4666 
L 1831 722 
L 2809 4666 
L 3519 4666 
L 4500 722 
L 5478 4666 
L 6119 4666 
L 4947 0 
L 4153 0 
L 3169 4050 
L 2175 0 
L 1381 0 
L 213 4666 
z
" transform="scale(0.015625)"/>
      <path id="DejaVuSans-6b" d="M 581 4863 
L 1159 4863 
L 1159 1991 
L 2875 3500 
L 3609 3500 
L 1753 1863 
L 3688 0 
L 2938 0 
L 1159 1709 
L 1159 0 
L 581 0 
L 581 4863 
z
" transform="scale(0.015625)"/>
     </defs>
     <use xlink:href="#DejaVuSans-53"/>
     <use xlink:href="#DejaVuSans-68" transform="translate(63.476562 0)"/>
     <use xlink:href="#DejaVuSans-61" transform="translate(126.855469 0)"/>
     <use xlink:href="#DejaVuSans-70" transform="translate(188.134766 0)"/>
     <use xlink:href="#DejaVuSans-69" transform="translate(251.611328 0)"/>
     <use xlink:href="#DejaVuSans-72" transform="translate(279.394531 0)"/>
     <use xlink:href="#DejaVuSans-6f" transform="translate(318.257812 0)"/>
     <use xlink:href="#DejaVuSans-2013" transform="translate(379.439453 0)"/>
     <use xlink:href="#DejaVuSans-57" transform="translate(429.439453 0)"/>
     <use xlink:href="#DejaVuSans-69" transform="translate(526.066406 0)"/>
     <use xlink:href="#DejaVuSans-6c" transform="translate(553.849609 0)"/>
     <use xlink:href="#DejaVuSans-6b" transform="translate(581.632812 0)"/>
     <use xlink:href="#DejaVuSans-20" transform="translate(639.542969 0)"/>
     <use xlink:href="#DejaVuSans-57" transform="translate(671.330078 0)"/>
     <use xlink:href="#DejaVuSans-20" transform="translate(770.207031 0)"/>
     <use xlink:href="#DejaVuSans-3d" transform="translate(801.994141 0)"/>
     <use xlink:href="#DejaVuSans-20" transform="translate(885.783203 0)"/>
     <use xlink:href="#DejaVuSans-30" transform="translate(917.570312 0)"/>
     <use xlink:href="#DejaVuSans-2e" transform="translate(981.193359 0)"/>
     <use xlink:href="#DejaVuSans-39" transform="translate(1012.980469 0)"/>
     <use xlink:href="#DejaVuSans-37" transform="translate(1076.603516 0)"/>
     <use xlink:href="#DejaVuSans-37" transform="translate(1140.226562 0)"/>
     <use xlink:href="#DejaVuSans-2c" transform="translate(1203.849609 0)"/>
     <use xlink:href="#DejaVuSans-20" transform="translate(1235.636719 0)"/>
     <use xlink:href="#DejaVuSans-70" transform="translate(1267.423828 0)"/>
     <use xlink:href="#DejaVuSans-20" transform="translate(1330.900391 0)"/>
     <use xlink:href="#DejaVuSans-3d" transform="translate(1362.6875 0)"/>
     <use xlink:href="#DejaVuSans-20" transform="translate(1446.476562 0)"/>
     <use xlink:href="#DejaVuSans-30" transform="translate(1478.263672 0)"/>
     <use xlink:href="#DejaVuSans-2e" transform="translate(1541.886719 0)"/>
     <use xlink:href="#DejaVuSans-30" transform="translate(1573.673828 0)"/>
     <use xlink:href="#DejaVuSans-38" transform="translate(1637.296875 0)"/>
     <use xlink:href="#DejaVuSans-38" transform="translate(1700.919922 0)"/>
    </g>
   </g>
   <g id="text_21">
    <!-- A -->
    <g transform="translate(18.048796 16.698047) scale(0.125 -0.125)">
     <defs>
      <path id="DejaVuSans-Bold-41" d="M 3419 850 
L 1538 850 
L 1241 0 
L 31 0 
L 1759 4666 
L 3194 4666 
L 4922 0 
L 3713 0 
L 3419 850 
z
M 1838 1716 
L 3116 1716 
L 2478 3572 
L 1838 1716 
z
" transform="scale(0.015625)"/>
     </defs>
     <use xlink:href="#DejaVuSans-Bold-41"/>
    </g>
   </g>
   <g id="legend_1">
    <g id="patch_25">
     <path d="M 256.551073 37.802056 
L 268.451073 37.802056 
L 268.451073 31.852056 
L 256.551073 31.852056 
z
" style="fill: #8dbad7; opacity: 0.8; stroke: #ffffff; stroke-width: 0.55; stroke-linejoin: miter"/>
    </g>
    <g id="text_22">
     <!-- Histogram -->
     <g transform="translate(275.251073 37.802056) scale(0.085 -0.085)">
      <defs>
       <path id="DejaVuSans-48" d="M 628 4666 
L 1259 4666 
L 1259 2753 
L 3553 2753 
L 3553 4666 
L 4184 4666 
L 4184 0 
L 3553 0 
L 3553 2222 
L 1259 2222 
L 1259 0 
L 628 0 
L 628 4666 
z
" transform="scale(0.015625)"/>
      </defs>
      <use xlink:href="#DejaVuSans-48"/>
      <use xlink:href="#DejaVuSans-69" transform="translate(75.195312 0)"/>
      <use xlink:href="#DejaVuSans-73" transform="translate(102.978516 0)"/>
      <use xlink:href="#DejaVuSans-74" transform="translate(155.078125 0)"/>
      <use xlink:href="#DejaVuSans-6f" transform="translate(194.287109 0)"/>
      <use xlink:href="#DejaVuSans-67" transform="translate(255.46875 0)"/>
      <use xlink:href="#DejaVuSans-72" transform="translate(318.945312 0)"/>
      <use xlink:href="#DejaVuSans-61" transform="translate(360.058594 0)"/>
      <use xlink:href="#DejaVuSans-6d" transform="translate(421.337891 0)"/>
     </g>
    </g>
    <g id="line2d_30">
     <path d="M 256.551073 47.303463 
L 262.501073 47.303463 
L 268.451073 47.303463 
" style="fill: none; stroke: #1f6fb5; stroke-width: 1.7; stroke-linecap: square"/>
    </g>
    <g id="text_23">
     <!-- KDE -->
     <g transform="translate(275.251073 50.278463) scale(0.085 -0.085)">
      <defs>
       <path id="DejaVuSans-4b" d="M 628 4666 
L 1259 4666 
L 1259 2694 
L 3353 4666 
L 4166 4666 
L 1850 2491 
L 4331 0 
L 3500 0 
L 1259 2247 
L 1259 0 
L 628 0 
L 628 4666 
z
" transform="scale(0.015625)"/>
       <path id="DejaVuSans-45" d="M 628 4666 
L 3578 4666 
L 3578 4134 
L 1259 4134 
L 1259 2753 
L 3481 2753 
L 3481 2222 
L 1259 2222 
L 1259 531 
L 3634 531 
L 3634 0 
L 628 0 
L 628 4666 
z
" transform="scale(0.015625)"/>
      </defs>
      <use xlink:href="#DejaVuSans-4b"/>
      <use xlink:href="#DejaVuSans-44" transform="translate(65.576172 0)"/>
      <use xlink:href="#DejaVuSans-45" transform="translate(142.578125 0)"/>
     </g>
    </g>
   </g>
  </g>
  <g id="axes_2">
   <g id="patch_26">
    <path d="M 381.824823 256.871304 
L 596.890156 256.871304 
L 596.890156 23.693384 
L 381.824823 23.693384 
z
" style="fill: #ffffff"/>
   </g>
   <g id="matplotlib.axis_3">
    <g id="xtick_9">
     <g id="line2d_31">
      <g>
       <use xlink:href="#m77745bf186" x="408.70799" y="256.871304" style="stroke: #000000; stroke-width: 0.8"/>
      </g>
     </g>
     <g id="text_24">
      <!-- N = 0 -->
      <g transform="translate(394.703943 271.317773) scale(0.098 -0.098)">
       <defs>
        <path id="DejaVuSans-4e" d="M 628 4666 
L 1478 4666 
L 3547 763 
L 3547 4666 
L 4159 4666 
L 4159 0 
L 3309 0 
L 1241 3903 
L 1241 0 
L 628 0 
L 628 4666 
z
" transform="scale(0.015625)"/>
       </defs>
       <use xlink:href="#DejaVuSans-4e"/>
       <use xlink:href="#DejaVuSans-20" transform="translate(74.804688 0)"/>
       <use xlink:href="#DejaVuSans-3d" transform="translate(106.591797 0)"/>
       <use xlink:href="#DejaVuSans-20" transform="translate(190.380859 0)"/>
       <use xlink:href="#DejaVuSans-30" transform="translate(222.167969 0)"/>
      </g>
      <!-- (n = 11) -->
      <g transform="translate(388.323224 282.291629) scale(0.098 -0.098)">
       <defs>
        <path id="DejaVuSans-28" d="M 1984 4856 
Q 1566 4138 1362 3434 
Q 1159 2731 1159 2009 
Q 1159 1288 1364 580 
Q 1569 -128 1984 -844 
L 1484 -844 
Q 1016 -109 783 600 
Q 550 1309 550 2009 
Q 550 2706 781 3412 
Q 1013 4119 1484 4856 
L 1984 4856 
z
" transform="scale(0.015625)"/>
        <path id="DejaVuSans-29" d="M 513 4856 
L 1013 4856 
Q 1481 4119 1714 3412 
Q 1947 2706 1947 2009 
Q 1947 1309 1714 600 
Q 1481 -109 1013 -844 
L 513 -844 
Q 928 -128 1133 580 
Q 1338 1288 1338 2009 
Q 1338 2731 1133 3434 
Q 928 4138 513 4856 
z
" transform="scale(0.015625)"/>
       </defs>
       <use xlink:href="#DejaVuSans-28"/>
       <use xlink:href="#DejaVuSans-6e" transform="translate(39.013672 0)"/>
       <use xlink:href="#DejaVuSans-20" transform="translate(102.392578 0)"/>
       <use xlink:href="#DejaVuSans-3d" transform="translate(134.179688 0)"/>
       <use xlink:href="#DejaVuSans-20" transform="translate(217.96875 0)"/>
       <use xlink:href="#DejaVuSans-31" transform="translate(249.755859 0)"/>
       <use xlink:href="#DejaVuSans-31" transform="translate(313.378906 0)"/>
       <use xlink:href="#DejaVuSans-29" transform="translate(377.001953 0)"/>
      </g>
     </g>
    </g>
    <g id="xtick_10">
     <g id="line2d_32">
      <g>
       <use xlink:href="#m77745bf186" x="462.474323" y="256.871304" style="stroke: #000000; stroke-width: 0.8"/>
      </g>
     </g>
     <g id="text_25">
      <!-- N = 1 -->
      <g transform="translate(448.470276 271.317773) scale(0.098 -0.098)">
       <use xlink:href="#DejaVuSans-4e"/>
       <use xlink:href="#DejaVuSans-20" transform="translate(74.804688 0)"/>
       <use xlink:href="#DejaVuSans-3d" transform="translate(106.591797 0)"/>
       <use xlink:href="#DejaVuSans-20" transform="translate(190.380859 0)"/>
       <use xlink:href="#DejaVuSans-31" transform="translate(222.167969 0)"/>
      </g>
      <!-- (n = 16) -->
      <g transform="translate(442.089557 282.291629) scale(0.098 -0.098)">
       <defs>
        <path id="DejaVuSans-36" d="M 2113 2584 
Q 1688 2584 1439 2293 
Q 1191 2003 1191 1497 
Q 1191 994 1439 701 
Q 1688 409 2113 409 
Q 2538 409 2786 701 
Q 3034 994 3034 1497 
Q 3034 2003 2786 2293 
Q 2538 2584 2113 2584 
z
M 3366 4563 
L 3366 3988 
Q 3128 4100 2886 4159 
Q 2644 4219 2406 4219 
Q 1781 4219 1451 3797 
Q 1122 3375 1075 2522 
Q 1259 2794 1537 2939 
Q 1816 3084 2150 3084 
Q 2853 3084 3261 2657 
Q 3669 2231 3669 1497 
Q 3669 778 3244 343 
Q 2819 -91 2113 -91 
Q 1303 -91 875 529 
Q 447 1150 447 2328 
Q 447 3434 972 4092 
Q 1497 4750 2381 4750 
Q 2619 4750 2861 4703 
Q 3103 4656 3366 4563 
z
" transform="scale(0.015625)"/>
       </defs>
       <use xlink:href="#DejaVuSans-28"/>
       <use xlink:href="#DejaVuSans-6e" transform="translate(39.013672 0)"/>
       <use xlink:href="#DejaVuSans-20" transform="translate(102.392578 0)"/>
       <use xlink:href="#DejaVuSans-3d" transform="translate(134.179688 0)"/>
       <use xlink:href="#DejaVuSans-20" transform="translate(217.96875 0)"/>
       <use xlink:href="#DejaVuSans-31" transform="translate(249.755859 0)"/>
       <use xlink:href="#DejaVuSans-36" transform="translate(313.378906 0)"/>
       <use xlink:href="#DejaVuSans-29" transform="translate(377.001953 0)"/>
      </g>
     </g>
    </g>
    <g id="xtick_11">
     <g id="line2d_33">
      <g>
       <use xlink:href="#m77745bf186" x="516.240656" y="256.871304" style="stroke: #000000; stroke-width: 0.8"/>
      </g>
     </g>
     <g id="text_26">
      <!-- N = 2–3 -->
      <g transform="translate(496.668984 271.317773) scale(0.098 -0.098)">
       <use xlink:href="#DejaVuSans-4e"/>
       <use xlink:href="#DejaVuSans-20" transform="translate(74.804688 0)"/>
       <use xlink:href="#DejaVuSans-3d" transform="translate(106.591797 0)"/>
       <use xlink:href="#DejaVuSans-20" transform="translate(190.380859 0)"/>
       <use xlink:href="#DejaVuSans-32" transform="translate(222.167969 0)"/>
       <use xlink:href="#DejaVuSans-2013" transform="translate(285.791016 0)"/>
       <use xlink:href="#DejaVuSans-33" transform="translate(335.791016 0)"/>
      </g>
      <!-- (n = 41) -->
      <g transform="translate(495.855891 282.291629) scale(0.098 -0.098)">
       <use xlink:href="#DejaVuSans-28"/>
       <use xlink:href="#DejaVuSans-6e" transform="translate(39.013672 0)"/>
       <use xlink:href="#DejaVuSans-20" transform="translate(102.392578 0)"/>
       <use xlink:href="#DejaVuSans-3d" transform="translate(134.179688 0)"/>
       <use xlink:href="#DejaVuSans-20" transform="translate(217.96875 0)"/>
       <use xlink:href="#DejaVuSans-34" transform="translate(249.755859 0)"/>
       <use xlink:href="#DejaVuSans-31" transform="translate(313.378906 0)"/>
       <use xlink:href="#DejaVuSans-29" transform="translate(377.001953 0)"/>
      </g>
     </g>
    </g>
    <g id="xtick_12">
     <g id="line2d_34">
      <g>
       <use xlink:href="#m77745bf186" x="570.00699" y="256.871304" style="stroke: #000000; stroke-width: 0.8"/>
      </g>
     </g>
     <g id="text_27">
      <!-- N ≥ 4 -->
      <g transform="translate(556.002943 271.317773) scale(0.098 -0.098)">
       <defs>
        <path id="DejaVuSans-2265" d="M 678 3175 
L 678 3725 
L 4684 2578 
L 4684 2047 
L 678 897 
L 678 1453 
L 3681 2309 
L 678 3175 
z
M 4684 531 
L 4684 0 
L 678 0 
L 678 531 
L 4684 531 
z
" transform="scale(0.015625)"/>
       </defs>
       <use xlink:href="#DejaVuSans-4e"/>
       <use xlink:href="#DejaVuSans-20" transform="translate(74.804688 0)"/>
       <use xlink:href="#DejaVuSans-2265" transform="translate(106.591797 0)"/>
       <use xlink:href="#DejaVuSans-20" transform="translate(190.380859 0)"/>
       <use xlink:href="#DejaVuSans-34" transform="translate(222.167969 0)"/>
      </g>
      <!-- (n = 27) -->
      <g transform="translate(549.622224 282.291629) scale(0.098 -0.098)">
       <use xlink:href="#DejaVuSans-28"/>
       <use xlink:href="#DejaVuSans-6e" transform="translate(39.013672 0)"/>
       <use xlink:href="#DejaVuSans-20" transform="translate(102.392578 0)"/>
       <use xlink:href="#DejaVuSans-3d" transform="translate(134.179688 0)"/>
       <use xlink:href="#DejaVuSans-20" transform="translate(217.96875 0)"/>
       <use xlink:href="#DejaVuSans-32" transform="translate(249.755859 0)"/>
       <use xlink:href="#DejaVuSans-37" transform="translate(313.378906 0)"/>
       <use xlink:href="#DejaVuSans-29" transform="translate(377.001953 0)"/>
      </g>
     </g>
    </g>
    <g id="text_28">
     <!-- Nitrogen-count group -->
     <g transform="translate(427.797451 297.067926) scale(0.115 -0.115)">
      <defs>
       <path id="DejaVuSans-63" d="M 3122 3366 
L 3122 2828 
Q 2878 2963 2633 3030 
Q 2388 3097 2138 3097 
Q 1578 3097 1268 2742 
Q 959 2388 959 1747 
Q 959 1106 1268 751 
Q 1578 397 2138 397 
Q 2388 397 2633 464 
Q 2878 531 3122 666 
L 3122 134 
Q 2881 22 2623 -34 
Q 2366 -91 2075 -91 
Q 1284 -91 818 406 
Q 353 903 353 1747 
Q 353 2603 823 3093 
Q 1294 3584 2113 3584 
Q 2378 3584 2631 3529 
Q 2884 3475 3122 3366 
z
" transform="scale(0.015625)"/>
      </defs>
      <use xlink:href="#DejaVuSans-4e"/>
      <use xlink:href="#DejaVuSans-69" transform="translate(74.804688 0)"/>
      <use xlink:href="#DejaVuSans-74" transform="translate(102.587891 0)"/>
      <use xlink:href="#DejaVuSans-72" transform="translate(141.796875 0)"/>
      <use xlink:href="#DejaVuSans-6f" transform="translate(180.660156 0)"/>
      <use xlink:href="#DejaVuSans-67" transform="translate(241.841797 0)"/>
      <use xlink:href="#DejaVuSans-65" transform="translate(305.318359 0)"/>
      <use xlink:href="#DejaVuSans-6e" transform="translate(366.841797 0)"/>
      <use xlink:href="#DejaVuSans-2d" transform="translate(430.220703 0)"/>
      <use xlink:href="#DejaVuSans-63" transform="translate(466.304688 0)"/>
      <use xlink:href="#DejaVuSans-6f" transform="translate(521.285156 0)"/>
      <use xlink:href="#DejaVuSans-75" transform="translate(582.466797 0)"/>
      <use xlink:href="#DejaVuSans-6e" transform="translate(645.845703 0)"/>
      <use xlink:href="#DejaVuSans-74" transform="translate(709.224609 0)"/>
      <use xlink:href="#DejaVuSans-20" transform="translate(748.433594 0)"/>
      <use xlink:href="#DejaVuSans-67" transform="translate(780.220703 0)"/>
      <use xlink:href="#DejaVuSans-72" transform="translate(843.697266 0)"/>
      <use xlink:href="#DejaVuSans-6f" transform="translate(882.560547 0)"/>
      <use xlink:href="#DejaVuSans-75" transform="translate(943.742188 0)"/>
      <use xlink:href="#DejaVuSans-70" transform="translate(1007.121094 0)"/>
     </g>
    </g>
   </g>
   <g id="matplotlib.axis_4">
    <g id="ytick_10">
     <g id="line2d_35">
      <path d="M 381.824823 241.34439 
L 596.890156 241.34439 
" clip-path="url(#p1842c5eab0)" style="fill: none; stroke: #b0b0b0; stroke-opacity: 0.3; stroke-width: 0.45; stroke-linecap: square"/>
     </g>
     <g id="line2d_36">
      <g>
       <use xlink:href="#m40588a955e" x="381.824823" y="241.34439" style="stroke: #000000; stroke-width: 0.8"/>
      </g>
     </g>
     <g id="text_29">
      <!-- −5 -->
      <g transform="translate(360.377479 245.067625) scale(0.098 -0.098)">
       <use xlink:href="#DejaVuSans-2212"/>
       <use xlink:href="#DejaVuSans-35" transform="translate(83.789062 0)"/>
      </g>
     </g>
    </g>
    <g id="ytick_11">
     <g id="line2d_37">
      <path d="M 381.824823 212.781266 
L 596.890156 212.781266 
" clip-path="url(#p1842c5eab0)" style="fill: none; stroke: #b0b0b0; stroke-opacity: 0.3; stroke-width: 0.45; stroke-linecap: square"/>
     </g>
     <g id="line2d_38">
      <g>
       <use xlink:href="#m40588a955e" x="381.824823" y="212.781266" style="stroke: #000000; stroke-width: 0.8"/>
      </g>
     </g>
     <g id="text_30">
      <!-- −4 -->
      <g transform="translate(360.377479 216.5045) scale(0.098 -0.098)">
       <use xlink:href="#DejaVuSans-2212"/>
       <use xlink:href="#DejaVuSans-34" transform="translate(83.789062 0)"/>
      </g>
     </g>
    </g>
    <g id="ytick_12">
     <g id="line2d_39">
      <path d="M 381.824823 184.218142 
L 596.890156 184.218142 
" clip-path="url(#p1842c5eab0)" style="fill: none; stroke: #b0b0b0; stroke-opacity: 0.3; stroke-width: 0.45; stroke-linecap: square"/>
     </g>
     <g id="line2d_40">
      <g>
       <use xlink:href="#m40588a955e" x="381.824823" y="184.218142" style="stroke: #000000; stroke-width: 0.8"/>
      </g>
     </g>
     <g id="text_31">
      <!-- −3 -->
      <g transform="translate(360.377479 187.941376) scale(0.098 -0.098)">
       <use xlink:href="#DejaVuSans-2212"/>
       <use xlink:href="#DejaVuSans-33" transform="translate(83.789062 0)"/>
      </g>
     </g>
    </g>
    <g id="ytick_13">
     <g id="line2d_41">
      <path d="M 381.824823 155.655018 
L 596.890156 155.655018 
" clip-path="url(#p1842c5eab0)" style="fill: none; stroke: #b0b0b0; stroke-opacity: 0.3; stroke-width: 0.45; stroke-linecap: square"/>
     </g>
     <g id="line2d_42">
      <g>
       <use xlink:href="#m40588a955e" x="381.824823" y="155.655018" style="stroke: #000000; stroke-width: 0.8"/>
      </g>
     </g>
     <g id="text_32">
      <!-- −2 -->
      <g transform="translate(360.377479 159.378252) scale(0.098 -0.098)">
       <use xlink:href="#DejaVuSans-2212"/>
       <use xlink:href="#DejaVuSans-32" transform="translate(83.789062 0)"/>
      </g>
     </g>
    </g>
    <g id="ytick_14">
     <g id="line2d_43">
      <path d="M 381.824823 127.091894 
L 596.890156 127.091894 
" clip-path="url(#p1842c5eab0)" style="fill: none; stroke: #b0b0b0; stroke-opacity: 0.3; stroke-width: 0.45; stroke-linecap: square"/>
     </g>
     <g id="line2d_44">
      <g>
       <use xlink:href="#m40588a955e" x="381.824823" y="127.091894" style="stroke: #000000; stroke-width: 0.8"/>
      </g>
     </g>
     <g id="text_33">
      <!-- −1 -->
      <g transform="translate(360.377479 130.815128) scale(0.098 -0.098)">
       <use xlink:href="#DejaVuSans-2212"/>
       <use xlink:href="#DejaVuSans-31" transform="translate(83.789062 0)"/>
      </g>
     </g>
    </g>
    <g id="ytick_15">
     <g id="line2d_45">
      <path d="M 381.824823 98.52877 
L 596.890156 98.52877 
" clip-path="url(#p1842c5eab0)" style="fill: none; stroke: #b0b0b0; stroke-opacity: 0.3; stroke-width: 0.45; stroke-linecap: square"/>
     </g>
     <g id="line2d_46">
      <g>
       <use xlink:href="#m40588a955e" x="381.824823" y="98.52877" style="stroke: #000000; stroke-width: 0.8"/>
      </g>
     </g>
     <g id="text_34">
      <!-- 0 -->
      <g transform="translate(368.589573 102.252004) scale(0.098 -0.098)">
       <use xlink:href="#DejaVuSans-30"/>
      </g>
     </g>
    </g>
    <g id="ytick_16">
     <g id="line2d_47">
      <path d="M 381.824823 69.965646 
L 596.890156 69.965646 
" clip-path="url(#p1842c5eab0)" style="fill: none; stroke: #b0b0b0; stroke-opacity: 0.3; stroke-width: 0.45; stroke-linecap: square"/>
     </g>
     <g id="line2d_48">
      <g>
       <use xlink:href="#m40588a955e" x="381.824823" y="69.965646" style="stroke: #000000; stroke-width: 0.8"/>
      </g>
     </g>
     <g id="text_35">
      <!-- 1 -->
      <g transform="translate(368.589573 73.68888) scale(0.098 -0.098)">
       <use xlink:href="#DejaVuSans-31"/>
      </g>
     </g>
    </g>
    <g id="ytick_17">
     <g id="line2d_49">
      <path d="M 381.824823 41.402521 
L 596.890156 41.402521 
" clip-path="url(#p1842c5eab0)" style="fill: none; stroke: #b0b0b0; stroke-opacity: 0.3; stroke-width: 0.45; stroke-linecap: square"/>
     </g>
     <g id="line2d_50">
      <g>
       <use xlink:href="#m40588a955e" x="381.824823" y="41.402521" style="stroke: #000000; stroke-width: 0.8"/>
      </g>
     </g>
     <g id="text_36">
      <!-- 2 -->
      <g transform="translate(368.589573 45.125756) scale(0.098 -0.098)">
       <use xlink:href="#DejaVuSans-32"/>
      </g>
     </g>
    </g>
    <g id="text_37">
     <!-- Consensus error, $\Delta$logP -->
     <g transform="translate(353.962479 207.097344) rotate(-90) scale(0.115 -0.115)">
      <use xlink:href="#DejaVuSans-43" transform="translate(0 0.015625)"/>
      <use xlink:href="#DejaVuSans-6f" transform="translate(69.824219 0.015625)"/>
      <use xlink:href="#DejaVuSans-6e" transform="translate(131.005859 0.015625)"/>
      <use xlink:href="#DejaVuSans-73" transform="translate(194.384766 0.015625)"/>
      <use xlink:href="#DejaVuSans-65" transform="translate(246.484375 0.015625)"/>
      <use xlink:href="#DejaVuSans-6e" transform="translate(308.007812 0.015625)"/>
      <use xlink:href="#DejaVuSans-73" transform="translate(371.386719 0.015625)"/>
      <use xlink:href="#DejaVuSans-75" transform="translate(423.486328 0.015625)"/>
      <use xlink:href="#DejaVuSans-73" transform="translate(486.865234 0.015625)"/>
      <use xlink:href="#DejaVuSans-20" transform="translate(538.964844 0.015625)"/>
      <use xlink:href="#DejaVuSans-65" transform="translate(570.751953 0.015625)"/>
      <use xlink:href="#DejaVuSans-72" transform="translate(632.275391 0.015625)"/>
      <use xlink:href="#DejaVuSans-72" transform="translate(673.388672 0.015625)"/>
      <use xlink:href="#DejaVuSans-6f" transform="translate(714.501953 0.015625)"/>
      <use xlink:href="#DejaVuSans-72" transform="translate(775.683594 0.015625)"/>
      <use xlink:href="#DejaVuSans-2c" transform="translate(816.796875 0.015625)"/>
      <use xlink:href="#DejaVuSans-20" transform="translate(848.583984 0.015625)"/>
      <use xlink:href="#DejaVuSans-394" transform="translate(880.371094 0.015625)"/>
      <use xlink:href="#DejaVuSans-6c" transform="translate(948.779297 0.015625)"/>
      <use xlink:href="#DejaVuSans-6f" transform="translate(976.5625 0.015625)"/>
      <use xlink:href="#DejaVuSans-67" transform="translate(1037.744141 0.015625)"/>
      <use xlink:href="#DejaVuSans-50" transform="translate(1101.220703 0.015625)"/>
     </g>
    </g>
   </g>
   <g id="patch_27">
    <path d="M 393.922248 111.096544 
L 423.493731 111.096544 
L 423.493731 82.819051 
L 393.922248 82.819051 
L 393.922248 111.096544 
z
" clip-path="url(#p1842c5eab0)" style="fill: #4c78a8; opacity: 0.82; stroke: #000000; stroke-width: 0.9; stroke-linejoin: miter"/>
   </g>
   <g id="line2d_51">
    <path d="M 408.70799 111.096544 
L 408.70799 133.804228 
" clip-path="url(#p1842c5eab0)" style="fill: none; stroke: #000000; stroke-width: 0.8; stroke-linecap: square"/>
   </g>
   <g id="line2d_52">
    <path d="M 408.70799 82.819051 
L 408.70799 43.116309 
" clip-path="url(#p1842c5eab0)" style="fill: none; stroke: #000000; stroke-width: 0.8; stroke-linecap: square"/>
   </g>
   <g id="line2d_53">
    <path d="M 401.315119 133.804228 
L 416.10086 133.804228 
" clip-path="url(#p1842c5eab0)" style="fill: none; stroke: #000000; stroke-width: 0.8; stroke-linecap: square"/>
   </g>
   <g id="line2d_54">
    <path d="M 401.315119 43.116309 
L 416.10086 43.116309 
" clip-path="url(#p1842c5eab0)" style="fill: none; stroke: #000000; stroke-width: 0.8; stroke-linecap: square"/>
   </g>
   <g id="line2d_55">
    <defs>
     <path id="m93889ff370" d="M 0 1.5 
C 0.397805 1.5 0.77937 1.341951 1.06066 1.06066 
C 1.341951 0.77937 1.5 0.397805 1.5 0 
C 1.5 -0.397805 1.341951 -0.77937 1.06066 -1.06066 
C 0.77937 -1.341951 0.397805 -1.5 0 -1.5 
C -0.397805 -1.5 -0.77937 -1.341951 -1.06066 -1.06066 
C -1.341951 -0.77937 -1.5 -0.397805 -1.5 0 
C -1.5 0.397805 -1.341951 0.77937 -1.06066 1.06066 
C -0.77937 1.341951 -0.397805 1.5 0 1.5 
z
" style="stroke: #a6a6a6; stroke-opacity: 0.65"/>
    </defs>
    <g clip-path="url(#p1842c5eab0)">
     <use xlink:href="#m93889ff370" x="408.70799" y="33.690478" style="fill: #a6a6a6; fill-opacity: 0.65; stroke: #a6a6a6; stroke-opacity: 0.65"/>
    </g>
   </g>
   <g id="patch_28">
    <path d="M 447.688581 146.5291 
L 477.260065 146.5291 
L 477.260065 132.218975 
L 447.688581 132.218975 
L 447.688581 146.5291 
z
" clip-path="url(#p1842c5eab0)" style="fill: #f2b45a; opacity: 0.82; stroke: #000000; stroke-width: 0.9; stroke-linejoin: miter"/>
   </g>
   <g id="line2d_56">
    <path d="M 462.474323 146.5291 
L 462.474323 161.424769 
" clip-path="url(#p1842c5eab0)" style="fill: none; stroke: #000000; stroke-width: 0.8; stroke-linecap: square"/>
   </g>
   <g id="line2d_57">
    <path d="M 462.474323 132.218975 
L 462.474323 122.750299 
" clip-path="url(#p1842c5eab0)" style="fill: none; stroke: #000000; stroke-width: 0.8; stroke-linecap: square"/>
   </g>
   <g id="line2d_58">
    <path d="M 455.081452 161.424769 
L 469.867194 161.424769 
" clip-path="url(#p1842c5eab0)" style="fill: none; stroke: #000000; stroke-width: 0.8; stroke-linecap: square"/>
   </g>
   <g id="line2d_59">
    <path d="M 455.081452 122.750299 
L 469.867194 122.750299 
" clip-path="url(#p1842c5eab0)" style="fill: none; stroke: #000000; stroke-width: 0.8; stroke-linecap: square"/>
   </g>
   <g id="line2d_60">
    <g clip-path="url(#p1842c5eab0)">
     <use xlink:href="#m93889ff370" x="462.474323" y="70.536908" style="fill: #a6a6a6; fill-opacity: 0.65; stroke: #a6a6a6; stroke-opacity: 0.65"/>
     <use xlink:href="#m93889ff370" x="462.474323" y="101.385082" style="fill: #a6a6a6; fill-opacity: 0.65; stroke: #a6a6a6; stroke-opacity: 0.65"/>
     <use xlink:href="#m93889ff370" x="462.474323" y="106.697823" style="fill: #a6a6a6; fill-opacity: 0.65; stroke: #a6a6a6; stroke-opacity: 0.65"/>
    </g>
   </g>
   <g id="patch_29">
    <path d="M 501.454915 153.684162 
L 531.026398 153.684162 
L 531.026398 106.812076 
L 501.454915 106.812076 
L 501.454915 153.684162 
z
" clip-path="url(#p1842c5eab0)" style="fill: #f28e2b; opacity: 0.82; stroke: #000000; stroke-width: 0.9; stroke-linejoin: miter"/>
   </g>
   <g id="line2d_61">
    <path d="M 516.240656 153.684162 
L 516.240656 198.928151 
" clip-path="url(#p1842c5eab0)" style="fill: none; stroke: #000000; stroke-width: 0.8; stroke-linecap: square"/>
   </g>
   <g id="line2d_62">
    <path d="M 516.240656 106.812076 
L 516.240656 79.391476 
" clip-path="url(#p1842c5eab0)" style="fill: none; stroke: #000000; stroke-width: 0.8; stroke-linecap: square"/>
   </g>
   <g id="line2d_63">
    <path d="M 508.847785 198.928151 
L 523.633527 198.928151 
" clip-path="url(#p1842c5eab0)" style="fill: none; stroke: #000000; stroke-width: 0.8; stroke-linecap: square"/>
   </g>
   <g id="line2d_64">
    <path d="M 508.847785 79.391476 
L 523.633527 79.391476 
" clip-path="url(#p1842c5eab0)" style="fill: none; stroke: #000000; stroke-width: 0.8; stroke-linecap: square"/>
   </g>
   <g id="line2d_65">
    <g clip-path="url(#p1842c5eab0)">
     <use xlink:href="#m93889ff370" x="516.240656" y="246.874211" style="fill: #a6a6a6; fill-opacity: 0.65; stroke: #a6a6a6; stroke-opacity: 0.65"/>
    </g>
   </g>
   <g id="patch_30">
    <path d="M 555.221248 140.502281 
L 584.792731 140.502281 
L 584.792731 92.95896 
L 555.221248 92.95896 
L 555.221248 140.502281 
z
" clip-path="url(#p1842c5eab0)" style="fill: #8e5a9e; opacity: 0.82; stroke: #000000; stroke-width: 0.9; stroke-linejoin: miter"/>
   </g>
   <g id="line2d_66">
    <path d="M 570.00699 140.502281 
L 570.00699 207.354273 
" clip-path="url(#p1842c5eab0)" style="fill: none; stroke: #000000; stroke-width: 0.8; stroke-linecap: square"/>
   </g>
   <g id="line2d_67">
    <path d="M 570.00699 92.95896 
L 570.00699 45.115728 
" clip-path="url(#p1842c5eab0)" style="fill: none; stroke: #000000; stroke-width: 0.8; stroke-linecap: square"/>
   </g>
   <g id="line2d_68">
    <path d="M 562.614119 207.354273 
L 577.39986 207.354273 
" clip-path="url(#p1842c5eab0)" style="fill: none; stroke: #000000; stroke-width: 0.8; stroke-linecap: square"/>
   </g>
   <g id="line2d_69">
    <path d="M 562.614119 45.115728 
L 577.39986 45.115728 
" clip-path="url(#p1842c5eab0)" style="fill: none; stroke: #000000; stroke-width: 0.8; stroke-linecap: square"/>
   </g>
   <g id="line2d_70"/>
   <g id="line2d_71">
    <path d="M 381.824823 98.52877 
L 596.890156 98.52877 
" clip-path="url(#p1842c5eab0)" style="fill: none; stroke-dasharray: 3.7,1.6; stroke-dashoffset: 0; stroke: #595959; stroke-opacity: 0.85"/>
   </g>
   <g id="line2d_72">
    <path d="M 393.922248 103.09887 
L 423.493731 103.09887 
" clip-path="url(#p1842c5eab0)" style="fill: none; stroke: #000000"/>
   </g>
   <g id="line2d_73">
    <path d="M 447.688581 137.731657 
L 477.260065 137.731657 
" clip-path="url(#p1842c5eab0)" style="fill: none; stroke: #000000"/>
   </g>
   <g id="line2d_74">
    <path d="M 501.454915 123.664319 
L 531.026398 123.664319 
" clip-path="url(#p1842c5eab0)" style="fill: none; stroke: #000000"/>
   </g>
   <g id="line2d_75">
    <path d="M 555.221248 124.064203 
L 584.792731 124.064203 
" clip-path="url(#p1842c5eab0)" style="fill: none; stroke: #000000"/>
   </g>
   <g id="patch_31">
    <path d="M 381.824823 256.871304 
L 381.824823 23.693384 
" style="fill: none; stroke: #000000; stroke-width: 0.9; stroke-linejoin: miter; stroke-linecap: square"/>
   </g>
   <g id="patch_32">
    <path d="M 381.824823 256.871304 
L 596.890156 256.871304 
" style="fill: none; stroke: #000000; stroke-width: 0.9; stroke-linejoin: miter; stroke-linecap: square"/>
   </g>
   <g id="PathCollection_1">
    <defs>
     <path id="C0_0_81176677ed" d="M 0 2.061553 
C 0.54673 2.061553 1.071141 1.844335 1.457738 1.457738 
C 1.844335 1.071141 2.061553 0.54673 2.061553 -0 
C 2.061553 -0.54673 1.844335 -1.071141 1.457738 -1.457738 
C 1.071141 -1.844335 0.54673 -2.061553 0 -2.061553 
C -0.54673 -2.061553 -1.071141 -1.844335 -1.457738 -1.457738 
C -1.844335 -1.071141 -2.061553 -0.54673 -2.061553 0 
C -2.061553 0.54673 -1.844335 1.071141 -1.457738 1.457738 
C -1.071141 1.844335 -0.54673 2.061553 0 2.061553 
z
"/>
    </defs>
    <g clip-path="url(#p1842c5eab0)">
     <use xlink:href="#C0_0_81176677ed" x="410.526886" y="133.804228" style="fill: #4c78a8; fill-opacity: 0.6"/>
    </g>
    <g clip-path="url(#p1842c5eab0)">
     <use xlink:href="#C0_0_81176677ed" x="410.068977" y="71.679433" style="fill: #4c78a8; fill-opacity: 0.6"/>
    </g>
    <g clip-path="url(#p1842c5eab0)">
     <use xlink:href="#C0_0_81176677ed" x="406.436939" y="93.95867" style="fill: #4c78a8; fill-opacity: 0.6"/>
    </g>
    <g clip-path="url(#p1842c5eab0)">
     <use xlink:href="#C0_0_81176677ed" x="408.36954" y="33.690478" style="fill: #4c78a8; fill-opacity: 0.6"/>
    </g>
    <g clip-path="url(#p1842c5eab0)">
     <use xlink:href="#C0_0_81176677ed" x="412.495013" y="43.116309" style="fill: #4c78a8; fill-opacity: 0.6"/>
    </g>
    <g clip-path="url(#p1842c5eab0)">
     <use xlink:href="#C0_0_81176677ed" x="409.856603" y="114.80975" style="fill: #4c78a8; fill-opacity: 0.6"/>
    </g>
    <g clip-path="url(#p1842c5eab0)">
     <use xlink:href="#C0_0_81176677ed" x="409.48487" y="110.810913" style="fill: #4c78a8; fill-opacity: 0.6"/>
    </g>
    <g clip-path="url(#p1842c5eab0)">
     <use xlink:href="#C0_0_81176677ed" x="406.729153" y="111.382175" style="fill: #4c78a8; fill-opacity: 0.6"/>
    </g>
    <g clip-path="url(#p1842c5eab0)">
     <use xlink:href="#C0_0_81176677ed" x="407.549071" y="105.098288" style="fill: #4c78a8; fill-opacity: 0.6"/>
    </g>
    <g clip-path="url(#p1842c5eab0)">
     <use xlink:href="#C0_0_81176677ed" x="410.987781" y="103.09887" style="fill: #4c78a8; fill-opacity: 0.6"/>
    </g>
    <g clip-path="url(#p1842c5eab0)">
     <use xlink:href="#C0_0_81176677ed" x="407.457379" y="99.956926" style="fill: #4c78a8; fill-opacity: 0.6"/>
    </g>
   </g>
   <g id="PathCollection_2">
    <defs>
     <path id="C1_0_f66e563328" d="M 0 2.061553 
C 0.54673 2.061553 1.071141 1.844335 1.457738 1.457738 
C 1.844335 1.071141 2.061553 0.54673 2.061553 -0 
C 2.061553 -0.54673 1.844335 -1.071141 1.457738 -1.457738 
C 1.071141 -1.844335 0.54673 -2.061553 0 -2.061553 
C -0.54673 -2.061553 -1.071141 -1.844335 -1.457738 -1.457738 
C -1.844335 -1.071141 -2.061553 -0.54673 -2.061553 0 
C -2.061553 0.54673 -1.844335 1.071141 -1.457738 1.457738 
C -1.071141 1.844335 -0.54673 2.061553 0 2.061553 
z
"/>
    </defs>
    <g clip-path="url(#p1842c5eab0)">
     <use xlink:href="#C1_0_f66e563328" x="465.388679" y="70.536908" style="fill: #f2b45a; fill-opacity: 0.6"/>
    </g>
    <g clip-path="url(#p1842c5eab0)">
     <use xlink:href="#C1_0_f66e563328" x="463.018607" y="146.514818" style="fill: #f2b45a; fill-opacity: 0.6"/>
    </g>
    <g clip-path="url(#p1842c5eab0)">
     <use xlink:href="#C1_0_f66e563328" x="465.618128" y="101.385082" style="fill: #f2b45a; fill-opacity: 0.6"/>
    </g>
    <g clip-path="url(#p1842c5eab0)">
     <use xlink:href="#C1_0_f66e563328" x="462.794298" y="136.232093" style="fill: #f2b45a; fill-opacity: 0.6"/>
    </g>
    <g clip-path="url(#p1842c5eab0)">
     <use xlink:href="#C1_0_f66e563328" x="465.513168" y="136.517725" style="fill: #f2b45a; fill-opacity: 0.6"/>
    </g>
    <g clip-path="url(#p1842c5eab0)">
     <use xlink:href="#C1_0_f66e563328" x="458.649886" y="147.942974" style="fill: #f2b45a; fill-opacity: 0.6"/>
    </g>
    <g clip-path="url(#p1842c5eab0)">
     <use xlink:href="#C1_0_f66e563328" x="465.169097" y="135.3752" style="fill: #f2b45a; fill-opacity: 0.6"/>
    </g>
    <g clip-path="url(#p1842c5eab0)">
     <use xlink:href="#C1_0_f66e563328" x="462.354605" y="141.430582" style="fill: #f2b45a; fill-opacity: 0.6"/>
    </g>
    <g clip-path="url(#p1842c5eab0)">
     <use xlink:href="#C1_0_f66e563328" x="466.281141" y="141.287766" style="fill: #f2b45a; fill-opacity: 0.6"/>
    </g>
    <g clip-path="url(#p1842c5eab0)">
     <use xlink:href="#C1_0_f66e563328" x="459.556734" y="122.750299" style="fill: #f2b45a; fill-opacity: 0.6"/>
    </g>
    <g clip-path="url(#p1842c5eab0)">
     <use xlink:href="#C1_0_f66e563328" x="460.999825" y="161.424769" style="fill: #f2b45a; fill-opacity: 0.6"/>
    </g>
    <g clip-path="url(#p1842c5eab0)">
     <use xlink:href="#C1_0_f66e563328" x="457.581937" y="159.96805" style="fill: #f2b45a; fill-opacity: 0.6"/>
    </g>
    <g clip-path="url(#p1842c5eab0)">
     <use xlink:href="#C1_0_f66e563328" x="464.838526" y="146.571944" style="fill: #f2b45a; fill-opacity: 0.6"/>
    </g>
    <g clip-path="url(#p1842c5eab0)">
     <use xlink:href="#C1_0_f66e563328" x="458.879789" y="138.94559" style="fill: #f2b45a; fill-opacity: 0.6"/>
    </g>
    <g clip-path="url(#p1842c5eab0)">
     <use xlink:href="#C1_0_f66e563328" x="459.092224" y="106.697823" style="fill: #f2b45a; fill-opacity: 0.6"/>
    </g>
    <g clip-path="url(#p1842c5eab0)">
     <use xlink:href="#C1_0_f66e563328" x="462.810287" y="135.860773" style="fill: #f2b45a; fill-opacity: 0.6"/>
    </g>
   </g>
   <g id="PathCollection_3">
    <defs>
     <path id="C2_0_1a4c20f7e7" d="M 0 2.061553 
C 0.54673 2.061553 1.071141 1.844335 1.457738 1.457738 
C 1.844335 1.071141 2.061553 0.54673 2.061553 -0 
C 2.061553 -0.54673 1.844335 -1.071141 1.457738 -1.457738 
C 1.071141 -1.844335 0.54673 -2.061553 0 -2.061553 
C -0.54673 -2.061553 -1.071141 -1.844335 -1.457738 -1.457738 
C -1.844335 -1.071141 -2.061553 -0.54673 -2.061553 0 
C -2.061553 0.54673 -1.844335 1.071141 -1.457738 1.457738 
C -1.071141 1.844335 -0.54673 2.061553 0 2.061553 
z
"/>
    </defs>
    <g clip-path="url(#p1842c5eab0)">
     <use xlink:href="#C2_0_1a4c20f7e7" x="517.270585" y="128.52005" style="fill: #f28e2b; fill-opacity: 0.6"/>
    </g>
    <g clip-path="url(#p1842c5eab0)">
     <use xlink:href="#C2_0_1a4c20f7e7" x="514.880381" y="142.23035" style="fill: #f28e2b; fill-opacity: 0.6"/>
    </g>
    <g clip-path="url(#p1842c5eab0)">
     <use xlink:href="#C2_0_1a4c20f7e7" x="516.545171" y="143.087243" style="fill: #f28e2b; fill-opacity: 0.6"/>
    </g>
    <g clip-path="url(#p1842c5eab0)">
     <use xlink:href="#C2_0_1a4c20f7e7" x="515.018138" y="133.947044" style="fill: #f28e2b; fill-opacity: 0.6"/>
    </g>
    <g clip-path="url(#p1842c5eab0)">
     <use xlink:href="#C2_0_1a4c20f7e7" x="521.323124" y="134.404054" style="fill: #f28e2b; fill-opacity: 0.6"/>
    </g>
    <g clip-path="url(#p1842c5eab0)">
     <use xlink:href="#C2_0_1a4c20f7e7" x="514.045343" y="153.884104" style="fill: #f28e2b; fill-opacity: 0.6"/>
    </g>
    <g clip-path="url(#p1842c5eab0)">
     <use xlink:href="#C2_0_1a4c20f7e7" x="514.896001" y="134.889627" style="fill: #f28e2b; fill-opacity: 0.6"/>
    </g>
    <g clip-path="url(#p1842c5eab0)">
     <use xlink:href="#C2_0_1a4c20f7e7" x="519.050415" y="153.684162" style="fill: #f28e2b; fill-opacity: 0.6"/>
    </g>
    <g clip-path="url(#p1842c5eab0)">
     <use xlink:href="#C2_0_1a4c20f7e7" x="517.506866" y="167.023141" style="fill: #f28e2b; fill-opacity: 0.6"/>
    </g>
    <g clip-path="url(#p1842c5eab0)">
     <use xlink:href="#C2_0_1a4c20f7e7" x="512.853926" y="155.740707" style="fill: #f28e2b; fill-opacity: 0.6"/>
    </g>
    <g clip-path="url(#p1842c5eab0)">
     <use xlink:href="#C2_0_1a4c20f7e7" x="514.872263" y="145.029536" style="fill: #f28e2b; fill-opacity: 0.6"/>
    </g>
    <g clip-path="url(#p1842c5eab0)">
     <use xlink:href="#C2_0_1a4c20f7e7" x="513.514988" y="157.483058" style="fill: #f28e2b; fill-opacity: 0.6"/>
    </g>
    <g clip-path="url(#p1842c5eab0)">
     <use xlink:href="#C2_0_1a4c20f7e7" x="516.438404" y="123.664319" style="fill: #f28e2b; fill-opacity: 0.6"/>
    </g>
    <g clip-path="url(#p1842c5eab0)">
     <use xlink:href="#C2_0_1a4c20f7e7" x="513.325957" y="148.514237" style="fill: #f28e2b; fill-opacity: 0.6"/>
    </g>
    <g clip-path="url(#p1842c5eab0)">
     <use xlink:href="#C2_0_1a4c20f7e7" x="516.422839" y="156.797543" style="fill: #f28e2b; fill-opacity: 0.6"/>
    </g>
    <g clip-path="url(#p1842c5eab0)">
     <use xlink:href="#C2_0_1a4c20f7e7" x="519.103066" y="173.649786" style="fill: #f28e2b; fill-opacity: 0.6"/>
    </g>
    <g clip-path="url(#p1842c5eab0)">
     <use xlink:href="#C2_0_1a4c20f7e7" x="515.428535" y="175.077942" style="fill: #f28e2b; fill-opacity: 0.6"/>
    </g>
    <g clip-path="url(#p1842c5eab0)">
     <use xlink:href="#C2_0_1a4c20f7e7" x="518.393808" y="116.809169" style="fill: #f28e2b; fill-opacity: 0.6"/>
    </g>
    <g clip-path="url(#p1842c5eab0)">
     <use xlink:href="#C2_0_1a4c20f7e7" x="517.37557" y="118.522957" style="fill: #f28e2b; fill-opacity: 0.6"/>
    </g>
    <g clip-path="url(#p1842c5eab0)">
     <use xlink:href="#C2_0_1a4c20f7e7" x="516.956554" y="114.80975" style="fill: #f28e2b; fill-opacity: 0.6"/>
    </g>
    <g clip-path="url(#p1842c5eab0)">
     <use xlink:href="#C2_0_1a4c20f7e7" x="517.297547" y="108.811494" style="fill: #f28e2b; fill-opacity: 0.6"/>
    </g>
    <g clip-path="url(#p1842c5eab0)">
     <use xlink:href="#C2_0_1a4c20f7e7" x="516.449779" y="79.391476" style="fill: #f28e2b; fill-opacity: 0.6"/>
    </g>
    <g clip-path="url(#p1842c5eab0)">
     <use xlink:href="#C2_0_1a4c20f7e7" x="517.108785" y="93.673039" style="fill: #f28e2b; fill-opacity: 0.6"/>
    </g>
    <g clip-path="url(#p1842c5eab0)">
     <use xlink:href="#C2_0_1a4c20f7e7" x="518.440443" y="99.385663" style="fill: #f28e2b; fill-opacity: 0.6"/>
    </g>
    <g clip-path="url(#p1842c5eab0)">
     <use xlink:href="#C2_0_1a4c20f7e7" x="515.858438" y="99.671295" style="fill: #f28e2b; fill-opacity: 0.6"/>
    </g>
    <g clip-path="url(#p1842c5eab0)">
     <use xlink:href="#C2_0_1a4c20f7e7" x="515.464467" y="106.812076" style="fill: #f28e2b; fill-opacity: 0.6"/>
    </g>
    <g clip-path="url(#p1842c5eab0)">
     <use xlink:href="#C2_0_1a4c20f7e7" x="514.832349" y="83.390314" style="fill: #f28e2b; fill-opacity: 0.6"/>
    </g>
    <g clip-path="url(#p1842c5eab0)">
     <use xlink:href="#C2_0_1a4c20f7e7" x="514.37472" y="93.387407" style="fill: #f28e2b; fill-opacity: 0.6"/>
    </g>
    <g clip-path="url(#p1842c5eab0)">
     <use xlink:href="#C2_0_1a4c20f7e7" x="513.533237" y="110.810913" style="fill: #f28e2b; fill-opacity: 0.6"/>
    </g>
    <g clip-path="url(#p1842c5eab0)">
     <use xlink:href="#C2_0_1a4c20f7e7" x="513.45611" y="111.382175" style="fill: #f28e2b; fill-opacity: 0.6"/>
    </g>
    <g clip-path="url(#p1842c5eab0)">
     <use xlink:href="#C2_0_1a4c20f7e7" x="515.917018" y="111.382175" style="fill: #f28e2b; fill-opacity: 0.6"/>
    </g>
    <g clip-path="url(#p1842c5eab0)">
     <use xlink:href="#C2_0_1a4c20f7e7" x="518.042884" y="110.239651" style="fill: #f28e2b; fill-opacity: 0.6"/>
    </g>
    <g clip-path="url(#p1842c5eab0)">
     <use xlink:href="#C2_0_1a4c20f7e7" x="518.575365" y="101.385082" style="fill: #f28e2b; fill-opacity: 0.6"/>
    </g>
    <g clip-path="url(#p1842c5eab0)">
     <use xlink:href="#C2_0_1a4c20f7e7" x="517.302904" y="138.517143" style="fill: #f28e2b; fill-opacity: 0.6"/>
    </g>
    <g clip-path="url(#p1842c5eab0)">
     <use xlink:href="#C2_0_1a4c20f7e7" x="516.223814" y="198.928151" style="fill: #f28e2b; fill-opacity: 0.6"/>
    </g>
    <g clip-path="url(#p1842c5eab0)">
     <use xlink:href="#C2_0_1a4c20f7e7" x="518.973675" y="246.874211" style="fill: #f28e2b; fill-opacity: 0.6"/>
    </g>
    <g clip-path="url(#p1842c5eab0)">
     <use xlink:href="#C2_0_1a4c20f7e7" x="515.950077" y="171.650367" style="fill: #f28e2b; fill-opacity: 0.6"/>
    </g>
    <g clip-path="url(#p1842c5eab0)">
     <use xlink:href="#C2_0_1a4c20f7e7" x="514.653533" y="108.240232" style="fill: #f28e2b; fill-opacity: 0.6"/>
    </g>
    <g clip-path="url(#p1842c5eab0)">
     <use xlink:href="#C2_0_1a4c20f7e7" x="513.633017" y="91.67362" style="fill: #f28e2b; fill-opacity: 0.6"/>
    </g>
    <g clip-path="url(#p1842c5eab0)">
     <use xlink:href="#C2_0_1a4c20f7e7" x="515.137715" y="91.387989" style="fill: #f28e2b; fill-opacity: 0.6"/>
    </g>
    <g clip-path="url(#p1842c5eab0)">
     <use xlink:href="#C2_0_1a4c20f7e7" x="510.906766" y="100.242557" style="fill: #f28e2b; fill-opacity: 0.6"/>
    </g>
   </g>
   <g id="PathCollection_4">
    <defs>
     <path id="C3_0_699f3cb369" d="M 0 2.061553 
C 0.54673 2.061553 1.071141 1.844335 1.457738 1.457738 
C 1.844335 1.071141 2.061553 0.54673 2.061553 -0 
C 2.061553 -0.54673 1.844335 -1.071141 1.457738 -1.457738 
C 1.071141 -1.844335 0.54673 -2.061553 0 -2.061553 
C -0.54673 -2.061553 -1.071141 -1.844335 -1.457738 -1.457738 
C -1.844335 -1.071141 -2.061553 -0.54673 -2.061553 0 
C -2.061553 0.54673 -1.844335 1.071141 -1.457738 1.457738 
C -1.071141 1.844335 -0.54673 2.061553 0 2.061553 
z
"/>
    </defs>
    <g clip-path="url(#p1842c5eab0)">
     <use xlink:href="#C3_0_699f3cb369" x="568.775569" y="96.24372" style="fill: #8e5a9e; fill-opacity: 0.6"/>
    </g>
    <g clip-path="url(#p1842c5eab0)">
     <use xlink:href="#C3_0_699f3cb369" x="566.934121" y="76.249533" style="fill: #8e5a9e; fill-opacity: 0.6"/>
    </g>
    <g clip-path="url(#p1842c5eab0)">
     <use xlink:href="#C3_0_699f3cb369" x="574.321126" y="79.677108" style="fill: #8e5a9e; fill-opacity: 0.6"/>
    </g>
    <g clip-path="url(#p1842c5eab0)">
     <use xlink:href="#C3_0_699f3cb369" x="569.883123" y="81.105264" style="fill: #8e5a9e; fill-opacity: 0.6"/>
    </g>
    <g clip-path="url(#p1842c5eab0)">
     <use xlink:href="#C3_0_699f3cb369" x="571.449725" y="45.115728" style="fill: #8e5a9e; fill-opacity: 0.6"/>
    </g>
    <g clip-path="url(#p1842c5eab0)">
     <use xlink:href="#C3_0_699f3cb369" x="568.61414" y="134.518306" style="fill: #8e5a9e; fill-opacity: 0.6"/>
    </g>
    <g clip-path="url(#p1842c5eab0)">
     <use xlink:href="#C3_0_699f3cb369" x="569.914481" y="98.814401" style="fill: #8e5a9e; fill-opacity: 0.6"/>
    </g>
    <g clip-path="url(#p1842c5eab0)">
     <use xlink:href="#C3_0_699f3cb369" x="571.290549" y="159.368224" style="fill: #8e5a9e; fill-opacity: 0.6"/>
    </g>
    <g clip-path="url(#p1842c5eab0)">
     <use xlink:href="#C3_0_699f3cb369" x="563.945915" y="170.793474" style="fill: #8e5a9e; fill-opacity: 0.6"/>
    </g>
    <g clip-path="url(#p1842c5eab0)">
     <use xlink:href="#C3_0_699f3cb369" x="567.841379" y="207.354273" style="fill: #8e5a9e; fill-opacity: 0.6"/>
    </g>
    <g clip-path="url(#p1842c5eab0)">
     <use xlink:href="#C3_0_699f3cb369" x="565.721224" y="203.355435" style="fill: #8e5a9e; fill-opacity: 0.6"/>
    </g>
    <g clip-path="url(#p1842c5eab0)">
     <use xlink:href="#C3_0_699f3cb369" x="568.543149" y="125.035349" style="fill: #8e5a9e; fill-opacity: 0.6"/>
    </g>
    <g clip-path="url(#p1842c5eab0)">
     <use xlink:href="#C3_0_699f3cb369" x="571.299209" y="140.230931" style="fill: #8e5a9e; fill-opacity: 0.6"/>
    </g>
    <g clip-path="url(#p1842c5eab0)">
     <use xlink:href="#C3_0_699f3cb369" x="572.025352" y="140.516562" style="fill: #8e5a9e; fill-opacity: 0.6"/>
    </g>
    <g clip-path="url(#p1842c5eab0)">
     <use xlink:href="#C3_0_699f3cb369" x="570.231253" y="133.490034" style="fill: #8e5a9e; fill-opacity: 0.6"/>
    </g>
    <g clip-path="url(#p1842c5eab0)">
     <use xlink:href="#C3_0_699f3cb369" x="570.635409" y="137.231803" style="fill: #8e5a9e; fill-opacity: 0.6"/>
    </g>
    <g clip-path="url(#p1842c5eab0)">
     <use xlink:href="#C3_0_699f3cb369" x="573.483994" y="140.487999" style="fill: #8e5a9e; fill-opacity: 0.6"/>
    </g>
    <g clip-path="url(#p1842c5eab0)">
     <use xlink:href="#C3_0_699f3cb369" x="568.995714" y="124.064203" style="fill: #8e5a9e; fill-opacity: 0.6"/>
    </g>
    <g clip-path="url(#p1842c5eab0)">
     <use xlink:href="#C3_0_699f3cb369" x="572.637447" y="111.667807" style="fill: #8e5a9e; fill-opacity: 0.6"/>
    </g>
    <g clip-path="url(#p1842c5eab0)">
     <use xlink:href="#C3_0_699f3cb369" x="569.164891" y="141.630524" style="fill: #8e5a9e; fill-opacity: 0.6"/>
    </g>
    <g clip-path="url(#p1842c5eab0)">
     <use xlink:href="#C3_0_699f3cb369" x="566.004464" y="153.627036" style="fill: #8e5a9e; fill-opacity: 0.6"/>
    </g>
    <g clip-path="url(#p1842c5eab0)">
     <use xlink:href="#C3_0_699f3cb369" x="572.227544" y="100.528188" style="fill: #8e5a9e; fill-opacity: 0.6"/>
    </g>
    <g clip-path="url(#p1842c5eab0)">
     <use xlink:href="#C3_0_699f3cb369" x="568.677901" y="97.100613" style="fill: #8e5a9e; fill-opacity: 0.6"/>
    </g>
    <g clip-path="url(#p1842c5eab0)">
     <use xlink:href="#C3_0_699f3cb369" x="566.399759" y="89.674201" style="fill: #8e5a9e; fill-opacity: 0.6"/>
    </g>
    <g clip-path="url(#p1842c5eab0)">
     <use xlink:href="#C3_0_699f3cb369" x="568.485335" y="98.243138" style="fill: #8e5a9e; fill-opacity: 0.6"/>
    </g>
    <g clip-path="url(#p1842c5eab0)">
     <use xlink:href="#C3_0_699f3cb369" x="570.733253" y="87.674782" style="fill: #8e5a9e; fill-opacity: 0.6"/>
    </g>
    <g clip-path="url(#p1842c5eab0)">
     <use xlink:href="#C3_0_699f3cb369" x="567.890998" y="86.246626" style="fill: #8e5a9e; fill-opacity: 0.6"/>
    </g>
   </g>
   <g id="text_38">
    <!-- B -->
    <g transform="translate(356.016983 16.698047) scale(0.125 -0.125)">
     <defs>
      <path id="DejaVuSans-Bold-42" d="M 2456 2859 
Q 2741 2859 2887 2984 
Q 3034 3109 3034 3353 
Q 3034 3594 2887 3720 
Q 2741 3847 2456 3847 
L 1791 3847 
L 1791 2859 
L 2456 2859 
z
M 2497 819 
Q 2859 819 3042 972 
Q 3225 1125 3225 1434 
Q 3225 1738 3044 1889 
Q 2863 2041 2497 2041 
L 1791 2041 
L 1791 819 
L 2497 819 
z
M 3616 2497 
Q 4003 2384 4215 2081 
Q 4428 1778 4428 1338 
Q 4428 663 3972 331 
Q 3516 0 2584 0 
L 588 0 
L 588 4666 
L 2394 4666 
Q 3366 4666 3802 4372 
Q 4238 4078 4238 3431 
Q 4238 3091 4078 2852 
Q 3919 2613 3616 2497 
z
" transform="scale(0.015625)"/>
     </defs>
     <use xlink:href="#DejaVuSans-Bold-42"/>
    </g>
   </g>
  </g>
 </g>
 <defs>
  <clipPath id="paaa5f86cb1">
   <rect x="51.150156" y="23.693384" width="275.844667" height="233.17792"/>
  </clipPath>
  <clipPath id="p1842c5eab0">
   <rect x="381.824823" y="23.693384" width="215.065333" height="233.17792"/>
  </clipPath>
 </defs>
</svg>
