<?xml version="1.0" encoding="utf-8" standalone="no"?>
<!DOCTYPE svg PUBLIC "-//W3C//DTD SVG 1.1//EN"
  "http://www.w3.org/Graphics/SVG/1.1/DTD/svg11.dtd">
<svg xmlns:xlink="http://www.w3.org/1999/xlink" width="624.540293pt" height="357.237648pt" viewBox="0 0 624.540293 357.237648" xmlns="http://www.w3.org/2000/svg" version="1.1">
 <metadata>
  <rdf:RDF xmlns:dc="http://purl.org/dc/elements/1.1/" xmlns:cc="http://creativecommons.org/ns#" xmlns:rdf="http://www.w3.org/1999/02/22-rdf-syntax-ns#">
   <cc:Work>
    <dc:type rdf:resource="http://purl.org/dc/dcmitype/StillImage"/>
    <dc:date>2026-06-09T10:26:21.408304</dc:date>
    <dc:format>image/svg+xml</dc:format>
    <dc:creator>
     <cc:Agent>
      <dc:title>Matplotlib v3.10.8, https://matplotlib.org/</dc:title>
     </cc:Agent>
    </dc:creator>
   </cc:Work>
  </rdf:RDF>
 </metadata>
 <defs>
  <style type="text/css">*{stroke-linejoin: round; stroke-linecap: butt}</style>
 </defs>
 <g id="figure_1">
  <g id="patch_1">
   <path d="M 0 357.237648 
L 624.540293 357.237648 
L 624.540293 0 
L 0 0 
z
" style="fill: #ffffff"/>
  </g>
  <g id="axes_1">
   <g id="patch_2">
    <path d="M 71.753047 317.261867 
L 512.042647 317.261867 
L 512.042647 7.2 
L 71.753047 7.2 
z
" style="fill: #ffffff"/>
   </g>
   <g id="patch_3">
    <path d="M 92.074105 317.261867 
L 193.679398 317.261867 
L 193.679398 7.2 
L 92.074105 7.2 
z
" clip-path="url(#p71bf005644)" style="fill: #ebebeb; opacity: 0.75; stroke: #ebebeb; stroke-linejoin: miter"/>
   </g>
   <g id="patch_4">
    <path d="M 193.679398 317.261867 
L 295.28469 317.261867 
L 295.28469 7.2 
L 193.679398 7.2 
z
" clip-path="url(#p71bf005644)" style="fill: #f7f7f7; opacity: 0.75; stroke: #f7f7f7; stroke-linejoin: miter"/>
   </g>
   <g id="patch_5">
    <path d="M 295.28469 317.261867 
L 512.042647 317.261867 
L 512.042647 7.2 
L 295.28469 7.2 
z
" clip-path="url(#p71bf005644)" style="fill: #ebebeb; opacity: 0.45; stroke: #ebebeb; stroke-linejoin: miter"/>
   </g>
   <g id="patch_6">
    <path d="M 92.074105 167.97282 
L 193.679398 167.97282 
L 193.679398 91.414334 
L 92.074105 91.414334 
z
" clip-path="url(#p71bf005644)" style="fill: #d6d6d6; opacity: 0.65"/>
   </g>
   <g id="matplotlib.axis_1">
    <g id="xtick_1">
     <g id="line2d_1">
      <defs>
       <path id="m2f507188e8" d="M 0 0 
L 0 3.5 
" style="stroke: #000000; stroke-width: 0.8"/>
      </defs>
      <g>
       <use xlink:href="#m2f507188e8" x="92.074105" y="317.261867" style="stroke: #000000; stroke-width: 0.8"/>
      </g>
     </g>
     <g id="text_1">
      <!-- 0 -->
      <g transform="translate(88.733793 332.240226) scale(0.105 -0.105)">
       <defs>
        <path id="DejaVuSans-30" d="M 2034 4250 
Q 1547 4250 1301 3770 
Q 1056 3291 1056 2328 
Q 1056 1369 1301 889 
Q 1547 409 2034 409 
Q 2525 409 2770 889 
Q 3016 1369 3016 2328 
Q 3016 3291 2770 3770 
Q 2525 4250 2034 4250 
z
M 2034 4750 
Q 2819 4750 3233 4129 
Q 3647 3509 3647 2328 
Q 3647 1150 3233 529 
Q 2819 -91 2034 -91 
Q 1250 -91 836 529 
Q 422 1150 422 2328 
Q 422 3509 836 4129 
Q 1250 4750 2034 4750 
z
" transform="scale(0.015625)"/>
       </defs>
       <use xlink:href="#DejaVuSans-30"/>
      </g>
     </g>
    </g>
    <g id="xtick_2">
     <g id="line2d_2">
      <g>
       <use xlink:href="#m2f507188e8" x="159.810967" y="317.261867" style="stroke: #000000; stroke-width: 0.8"/>
      </g>
     </g>
     <g id="text_2">
      <!-- 1 -->
      <g transform="translate(156.470654 332.240226) scale(0.105 -0.105)">
       <defs>
        <path id="DejaVuSans-31" d="M 794 531 
L 1825 531 
L 1825 4091 
L 703 3866 
L 703 4441 
L 1819 4666 
L 2450 4666 
L 2450 531 
L 3481 531 
L 3481 0 
L 794 0 
L 794 531 
z
" transform="scale(0.015625)"/>
       </defs>
       <use xlink:href="#DejaVuSans-31"/>
      </g>
     </g>
    </g>
    <g id="xtick_3">
     <g id="line2d_3">
      <g>
       <use xlink:href="#m2f507188e8" x="227.547828" y="317.261867" style="stroke: #000000; stroke-width: 0.8"/>
      </g>
     </g>
     <g id="text_3">
      <!-- 2 -->
      <g transform="translate(224.207516 332.240226) scale(0.105 -0.105)">
       <defs>
        <path id="DejaVuSans-32" d="M 1228 531 
L 3431 531 
L 3431 0 
L 469 0 
L 469 531 
Q 828 903 1448 1529 
Q 2069 2156 2228 2338 
Q 2531 2678 2651 2914 
Q 2772 3150 2772 3378 
Q 2772 3750 2511 3984 
Q 2250 4219 1831 4219 
Q 1534 4219 1204 4116 
Q 875 4013 500 3803 
L 500 4441 
Q 881 4594 1212 4672 
Q 1544 4750 1819 4750 
Q 2544 4750 2975 4387 
Q 3406 4025 3406 3419 
Q 3406 3131 3298 2873 
Q 3191 2616 2906 2266 
Q 2828 2175 2409 1742 
Q 1991 1309 1228 531 
z
" transform="scale(0.015625)"/>
       </defs>
       <use xlink:href="#DejaVuSans-32"/>
      </g>
     </g>
    </g>
    <g id="xtick_4">
     <g id="line2d_4">
      <g>
       <use xlink:href="#m2f507188e8" x="295.28469" y="317.261867" style="stroke: #000000; stroke-width: 0.8"/>
      </g>
     </g>
     <g id="text_4">
      <!-- 3 -->
      <g transform="translate(291.944377 332.240226) scale(0.105 -0.105)">
       <defs>
        <path id="DejaVuSans-33" d="M 2597 2516 
Q 3050 2419 3304 2112 
Q 3559 1806 3559 1356 
Q 3559 666 3084 287 
Q 2609 -91 1734 -91 
Q 1441 -91 1130 -33 
Q 819 25 488 141 
L 488 750 
Q 750 597 1062 519 
Q 1375 441 1716 441 
Q 2309 441 2620 675 
Q 2931 909 2931 1356 
Q 2931 1769 2642 2001 
Q 2353 2234 1838 2234 
L 1294 2234 
L 1294 2753 
L 1863 2753 
Q 2328 2753 2575 2939 
Q 2822 3125 2822 3475 
Q 2822 3834 2567 4026 
Q 2313 4219 1838 4219 
Q 1578 4219 1281 4162 
Q 984 4106 628 3988 
L 628 4550 
Q 988 4650 1302 4700 
Q 1616 4750 1894 4750 
Q 2613 4750 3031 4423 
Q 3450 4097 3450 3541 
Q 3450 3153 3228 2886 
Q 3006 2619 2597 2516 
z
" transform="scale(0.015625)"/>
       </defs>
       <use xlink:href="#DejaVuSans-33"/>
      </g>
     </g>
    </g>
    <g id="xtick_5">
     <g id="line2d_5">
      <g>
       <use xlink:href="#m2f507188e8" x="363.021551" y="317.261867" style="stroke: #000000; stroke-width: 0.8"/>
      </g>
     </g>
     <g id="text_5">
      <!-- 4 -->
      <g transform="translate(359.681239 332.240226) scale(0.105 -0.105)">
       <defs>
        <path id="DejaVuSans-34" d="M 2419 4116 
L 825 1625 
L 2419 1625 
L 2419 4116 
z
M 2253 4666 
L 3047 4666 
L 3047 1625 
L 3713 1625 
L 3713 1100 
L 3047 1100 
L 3047 0 
L 2419 0 
L 2419 1100 
L 313 1100 
L 313 1709 
L 2253 4666 
z
" transform="scale(0.015625)"/>
       </defs>
       <use xlink:href="#DejaVuSans-34"/>
      </g>
     </g>
    </g>
    <g id="xtick_6">
     <g id="line2d_6">
      <g>
       <use xlink:href="#m2f507188e8" x="430.758413" y="317.261867" style="stroke: #000000; stroke-width: 0.8"/>
      </g>
     </g>
     <g id="text_6">
      <!-- 5 -->
      <g transform="translate(427.418101 332.240226) scale(0.105 -0.105)">
       <defs>
        <path id="DejaVuSans-35" d="M 691 4666 
L 3169 4666 
L 3169 4134 
L 1269 4134 
L 1269 2991 
Q 1406 3038 1543 3061 
Q 1681 3084 1819 3084 
Q 2600 3084 3056 2656 
Q 3513 2228 3513 1497 
Q 3513 744 3044 326 
Q 2575 -91 1722 -91 
Q 1428 -91 1123 -41 
Q 819 9 494 109 
L 494 744 
Q 775 591 1075 516 
Q 1375 441 1709 441 
Q 2250 441 2565 725 
Q 2881 1009 2881 1497 
Q 2881 1984 2565 2268 
Q 2250 2553 1709 2553 
Q 1456 2553 1204 2497 
Q 953 2441 691 2322 
L 691 4666 
z
" transform="scale(0.015625)"/>
       </defs>
       <use xlink:href="#DejaVuSans-35"/>
      </g>
     </g>
    </g>
    <g id="xtick_7">
     <g id="line2d_7">
      <g>
       <use xlink:href="#m2f507188e8" x="498.495275" y="317.261867" style="stroke: #000000; stroke-width: 0.8"/>
      </g>
     </g>
     <g id="text_7">
      <!-- 6 -->
      <g transform="translate(495.154962 332.240226) scale(0.105 -0.105)">
       <defs>
        <path id="DejaVuSans-36" d="M 2113 2584 
Q 1688 2584 1439 2293 
Q 1191 2003 1191 1497 
Q 1191 994 1439 701 
Q 1688 409 2113 409 
Q 2538 409 2786 701 
Q 3034 994 3034 1497 
Q 3034 2003 2786 2293 
Q 2538 2584 2113 2584 
z
M 3366 4563 
L 3366 3988 
Q 3128 4100 2886 4159 
Q 2644 4219 2406 4219 
Q 1781 4219 1451 3797 
Q 1122 3375 1075 2522 
Q 1259 2794 1537 2939 
Q 1816 3084 2150 3084 
Q 2853 3084 3261 2657 
Q 3669 2231 3669 1497 
Q 3669 778 3244 343 
Q 2819 -91 2113 -91 
Q 1303 -91 875 529 
Q 447 1150 447 2328 
Q 447 3434 972 4092 
Q 1497 4750 2381 4750 
Q 2619 4750 2861 4703 
Q 3103 4656 3366 4563 
z
" transform="scale(0.015625)"/>
       </defs>
       <use xlink:href="#DejaVuSans-36"/>
      </g>
     </g>
    </g>
    <g id="text_8">
     <!-- Experimental logP -->
     <g transform="translate(237.214409 347.542023) scale(0.12 -0.12)">
      <defs>
       <path id="DejaVuSans-45" d="M 628 4666 
L 3578 4666 
L 3578 4134 
L 1259 4134 
L 1259 2753 
L 3481 2753 
L 3481 2222 
L 1259 2222 
L 1259 531 
L 3634 531 
L 3634 0 
L 628 0 
L 628 4666 
z
" transform="scale(0.015625)"/>
       <path id="DejaVuSans-78" d="M 3513 3500 
L 2247 1797 
L 3578 0 
L 2900 0 
L 1881 1375 
L 863 0 
L 184 0 
L 1544 1831 
L 300 3500 
L 978 3500 
L 1906 2253 
L 2834 3500 
L 3513 3500 
z
" transform="scale(0.015625)"/>
       <path id="DejaVuSans-70" d="M 1159 525 
L 1159 -1331 
L 581 -1331 
L 581 3500 
L 1159 3500 
L 1159 2969 
Q 1341 3281 1617 3432 
Q 1894 3584 2278 3584 
Q 2916 3584 3314 3078 
Q 3713 2572 3713 1747 
Q 3713 922 3314 415 
Q 2916 -91 2278 -91 
Q 1894 -91 1617 61 
Q 1341 213 1159 525 
z
M 3116 1747 
Q 3116 2381 2855 2742 
Q 2594 3103 2138 3103 
Q 1681 3103 1420 2742 
Q 1159 2381 1159 1747 
Q 1159 1113 1420 752 
Q 1681 391 2138 391 
Q 2594 391 2855 752 
Q 3116 1113 3116 1747 
z
" transform="scale(0.015625)"/>
       <path id="DejaVuSans-65" d="M 3597 1894 
L 3597 1613 
L 953 1613 
Q 991 1019 1311 708 
Q 1631 397 2203 397 
Q 2534 397 2845 478 
Q 3156 559 3463 722 
L 3463 178 
Q 3153 47 2828 -22 
Q 2503 -91 2169 -91 
Q 1331 -91 842 396 
Q 353 884 353 1716 
Q 353 2575 817 3079 
Q 1281 3584 2069 3584 
Q 2775 3584 3186 3129 
Q 3597 2675 3597 1894 
z
M 3022 2063 
Q 3016 2534 2758 2815 
Q 2500 3097 2075 3097 
Q 1594 3097 1305 2825 
Q 1016 2553 972 2059 
L 3022 2063 
z
" transform="scale(0.015625)"/>
       <path id="DejaVuSans-72" d="M 2631 2963 
Q 2534 3019 2420 3045 
Q 2306 3072 2169 3072 
Q 1681 3072 1420 2755 
Q 1159 2438 1159 1844 
L 1159 0 
L 581 0 
L 581 3500 
L 1159 3500 
L 1159 2956 
Q 1341 3275 1631 3429 
Q 1922 3584 2338 3584 
Q 2397 3584 2469 3576 
Q 2541 3569 2628 3553 
L 2631 2963 
z
" transform="scale(0.015625)"/>
       <path id="DejaVuSans-69" d="M 603 3500 
L 1178 3500 
L 1178 0 
L 603 0 
L 603 3500 
z
M 603 4863 
L 1178 4863 
L 1178 4134 
L 603 4134 
L 603 4863 
z
" transform="scale(0.015625)"/>
       <path id="DejaVuSans-6d" d="M 3328 2828 
Q 3544 3216 3844 3400 
Q 4144 3584 4550 3584 
Q 5097 3584 5394 3201 
Q 5691 2819 5691 2113 
L 5691 0 
L 5113 0 
L 5113 2094 
Q 5113 2597 4934 2840 
Q 4756 3084 4391 3084 
Q 3944 3084 3684 2787 
Q 3425 2491 3425 1978 
L 3425 0 
L 2847 0 
L 2847 2094 
Q 2847 2600 2669 2842 
Q 2491 3084 2119 3084 
Q 1678 3084 1418 2786 
Q 1159 2488 1159 1978 
L 1159 0 
L 581 0 
L 581 3500 
L 1159 3500 
L 1159 2956 
Q 1356 3278 1631 3431 
Q 1906 3584 2284 3584 
Q 2666 3584 2933 3390 
Q 3200 3197 3328 2828 
z
" transform="scale(0.015625)"/>
       <path id="DejaVuSans-6e" d="M 3513 2113 
L 3513 0 
L 2938 0 
L 2938 2094 
Q 2938 2591 2744 2837 
Q 2550 3084 2163 3084 
Q 1697 3084 1428 2787 
Q 1159 2491 1159 1978 
L 1159 0 
L 581 0 
L 581 3500 
L 1159 3500 
L 1159 2956 
Q 1366 3272 1645 3428 
Q 1925 3584 2291 3584 
Q 2894 3584 3203 3211 
Q 3513 2838 3513 2113 
z
" transform="scale(0.015625)"/>
       <path id="DejaVuSans-74" d="M 1172 4494 
L 1172 3500 
L 2356 3500 
L 2356 3053 
L 1172 3053 
L 1172 1153 
Q 1172 725 1289 603 
Q 1406 481 1766 481 
L 2356 481 
L 2356 0 
L 1766 0 
Q 1100 0 847 248 
Q 594 497 594 1153 
L 594 3053 
L 172 3053 
L 172 3500 
L 594 3500 
L 594 4494 
L 1172 4494 
z
" transform="scale(0.015625)"/>
       <path id="DejaVuSans-61" d="M 2194 1759 
Q 1497 1759 1228 1600 
Q 959 1441 959 1056 
Q 959 750 1161 570 
Q 1363 391 1709 391 
Q 2188 391 2477 730 
Q 2766 1069 2766 1631 
L 2766 1759 
L 2194 1759 
z
M 3341 1997 
L 3341 0 
L 2766 0 
L 2766 531 
Q 2569 213 2275 61 
Q 1981 -91 1556 -91 
Q 1019 -91 701 211 
Q 384 513 384 1019 
Q 384 1609 779 1909 
Q 1175 2209 1959 2209 
L 2766 2209 
L 2766 2266 
Q 2766 2663 2505 2880 
Q 2244 3097 1772 3097 
Q 1472 3097 1187 3025 
Q 903 2953 641 2809 
L 641 3341 
Q 956 3463 1253 3523 
Q 1550 3584 1831 3584 
Q 2591 3584 2966 3190 
Q 3341 2797 3341 1997 
z
" transform="scale(0.015625)"/>
       <path id="DejaVuSans-6c" d="M 603 4863 
L 1178 4863 
L 1178 0 
L 603 0 
L 603 4863 
z
" transform="scale(0.015625)"/>
       <path id="DejaVuSans-20" transform="scale(0.015625)"/>
       <path id="DejaVuSans-6f" d="M 1959 3097 
Q 1497 3097 1228 2736 
Q 959 2375 959 1747 
Q 959 1119 1226 758 
Q 1494 397 1959 397 
Q 2419 397 2687 759 
Q 2956 1122 2956 1747 
Q 2956 2369 2687 2733 
Q 2419 3097 1959 3097 
z
M 1959 3584 
Q 2709 3584 3137 3096 
Q 3566 2609 3566 1747 
Q 3566 888 3137 398 
Q 2709 -91 1959 -91 
Q 1206 -91 779 398 
Q 353 888 353 1747 
Q 353 2609 779 3096 
Q 1206 3584 1959 3584 
z
" transform="scale(0.015625)"/>
       <path id="DejaVuSans-67" d="M 2906 1791 
Q 2906 2416 2648 2759 
Q 2391 3103 1925 3103 
Q 1463 3103 1205 2759 
Q 947 2416 947 1791 
Q 947 1169 1205 825 
Q 1463 481 1925 481 
Q 2391 481 2648 825 
Q 2906 1169 2906 1791 
z
M 3481 434 
Q 3481 -459 3084 -895 
Q 2688 -1331 1869 -1331 
Q 1566 -1331 1297 -1286 
Q 1028 -1241 775 -1147 
L 775 -588 
Q 1028 -725 1275 -790 
Q 1522 -856 1778 -856 
Q 2344 -856 2625 -561 
Q 2906 -266 2906 331 
L 2906 616 
Q 2728 306 2450 153 
Q 2172 0 1784 0 
Q 1141 0 747 490 
Q 353 981 353 1791 
Q 353 2603 747 3093 
Q 1141 3584 1784 3584 
Q 2172 3584 2450 3431 
Q 2728 3278 2906 2969 
L 2906 3500 
L 3481 3500 
L 3481 434 
z
" transform="scale(0.015625)"/>
       <path id="DejaVuSans-50" d="M 1259 4147 
L 1259 2394 
L 2053 2394 
Q 2494 2394 2734 2622 
Q 2975 2850 2975 3272 
Q 2975 3691 2734 3919 
Q 2494 4147 2053 4147 
L 1259 4147 
z
M 628 4666 
L 2053 4666 
Q 2838 4666 3239 4311 
Q 3641 3956 3641 3272 
Q 3641 2581 3239 2228 
Q 2838 1875 2053 1875 
L 1259 1875 
L 1259 0 
L 628 0 
L 628 4666 
z
" transform="scale(0.015625)"/>
      </defs>
      <use xlink:href="#DejaVuSans-45"/>
      <use xlink:href="#DejaVuSans-78" transform="translate(63.183594 0)"/>
      <use xlink:href="#DejaVuSans-70" transform="translate(122.363281 0)"/>
      <use xlink:href="#DejaVuSans-65" transform="translate(185.839844 0)"/>
      <use xlink:href="#DejaVuSans-72" transform="translate(247.363281 0)"/>
      <use xlink:href="#DejaVuSans-69" transform="translate(288.476562 0)"/>
      <use xlink:href="#DejaVuSans-6d" transform="translate(316.259766 0)"/>
      <use xlink:href="#DejaVuSans-65" transform="translate(413.671875 0)"/>
      <use xlink:href="#DejaVuSans-6e" transform="translate(475.195312 0)"/>
      <use xlink:href="#DejaVuSans-74" transform="translate(538.574219 0)"/>
      <use xlink:href="#DejaVuSans-61" transform="translate(577.783203 0)"/>
      <use xlink:href="#DejaVuSans-6c" transform="translate(639.0625 0)"/>
      <use xlink:href="#DejaVuSans-20" transform="translate(666.845703 0)"/>
      <use xlink:href="#DejaVuSans-6c" transform="translate(698.632812 0)"/>
      <use xlink:href="#DejaVuSans-6f" transform="translate(726.416016 0)"/>
      <use xlink:href="#DejaVuSans-67" transform="translate(787.597656 0)"/>
      <use xlink:href="#DejaVuSans-50" transform="translate(851.074219 0)"/>
     </g>
    </g>
   </g>
   <g id="matplotlib.axis_2">
    <g id="ytick_1">
     <g id="line2d_8">
      <defs>
       <path id="mbd3809d1ab" d="M 0 0 
L -3.5 0 
" style="stroke: #000000; stroke-width: 0.8"/>
      </defs>
      <g>
       <use xlink:href="#mbd3809d1ab" x="71.753047" y="282.810548" style="stroke: #000000; stroke-width: 0.8"/>
      </g>
     </g>
     <g id="text_9">
      <!-- N = 0 -->
      <g transform="translate(34.744375 286.799728) scale(0.105 -0.105)">
       <defs>
        <path id="DejaVuSans-4e" d="M 628 4666 
L 1478 4666 
L 3547 763 
L 3547 4666 
L 4159 4666 
L 4159 0 
L 3309 0 
L 1241 3903 
L 1241 0 
L 628 0 
L 628 4666 
z
" transform="scale(0.015625)"/>
        <path id="DejaVuSans-3d" d="M 678 2906 
L 4684 2906 
L 4684 2381 
L 678 2381 
L 678 2906 
z
M 678 1631 
L 4684 1631 
L 4684 1100 
L 678 1100 
L 678 1631 
z
" transform="scale(0.015625)"/>
       </defs>
       <use xlink:href="#DejaVuSans-4e"/>
       <use xlink:href="#DejaVuSans-20" transform="translate(74.804688 0)"/>
       <use xlink:href="#DejaVuSans-3d" transform="translate(106.591797 0)"/>
       <use xlink:href="#DejaVuSans-20" transform="translate(190.380859 0)"/>
       <use xlink:href="#DejaVuSans-30" transform="translate(222.167969 0)"/>
      </g>
     </g>
    </g>
    <g id="ytick_2">
     <g id="line2d_9">
      <g>
       <use xlink:href="#mbd3809d1ab" x="71.753047" y="206.252063" style="stroke: #000000; stroke-width: 0.8"/>
      </g>
     </g>
     <g id="text_10">
      <!-- N = 1 -->
      <g transform="translate(34.744375 210.241242) scale(0.105 -0.105)">
       <use xlink:href="#DejaVuSans-4e"/>
       <use xlink:href="#DejaVuSans-20" transform="translate(74.804688 0)"/>
       <use xlink:href="#DejaVuSans-3d" transform="translate(106.591797 0)"/>
       <use xlink:href="#DejaVuSans-20" transform="translate(190.380859 0)"/>
       <use xlink:href="#DejaVuSans-31" transform="translate(222.167969 0)"/>
      </g>
     </g>
    </g>
    <g id="ytick_3">
     <g id="line2d_10">
      <g>
       <use xlink:href="#mbd3809d1ab" x="71.753047" y="129.693577" style="stroke: #000000; stroke-width: 0.8"/>
      </g>
     </g>
     <g id="text_11">
      <!-- N = 2–3 -->
      <g transform="translate(22.81375 133.682757) scale(0.105 -0.105)">
       <defs>
        <path id="DejaVuSans-2013" d="M 313 1978 
L 2888 1978 
L 2888 1528 
L 313 1528 
L 313 1978 
z
" transform="scale(0.015625)"/>
       </defs>
       <use xlink:href="#DejaVuSans-4e"/>
       <use xlink:href="#DejaVuSans-20" transform="translate(74.804688 0)"/>
       <use xlink:href="#DejaVuSans-3d" transform="translate(106.591797 0)"/>
       <use xlink:href="#DejaVuSans-20" transform="translate(190.380859 0)"/>
       <use xlink:href="#DejaVuSans-32" transform="translate(222.167969 0)"/>
       <use xlink:href="#DejaVuSans-2013" transform="translate(285.791016 0)"/>
       <use xlink:href="#DejaVuSans-33" transform="translate(335.791016 0)"/>
      </g>
     </g>
    </g>
    <g id="ytick_4">
     <g id="line2d_11">
      <g>
       <use xlink:href="#mbd3809d1ab" x="71.753047" y="53.135091" style="stroke: #000000; stroke-width: 0.8"/>
      </g>
     </g>
     <g id="text_12">
      <!-- N ≥ 4 -->
      <g transform="translate(34.744375 57.124271) scale(0.105 -0.105)">
       <defs>
        <path id="DejaVuSans-2265" d="M 678 3175 
L 678 3725 
L 4684 2578 
L 4684 2047 
L 678 897 
L 678 1453 
L 3681 2309 
L 678 3175 
z
M 4684 531 
L 4684 0 
L 678 0 
L 678 531 
L 4684 531 
z
" transform="scale(0.015625)"/>
       </defs>
       <use xlink:href="#DejaVuSans-4e"/>
       <use xlink:href="#DejaVuSans-20" transform="translate(74.804688 0)"/>
       <use xlink:href="#DejaVuSans-2265" transform="translate(106.591797 0)"/>
       <use xlink:href="#DejaVuSans-20" transform="translate(190.380859 0)"/>
       <use xlink:href="#DejaVuSans-34" transform="translate(222.167969 0)"/>
      </g>
     </g>
    </g>
    <g id="text_13">
     <!-- Nitrogen-count group -->
     <g transform="translate(16.318125 226.467496) rotate(-90) scale(0.12 -0.12)">
      <defs>
       <path id="DejaVuSans-2d" d="M 313 2009 
L 1997 2009 
L 1997 1497 
L 313 1497 
L 313 2009 
z
" transform="scale(0.015625)"/>
       <path id="DejaVuSans-63" d="M 3122 3366 
L 3122 2828 
Q 2878 2963 2633 3030 
Q 2388 3097 2138 3097 
Q 1578 3097 1268 2742 
Q 959 2388 959 1747 
Q 959 1106 1268 751 
Q 1578 397 2138 397 
Q 2388 397 2633 464 
Q 2878 531 3122 666 
L 3122 134 
Q 2881 22 2623 -34 
Q 2366 -91 2075 -91 
Q 1284 -91 818 406 
Q 353 903 353 1747 
Q 353 2603 823 3093 
Q 1294 3584 2113 3584 
Q 2378 3584 2631 3529 
Q 2884 3475 3122 3366 
z
" transform="scale(0.015625)"/>
       <path id="DejaVuSans-75" d="M 544 1381 
L 544 3500 
L 1119 3500 
L 1119 1403 
Q 1119 906 1312 657 
Q 1506 409 1894 409 
Q 2359 409 2629 706 
Q 2900 1003 2900 1516 
L 2900 3500 
L 3475 3500 
L 3475 0 
L 2900 0 
L 2900 538 
Q 2691 219 2414 64 
Q 2138 -91 1772 -91 
Q 1169 -91 856 284 
Q 544 659 544 1381 
z
M 1991 3584 
L 1991 3584 
z
" transform="scale(0.015625)"/>
      </defs>
      <use xlink:href="#DejaVuSans-4e"/>
      <use xlink:href="#DejaVuSans-69" transform="translate(74.804688 0)"/>
      <use xlink:href="#DejaVuSans-74" transform="translate(102.587891 0)"/>
      <use xlink:href="#DejaVuSans-72" transform="translate(141.796875 0)"/>
      <use xlink:href="#DejaVuSans-6f" transform="translate(180.660156 0)"/>
      <use xlink:href="#DejaVuSans-67" transform="translate(241.841797 0)"/>
      <use xlink:href="#DejaVuSans-65" transform="translate(305.318359 0)"/>
      <use xlink:href="#DejaVuSans-6e" transform="translate(366.841797 0)"/>
      <use xlink:href="#DejaVuSans-2d" transform="translate(430.220703 0)"/>
      <use xlink:href="#DejaVuSans-63" transform="translate(466.304688 0)"/>
      <use xlink:href="#DejaVuSans-6f" transform="translate(521.285156 0)"/>
      <use xlink:href="#DejaVuSans-75" transform="translate(582.466797 0)"/>
      <use xlink:href="#DejaVuSans-6e" transform="translate(645.845703 0)"/>
      <use xlink:href="#DejaVuSans-74" transform="translate(709.224609 0)"/>
      <use xlink:href="#DejaVuSans-20" transform="translate(748.433594 0)"/>
      <use xlink:href="#DejaVuSans-67" transform="translate(780.220703 0)"/>
      <use xlink:href="#DejaVuSans-72" transform="translate(843.697266 0)"/>
      <use xlink:href="#DejaVuSans-6f" transform="translate(882.560547 0)"/>
      <use xlink:href="#DejaVuSans-75" transform="translate(943.742188 0)"/>
      <use xlink:href="#DejaVuSans-70" transform="translate(1007.121094 0)"/>
     </g>
    </g>
   </g>
   <g id="line2d_12">
    <path d="M 193.679398 317.261867 
L 193.679398 7.2 
" clip-path="url(#p71bf005644)" style="fill: none; stroke-dasharray: 3.33,1.44; stroke-dashoffset: 0; stroke: #000000; stroke-opacity: 0.55; stroke-width: 0.9"/>
   </g>
   <g id="line2d_13">
    <path d="M 295.28469 317.261867 
L 295.28469 7.2 
" clip-path="url(#p71bf005644)" style="fill: none; stroke-dasharray: 3.33,1.44; stroke-dashoffset: 0; stroke: #000000; stroke-opacity: 0.55; stroke-width: 0.9"/>
   </g>
   <g id="line2d_14">
    <path d="M 71.753047 244.531305 
L 512.042647 244.531305 
" clip-path="url(#p71bf005644)" style="fill: none; stroke: #d1d1d1; stroke-width: 0.5; stroke-linecap: square"/>
   </g>
   <g id="line2d_15">
    <path d="M 71.753047 167.97282 
L 512.042647 167.97282 
" clip-path="url(#p71bf005644)" style="fill: none; stroke: #d1d1d1; stroke-width: 0.5; stroke-linecap: square"/>
   </g>
   <g id="line2d_16">
    <path d="M 71.753047 91.414334 
L 512.042647 91.414334 
" clip-path="url(#p71bf005644)" style="fill: none; stroke: #d1d1d1; stroke-width: 0.5; stroke-linecap: square"/>
   </g>
   <g id="patch_7">
    <path d="M 71.753047 317.261867 
L 71.753047 7.2 
" style="fill: none; stroke: #000000; stroke-width: 0.9; stroke-linejoin: miter; stroke-linecap: square"/>
   </g>
   <g id="patch_8">
    <path d="M 71.753047 317.261867 
L 512.042647 317.261867 
" style="fill: none; stroke: #000000; stroke-width: 0.9; stroke-linejoin: miter; stroke-linecap: square"/>
   </g>
   <g id="PathCollection_1">
    <defs>
     <path id="C0_0_084ca9fbd0" d="M 0 2.5 
C 0.663008 2.5 1.29895 2.236584 1.767767 1.767767 
C 2.236584 1.29895 2.5 0.663008 2.5 -0 
C 2.5 -0.663008 2.236584 -1.29895 1.767767 -1.767767 
C 1.29895 -2.236584 0.663008 -2.5 0 -2.5 
C -0.663008 -2.5 -1.29895 -2.236584 -1.767767 -1.767767 
C -2.236584 -1.29895 -2.5 -0.663008 -2.5 0 
C -2.5 0.663008 -2.236584 1.29895 -1.767767 1.767767 
C -1.29895 2.236584 -0.663008 2.5 0 2.5 
z
"/>
    </defs>
    <g clip-path="url(#p71bf005644)">
     <use xlink:href="#C0_0_084ca9fbd0" x="263.537233" y="283.531698" style="fill: #1f77b4; fill-opacity: 0.65"/>
    </g>
    <g clip-path="url(#p71bf005644)">
     <use xlink:href="#C0_0_084ca9fbd0" x="311.520396" y="50.669616" style="fill: #1f77b4; fill-opacity: 0.65"/>
    </g>
    <g clip-path="url(#p71bf005644)">
     <use xlink:href="#C0_0_084ca9fbd0" x="293.736715" y="52.815998" style="fill: #1f77b4; fill-opacity: 0.65"/>
    </g>
    <g clip-path="url(#p71bf005644)">
     <use xlink:href="#C0_0_084ca9fbd0" x="292.920946" y="55.222396" style="fill: #1f77b4; fill-opacity: 0.65"/>
    </g>
    <g clip-path="url(#p71bf005644)">
     <use xlink:href="#C0_0_084ca9fbd0" x="284.093385" y="52.048927" style="fill: #1f77b4; fill-opacity: 0.65"/>
    </g>
    <g clip-path="url(#p71bf005644)">
     <use xlink:href="#C0_0_084ca9fbd0" x="348.56757" y="59.058199" style="fill: #1f77b4; fill-opacity: 0.65"/>
    </g>
    <g clip-path="url(#p71bf005644)">
     <use xlink:href="#C0_0_084ca9fbd0" x="423.391235" y="130.796985" style="fill: #1f77b4; fill-opacity: 0.65"/>
    </g>
    <g clip-path="url(#p71bf005644)">
     <use xlink:href="#C0_0_084ca9fbd0" x="431.528878" y="129.464425" style="fill: #1f77b4; fill-opacity: 0.65"/>
    </g>
    <g clip-path="url(#p71bf005644)">
     <use xlink:href="#C0_0_084ca9fbd0" x="431.654925" y="128.8312" style="fill: #1f77b4; fill-opacity: 0.65"/>
    </g>
    <g clip-path="url(#p71bf005644)">
     <use xlink:href="#C0_0_084ca9fbd0" x="416.735475" y="129.706017" style="fill: #1f77b4; fill-opacity: 0.65"/>
    </g>
    <g clip-path="url(#p71bf005644)">
     <use xlink:href="#C0_0_084ca9fbd0" x="357.05453" y="49.905587" style="fill: #1f77b4; fill-opacity: 0.65"/>
    </g>
    <g clip-path="url(#p71bf005644)">
     <use xlink:href="#C0_0_084ca9fbd0" x="255.466169" y="279.777278" style="fill: #1f77b4; fill-opacity: 0.65"/>
    </g>
    <g clip-path="url(#p71bf005644)">
     <use xlink:href="#C0_0_084ca9fbd0" x="314.784341" y="278.661942" style="fill: #1f77b4; fill-opacity: 0.65"/>
    </g>
    <g clip-path="url(#p71bf005644)">
     <use xlink:href="#C0_0_084ca9fbd0" x="314.622069" y="208.110426" style="fill: #1f77b4; fill-opacity: 0.65"/>
    </g>
    <g clip-path="url(#p71bf005644)">
     <use xlink:href="#C0_0_084ca9fbd0" x="403.25451" y="284.635218" style="fill: #1f77b4; fill-opacity: 0.65"/>
    </g>
    <g clip-path="url(#p71bf005644)">
     <use xlink:href="#C0_0_084ca9fbd0" x="312.12923" y="129.96481" style="fill: #1f77b4; fill-opacity: 0.65"/>
    </g>
    <g clip-path="url(#p71bf005644)">
     <use xlink:href="#C0_0_084ca9fbd0" x="305.511757" y="127.181328" style="fill: #1f77b4; fill-opacity: 0.65"/>
    </g>
    <g clip-path="url(#p71bf005644)">
     <use xlink:href="#C0_0_084ca9fbd0" x="331.542076" y="136.17046" style="fill: #1f77b4; fill-opacity: 0.65"/>
    </g>
    <g clip-path="url(#p71bf005644)">
     <use xlink:href="#C0_0_084ca9fbd0" x="303.011366" y="133.332933" style="fill: #1f77b4; fill-opacity: 0.65"/>
    </g>
    <g clip-path="url(#p71bf005644)">
     <use xlink:href="#C0_0_084ca9fbd0" x="331.26836" y="132.173467" style="fill: #1f77b4; fill-opacity: 0.65"/>
    </g>
    <g clip-path="url(#p71bf005644)">
     <use xlink:href="#C0_0_084ca9fbd0" x="294.471975" y="285.703709" style="fill: #1f77b4; fill-opacity: 0.65"/>
    </g>
    <g clip-path="url(#p71bf005644)">
     <use xlink:href="#C0_0_084ca9fbd0" x="119.241663" y="124.67546" style="fill: #1f77b4; fill-opacity: 0.65"/>
    </g>
    <g clip-path="url(#p71bf005644)">
     <use xlink:href="#C0_0_084ca9fbd0" x="133.045425" y="128.006785" style="fill: #1f77b4; fill-opacity: 0.65"/>
    </g>
    <g clip-path="url(#p71bf005644)">
     <use xlink:href="#C0_0_084ca9fbd0" x="134.905152" y="55.008727" style="fill: #1f77b4; fill-opacity: 0.65"/>
    </g>
    <g clip-path="url(#p71bf005644)">
     <use xlink:href="#C0_0_084ca9fbd0" x="268.075934" y="127.009947" style="fill: #1f77b4; fill-opacity: 0.65"/>
    </g>
    <g clip-path="url(#p71bf005644)">
     <use xlink:href="#C0_0_084ca9fbd0" x="284.515066" y="129.019351" style="fill: #1f77b4; fill-opacity: 0.65"/>
    </g>
    <g clip-path="url(#p71bf005644)">
     <use xlink:href="#C0_0_084ca9fbd0" x="279.041727" y="128.704748" style="fill: #1f77b4; fill-opacity: 0.65"/>
    </g>
    <g clip-path="url(#p71bf005644)">
     <use xlink:href="#C0_0_084ca9fbd0" x="104.305403" y="204.647417" style="fill: #1f77b4; fill-opacity: 0.65"/>
    </g>
    <g clip-path="url(#p71bf005644)">
     <use xlink:href="#C0_0_084ca9fbd0" x="160.004734" y="127.443281" style="fill: #1f77b4; fill-opacity: 0.65"/>
    </g>
    <g clip-path="url(#p71bf005644)">
     <use xlink:href="#C0_0_084ca9fbd0" x="335.102875" y="133.022262" style="fill: #1f77b4; fill-opacity: 0.65"/>
    </g>
    <g clip-path="url(#p71bf005644)">
     <use xlink:href="#C0_0_084ca9fbd0" x="224.339502" y="125.922582" style="fill: #1f77b4; fill-opacity: 0.65"/>
    </g>
    <g clip-path="url(#p71bf005644)">
     <use xlink:href="#C0_0_084ca9fbd0" x="238.481052" y="136.71238" style="fill: #1f77b4; fill-opacity: 0.65"/>
    </g>
    <g clip-path="url(#p71bf005644)">
     <use xlink:href="#C0_0_084ca9fbd0" x="309.391023" y="135.020038" style="fill: #1f77b4; fill-opacity: 0.65"/>
    </g>
    <g clip-path="url(#p71bf005644)">
     <use xlink:href="#C0_0_084ca9fbd0" x="296.03977" y="135.00813" style="fill: #1f77b4; fill-opacity: 0.65"/>
    </g>
    <g clip-path="url(#p71bf005644)">
     <use xlink:href="#C0_0_084ca9fbd0" x="227.305164" y="128.638685" style="fill: #1f77b4; fill-opacity: 0.65"/>
    </g>
    <g clip-path="url(#p71bf005644)">
     <use xlink:href="#C0_0_084ca9fbd0" x="223.507738" y="129.905753" style="fill: #1f77b4; fill-opacity: 0.65"/>
    </g>
    <g clip-path="url(#p71bf005644)">
     <use xlink:href="#C0_0_084ca9fbd0" x="259.065036" y="132.863598" style="fill: #1f77b4; fill-opacity: 0.65"/>
    </g>
    <g clip-path="url(#p71bf005644)">
     <use xlink:href="#C0_0_084ca9fbd0" x="275.168545" y="132.89598" style="fill: #1f77b4; fill-opacity: 0.65"/>
    </g>
    <g clip-path="url(#p71bf005644)">
     <use xlink:href="#C0_0_084ca9fbd0" x="298.167453" y="137.535966" style="fill: #1f77b4; fill-opacity: 0.65"/>
    </g>
    <g clip-path="url(#p71bf005644)">
     <use xlink:href="#C0_0_084ca9fbd0" x="240.54124" y="132.135305" style="fill: #1f77b4; fill-opacity: 0.65"/>
    </g>
    <g clip-path="url(#p71bf005644)">
     <use xlink:href="#C0_0_084ca9fbd0" x="299.651744" y="129.939483" style="fill: #1f77b4; fill-opacity: 0.65"/>
    </g>
    <g clip-path="url(#p71bf005644)">
     <use xlink:href="#C0_0_084ca9fbd0" x="297.233596" y="205.886858" style="fill: #1f77b4; fill-opacity: 0.65"/>
    </g>
    <g clip-path="url(#p71bf005644)">
     <use xlink:href="#C0_0_084ca9fbd0" x="184.848379" y="290.169725" style="fill: #1f77b4; fill-opacity: 0.65"/>
    </g>
    <g clip-path="url(#p71bf005644)">
     <use xlink:href="#C0_0_084ca9fbd0" x="118.695205" y="126.643545" style="fill: #1f77b4; fill-opacity: 0.65"/>
    </g>
    <g clip-path="url(#p71bf005644)">
     <use xlink:href="#C0_0_084ca9fbd0" x="204.877539" y="277.969298" style="fill: #1f77b4; fill-opacity: 0.65"/>
    </g>
    <g clip-path="url(#p71bf005644)">
     <use xlink:href="#C0_0_084ca9fbd0" x="224.572204" y="280.284062" style="fill: #1f77b4; fill-opacity: 0.65"/>
    </g>
    <g clip-path="url(#p71bf005644)">
     <use xlink:href="#C0_0_084ca9fbd0" x="229.835549" y="283.860006" style="fill: #1f77b4; fill-opacity: 0.65"/>
    </g>
    <g clip-path="url(#p71bf005644)">
     <use xlink:href="#C0_0_084ca9fbd0" x="305.80872" y="282.938815" style="fill: #1f77b4; fill-opacity: 0.65"/>
    </g>
    <g clip-path="url(#p71bf005644)">
     <use xlink:href="#C0_0_084ca9fbd0" x="187.70205" y="51.494774" style="fill: #1f77b4; fill-opacity: 0.65"/>
    </g>
    <g clip-path="url(#p71bf005644)">
     <use xlink:href="#C0_0_084ca9fbd0" x="205.163203" y="51.709396" style="fill: #1f77b4; fill-opacity: 0.65"/>
    </g>
    <g clip-path="url(#p71bf005644)">
     <use xlink:href="#C0_0_084ca9fbd0" x="198.813616" y="47.031007" style="fill: #1f77b4; fill-opacity: 0.65"/>
    </g>
    <g clip-path="url(#p71bf005644)">
     <use xlink:href="#C0_0_084ca9fbd0" x="146.469572" y="51.451579" style="fill: #1f77b4; fill-opacity: 0.65"/>
    </g>
    <g clip-path="url(#p71bf005644)">
     <use xlink:href="#C0_0_084ca9fbd0" x="133.209223" y="50.609344" style="fill: #1f77b4; fill-opacity: 0.65"/>
    </g>
    <g clip-path="url(#p71bf005644)">
     <use xlink:href="#C0_0_084ca9fbd0" x="192.666391" y="54.992373" style="fill: #1f77b4; fill-opacity: 0.65"/>
    </g>
    <g clip-path="url(#p71bf005644)">
     <use xlink:href="#C0_0_084ca9fbd0" x="209.180338" y="54.92133" style="fill: #1f77b4; fill-opacity: 0.65"/>
    </g>
    <g clip-path="url(#p71bf005644)">
     <use xlink:href="#C0_0_084ca9fbd0" x="173.506439" y="49.312005" style="fill: #1f77b4; fill-opacity: 0.65"/>
    </g>
    <g clip-path="url(#p71bf005644)">
     <use xlink:href="#C0_0_084ca9fbd0" x="185.317162" y="51.24885" style="fill: #1f77b4; fill-opacity: 0.65"/>
    </g>
    <g clip-path="url(#p71bf005644)">
     <use xlink:href="#C0_0_084ca9fbd0" x="195.942338" y="54.550814" style="fill: #1f77b4; fill-opacity: 0.65"/>
    </g>
    <g clip-path="url(#p71bf005644)">
     <use xlink:href="#C0_0_084ca9fbd0" x="232.168035" y="205.199857" style="fill: #1f77b4; fill-opacity: 0.65"/>
    </g>
    <g clip-path="url(#p71bf005644)">
     <use xlink:href="#C0_0_084ca9fbd0" x="258.088377" y="203.431995" style="fill: #1f77b4; fill-opacity: 0.65"/>
    </g>
    <g clip-path="url(#p71bf005644)">
     <use xlink:href="#C0_0_084ca9fbd0" x="270.211971" y="206.600285" style="fill: #1f77b4; fill-opacity: 0.65"/>
    </g>
    <g clip-path="url(#p71bf005644)">
     <use xlink:href="#C0_0_084ca9fbd0" x="262.68035" y="200.094428" style="fill: #1f77b4; fill-opacity: 0.65"/>
    </g>
    <g clip-path="url(#p71bf005644)">
     <use xlink:href="#C0_0_084ca9fbd0" x="238.542955" y="55.083824" style="fill: #1f77b4; fill-opacity: 0.65"/>
    </g>
    <g clip-path="url(#p71bf005644)">
     <use xlink:href="#C0_0_084ca9fbd0" x="226.780541" y="48.591793" style="fill: #1f77b4; fill-opacity: 0.65"/>
    </g>
    <g clip-path="url(#p71bf005644)">
     <use xlink:href="#C0_0_084ca9fbd0" x="216.574633" y="51.250085" style="fill: #1f77b4; fill-opacity: 0.65"/>
    </g>
    <g clip-path="url(#p71bf005644)">
     <use xlink:href="#C0_0_084ca9fbd0" x="222.726606" y="51.847158" style="fill: #1f77b4; fill-opacity: 0.65"/>
    </g>
    <g clip-path="url(#p71bf005644)">
     <use xlink:href="#C0_0_084ca9fbd0" x="272.843" y="51.200693" style="fill: #1f77b4; fill-opacity: 0.65"/>
    </g>
    <g clip-path="url(#p71bf005644)">
     <use xlink:href="#C0_0_084ca9fbd0" x="255.265577" y="125.329596" style="fill: #1f77b4; fill-opacity: 0.65"/>
    </g>
    <g clip-path="url(#p71bf005644)">
     <use xlink:href="#C0_0_084ca9fbd0" x="271.796538" y="131.37627" style="fill: #1f77b4; fill-opacity: 0.65"/>
    </g>
    <g clip-path="url(#p71bf005644)">
     <use xlink:href="#C0_0_084ca9fbd0" x="255.935714" y="54.155456" style="fill: #1f77b4; fill-opacity: 0.65"/>
    </g>
    <g clip-path="url(#p71bf005644)">
     <use xlink:href="#C0_0_084ca9fbd0" x="272.27434" y="127.331749" style="fill: #1f77b4; fill-opacity: 0.65"/>
    </g>
    <g clip-path="url(#p71bf005644)">
     <use xlink:href="#C0_0_084ca9fbd0" x="269.908497" y="128.26856" style="fill: #1f77b4; fill-opacity: 0.65"/>
    </g>
    <g clip-path="url(#p71bf005644)">
     <use xlink:href="#C0_0_084ca9fbd0" x="196.12144" y="208.923349" style="fill: #1f77b4; fill-opacity: 0.65"/>
    </g>
    <g clip-path="url(#p71bf005644)">
     <use xlink:href="#C0_0_084ca9fbd0" x="193.057458" y="208.984262" style="fill: #1f77b4; fill-opacity: 0.65"/>
    </g>
    <g clip-path="url(#p71bf005644)">
     <use xlink:href="#C0_0_084ca9fbd0" x="233.921862" y="205.736524" style="fill: #1f77b4; fill-opacity: 0.65"/>
    </g>
    <g clip-path="url(#p71bf005644)">
     <use xlink:href="#C0_0_084ca9fbd0" x="243.521413" y="202.513237" style="fill: #1f77b4; fill-opacity: 0.65"/>
    </g>
    <g clip-path="url(#p71bf005644)">
     <use xlink:href="#C0_0_084ca9fbd0" x="178.302312" y="203.212841" style="fill: #1f77b4; fill-opacity: 0.65"/>
    </g>
    <g clip-path="url(#p71bf005644)">
     <use xlink:href="#C0_0_084ca9fbd0" x="259.01201" y="204.449292" style="fill: #1f77b4; fill-opacity: 0.65"/>
    </g>
    <g clip-path="url(#p71bf005644)">
     <use xlink:href="#C0_0_084ca9fbd0" x="187.744992" y="211.70142" style="fill: #1f77b4; fill-opacity: 0.65"/>
    </g>
   </g>
   <g id="text_14">
    <!-- polar -->
    <g transform="translate(130.134564 16.124461) scale(0.1 -0.1)">
     <use xlink:href="#DejaVuSans-70"/>
     <use xlink:href="#DejaVuSans-6f" transform="translate(63.476562 0)"/>
     <use xlink:href="#DejaVuSans-6c" transform="translate(124.658203 0)"/>
     <use xlink:href="#DejaVuSans-61" transform="translate(152.441406 0)"/>
     <use xlink:href="#DejaVuSans-72" transform="translate(213.720703 0)"/>
    </g>
    <!-- logP &lt; 1.5 -->
    <g transform="translate(116.91972 27.322273) scale(0.1 -0.1)">
     <defs>
      <path id="DejaVuSans-3c" d="M 4684 3150 
L 1459 2003 
L 4684 863 
L 4684 294 
L 678 1747 
L 678 2266 
L 4684 3719 
L 4684 3150 
z
" transform="scale(0.015625)"/>
      <path id="DejaVuSans-2e" d="M 684 794 
L 1344 794 
L 1344 0 
L 684 0 
L 684 794 
z
" transform="scale(0.015625)"/>
     </defs>
     <use xlink:href="#DejaVuSans-6c"/>
     <use xlink:href="#DejaVuSans-6f" transform="translate(27.783203 0)"/>
     <use xlink:href="#DejaVuSans-67" transform="translate(88.964844 0)"/>
     <use xlink:href="#DejaVuSans-50" transform="translate(152.441406 0)"/>
     <use xlink:href="#DejaVuSans-20" transform="translate(212.744141 0)"/>
     <use xlink:href="#DejaVuSans-3c" transform="translate(244.53125 0)"/>
     <use xlink:href="#DejaVuSans-20" transform="translate(328.320312 0)"/>
     <use xlink:href="#DejaVuSans-31" transform="translate(360.107422 0)"/>
     <use xlink:href="#DejaVuSans-2e" transform="translate(423.730469 0)"/>
     <use xlink:href="#DejaVuSans-35" transform="translate(455.517578 0)"/>
    </g>
   </g>
   <g id="text_15">
    <!-- intermediate -->
    <g transform="translate(212.308606 16.124461) scale(0.1 -0.1)">
     <defs>
      <path id="DejaVuSans-64" d="M 2906 2969 
L 2906 4863 
L 3481 4863 
L 3481 0 
L 2906 0 
L 2906 525 
Q 2725 213 2448 61 
Q 2172 -91 1784 -91 
Q 1150 -91 751 415 
Q 353 922 353 1747 
Q 353 2572 751 3078 
Q 1150 3584 1784 3584 
Q 2172 3584 2448 3432 
Q 2725 3281 2906 2969 
z
M 947 1747 
Q 947 1113 1208 752 
Q 1469 391 1925 391 
Q 2381 391 2643 752 
Q 2906 1113 2906 1747 
Q 2906 2381 2643 2742 
Q 2381 3103 1925 3103 
Q 1469 3103 1208 2742 
Q 947 2381 947 1747 
z
" transform="scale(0.015625)"/>
     </defs>
     <use xlink:href="#DejaVuSans-69"/>
     <use xlink:href="#DejaVuSans-6e" transform="translate(27.783203 0)"/>
     <use xlink:href="#DejaVuSans-74" transform="translate(91.162109 0)"/>
     <use xlink:href="#DejaVuSans-65" transform="translate(130.371094 0)"/>
     <use xlink:href="#DejaVuSans-72" transform="translate(191.894531 0)"/>
     <use xlink:href="#DejaVuSans-6d" transform="translate(231.257812 0)"/>
     <use xlink:href="#DejaVuSans-65" transform="translate(328.669922 0)"/>
     <use xlink:href="#DejaVuSans-64" transform="translate(390.193359 0)"/>
     <use xlink:href="#DejaVuSans-69" transform="translate(453.669922 0)"/>
     <use xlink:href="#DejaVuSans-61" transform="translate(481.453125 0)"/>
     <use xlink:href="#DejaVuSans-74" transform="translate(542.732422 0)"/>
     <use xlink:href="#DejaVuSans-65" transform="translate(581.941406 0)"/>
    </g>
    <!-- 1.5 ≤ logP &lt; 3.0 -->
    <g transform="translate(203.205481 27.322273) scale(0.1 -0.1)">
     <defs>
      <path id="DejaVuSans-2264" d="M 4684 3175 
L 1684 2309 
L 4684 1453 
L 4684 897 
L 678 2047 
L 678 2578 
L 4684 3725 
L 4684 3175 
z
M 678 531 
L 4684 531 
L 4684 0 
L 678 0 
L 678 531 
z
" transform="scale(0.015625)"/>
     </defs>
     <use xlink:href="#DejaVuSans-31"/>
     <use xlink:href="#DejaVuSans-2e" transform="translate(63.623047 0)"/>
     <use xlink:href="#DejaVuSans-35" transform="translate(95.410156 0)"/>
     <use xlink:href="#DejaVuSans-20" transform="translate(159.033203 0)"/>
     <use xlink:href="#DejaVuSans-2264" transform="translate(190.820312 0)"/>
     <use xlink:href="#DejaVuSans-20" transform="translate(274.609375 0)"/>
     <use xlink:href="#DejaVuSans-6c" transform="translate(306.396484 0)"/>
     <use xlink:href="#DejaVuSans-6f" transform="translate(334.179688 0)"/>
     <use xlink:href="#DejaVuSans-67" transform="translate(395.361328 0)"/>
     <use xlink:href="#DejaVuSans-50" transform="translate(458.837891 0)"/>
     <use xlink:href="#DejaVuSans-20" transform="translate(519.140625 0)"/>
     <use xlink:href="#DejaVuSans-3c" transform="translate(550.927734 0)"/>
     <use xlink:href="#DejaVuSans-20" transform="translate(634.716797 0)"/>
     <use xlink:href="#DejaVuSans-33" transform="translate(666.503906 0)"/>
     <use xlink:href="#DejaVuSans-2e" transform="translate(730.126953 0)"/>
     <use xlink:href="#DejaVuSans-30" transform="translate(761.914062 0)"/>
    </g>
   </g>
   <g id="text_16">
    <!-- higher logP -->
    <g transform="translate(375.404293 16.124461) scale(0.1 -0.1)">
     <defs>
      <path id="DejaVuSans-68" d="M 3513 2113 
L 3513 0 
L 2938 0 
L 2938 2094 
Q 2938 2591 2744 2837 
Q 2550 3084 2163 3084 
Q 1697 3084 1428 2787 
Q 1159 2491 1159 1978 
L 1159 0 
L 581 0 
L 581 4863 
L 1159 4863 
L 1159 2956 
Q 1366 3272 1645 3428 
Q 1925 3584 2291 3584 
Q 2894 3584 3203 3211 
Q 3513 2838 3513 2113 
z
" transform="scale(0.015625)"/>
     </defs>
     <use xlink:href="#DejaVuSans-68"/>
     <use xlink:href="#DejaVuSans-69" transform="translate(63.378906 0)"/>
     <use xlink:href="#DejaVuSans-67" transform="translate(91.162109 0)"/>
     <use xlink:href="#DejaVuSans-68" transform="translate(154.638672 0)"/>
     <use xlink:href="#DejaVuSans-65" transform="translate(218.017578 0)"/>
     <use xlink:href="#DejaVuSans-72" transform="translate(279.541016 0)"/>
     <use xlink:href="#DejaVuSans-20" transform="translate(320.654297 0)"/>
     <use xlink:href="#DejaVuSans-6c" transform="translate(352.441406 0)"/>
     <use xlink:href="#DejaVuSans-6f" transform="translate(380.224609 0)"/>
     <use xlink:href="#DejaVuSans-67" transform="translate(441.40625 0)"/>
     <use xlink:href="#DejaVuSans-50" transform="translate(504.882812 0)"/>
    </g>
    <!-- ≥ 3.0 -->
    <g transform="translate(389.9332 27.322273) scale(0.1 -0.1)">
     <use xlink:href="#DejaVuSans-2265"/>
     <use xlink:href="#DejaVuSans-20" transform="translate(83.789062 0)"/>
     <use xlink:href="#DejaVuSans-33" transform="translate(115.576172 0)"/>
     <use xlink:href="#DejaVuSans-2e" transform="translate(179.199219 0)"/>
     <use xlink:href="#DejaVuSans-30" transform="translate(210.986328 0)"/>
    </g>
   </g>
   <g id="text_17">
    <!-- principal -->
    <g transform="translate(104.26674 96.53702) scale(0.088 -0.088)">
     <defs>
      <path id="DejaVuSans-Bold-70" d="M 1656 506 
L 1656 -1331 
L 538 -1331 
L 538 3500 
L 1656 3500 
L 1656 2988 
Q 1888 3294 2169 3439 
Q 2450 3584 2816 3584 
Q 3463 3584 3878 3070 
Q 4294 2556 4294 1747 
Q 4294 938 3878 423 
Q 3463 -91 2816 -91 
Q 2450 -91 2169 54 
Q 1888 200 1656 506 
z
M 2400 2772 
Q 2041 2772 1848 2508 
Q 1656 2244 1656 1747 
Q 1656 1250 1848 986 
Q 2041 722 2400 722 
Q 2759 722 2948 984 
Q 3138 1247 3138 1747 
Q 3138 2247 2948 2509 
Q 2759 2772 2400 2772 
z
" transform="scale(0.015625)"/>
      <path id="DejaVuSans-Bold-72" d="M 3138 2547 
Q 2991 2616 2845 2648 
Q 2700 2681 2553 2681 
Q 2122 2681 1889 2404 
Q 1656 2128 1656 1613 
L 1656 0 
L 538 0 
L 538 3500 
L 1656 3500 
L 1656 2925 
Q 1872 3269 2151 3426 
Q 2431 3584 2822 3584 
Q 2878 3584 2943 3579 
Q 3009 3575 3134 3559 
L 3138 2547 
z
" transform="scale(0.015625)"/>
      <path id="DejaVuSans-Bold-69" d="M 538 3500 
L 1656 3500 
L 1656 0 
L 538 0 
L 538 3500 
z
M 538 4863 
L 1656 4863 
L 1656 3950 
L 538 3950 
L 538 4863 
z
" transform="scale(0.015625)"/>
      <path id="DejaVuSans-Bold-6e" d="M 4056 2131 
L 4056 0 
L 2931 0 
L 2931 347 
L 2931 1631 
Q 2931 2084 2911 2256 
Q 2891 2428 2841 2509 
Q 2775 2619 2662 2680 
Q 2550 2741 2406 2741 
Q 2056 2741 1856 2470 
Q 1656 2200 1656 1722 
L 1656 0 
L 538 0 
L 538 3500 
L 1656 3500 
L 1656 2988 
Q 1909 3294 2193 3439 
Q 2478 3584 2822 3584 
Q 3428 3584 3742 3212 
Q 4056 2841 4056 2131 
z
" transform="scale(0.015625)"/>
      <path id="DejaVuSans-Bold-63" d="M 3366 3391 
L 3366 2478 
Q 3138 2634 2908 2709 
Q 2678 2784 2431 2784 
Q 1963 2784 1702 2511 
Q 1441 2238 1441 1747 
Q 1441 1256 1702 982 
Q 1963 709 2431 709 
Q 2694 709 2930 787 
Q 3166 866 3366 1019 
L 3366 103 
Q 3103 6 2833 -42 
Q 2563 -91 2291 -91 
Q 1344 -91 809 395 
Q 275 881 275 1747 
Q 275 2613 809 3098 
Q 1344 3584 2291 3584 
Q 2566 3584 2833 3536 
Q 3100 3488 3366 3391 
z
" transform="scale(0.015625)"/>
      <path id="DejaVuSans-Bold-61" d="M 2106 1575 
Q 1756 1575 1579 1456 
Q 1403 1338 1403 1106 
Q 1403 894 1545 773 
Q 1688 653 1941 653 
Q 2256 653 2472 879 
Q 2688 1106 2688 1447 
L 2688 1575 
L 2106 1575 
z
M 3816 1997 
L 3816 0 
L 2688 0 
L 2688 519 
Q 2463 200 2181 54 
Q 1900 -91 1497 -91 
Q 953 -91 614 226 
Q 275 544 275 1050 
Q 275 1666 698 1953 
Q 1122 2241 2028 2241 
L 2688 2241 
L 2688 2328 
Q 2688 2594 2478 2717 
Q 2269 2841 1825 2841 
Q 1466 2841 1156 2769 
Q 847 2697 581 2553 
L 581 3406 
Q 941 3494 1303 3539 
Q 1666 3584 2028 3584 
Q 2975 3584 3395 3211 
Q 3816 2838 3816 1997 
z
" transform="scale(0.015625)"/>
      <path id="DejaVuSans-Bold-6c" d="M 538 4863 
L 1656 4863 
L 1656 0 
L 538 0 
L 538 4863 
z
" transform="scale(0.015625)"/>
     </defs>
     <use xlink:href="#DejaVuSans-Bold-70"/>
     <use xlink:href="#DejaVuSans-Bold-72" transform="translate(71.582031 0)"/>
     <use xlink:href="#DejaVuSans-Bold-69" transform="translate(120.898438 0)"/>
     <use xlink:href="#DejaVuSans-Bold-6e" transform="translate(155.175781 0)"/>
     <use xlink:href="#DejaVuSans-Bold-63" transform="translate(226.367188 0)"/>
     <use xlink:href="#DejaVuSans-Bold-69" transform="translate(285.644531 0)"/>
     <use xlink:href="#DejaVuSans-Bold-70" transform="translate(319.921875 0)"/>
     <use xlink:href="#DejaVuSans-Bold-61" transform="translate(391.503906 0)"/>
     <use xlink:href="#DejaVuSans-Bold-6c" transform="translate(458.984375 0)"/>
    </g>
    <!-- high-risk zone -->
    <g transform="translate(104.26674 106.391095) scale(0.088 -0.088)">
     <defs>
      <path id="DejaVuSans-Bold-68" d="M 4056 2131 
L 4056 0 
L 2931 0 
L 2931 347 
L 2931 1625 
Q 2931 2084 2911 2256 
Q 2891 2428 2841 2509 
Q 2775 2619 2662 2680 
Q 2550 2741 2406 2741 
Q 2056 2741 1856 2470 
Q 1656 2200 1656 1722 
L 1656 0 
L 538 0 
L 538 4863 
L 1656 4863 
L 1656 2988 
Q 1909 3294 2193 3439 
Q 2478 3584 2822 3584 
Q 3428 3584 3742 3212 
Q 4056 2841 4056 2131 
z
" transform="scale(0.015625)"/>
      <path id="DejaVuSans-Bold-67" d="M 2919 594 
Q 2688 288 2409 144 
Q 2131 0 1766 0 
Q 1125 0 706 504 
Q 288 1009 288 1791 
Q 288 2575 706 3076 
Q 1125 3578 1766 3578 
Q 2131 3578 2409 3434 
Q 2688 3291 2919 2981 
L 2919 3500 
L 4044 3500 
L 4044 353 
Q 4044 -491 3511 -936 
Q 2978 -1381 1966 -1381 
Q 1638 -1381 1331 -1331 
Q 1025 -1281 716 -1178 
L 716 -306 
Q 1009 -475 1290 -558 
Q 1572 -641 1856 -641 
Q 2406 -641 2662 -400 
Q 2919 -159 2919 353 
L 2919 594 
z
M 2181 2772 
Q 1834 2772 1640 2515 
Q 1447 2259 1447 1791 
Q 1447 1309 1634 1061 
Q 1822 813 2181 813 
Q 2531 813 2725 1069 
Q 2919 1325 2919 1791 
Q 2919 2259 2725 2515 
Q 2531 2772 2181 2772 
z
" transform="scale(0.015625)"/>
      <path id="DejaVuSans-Bold-2d" d="M 347 2297 
L 2309 2297 
L 2309 1388 
L 347 1388 
L 347 2297 
z
" transform="scale(0.015625)"/>
      <path id="DejaVuSans-Bold-73" d="M 3272 3391 
L 3272 2541 
Q 2913 2691 2578 2766 
Q 2244 2841 1947 2841 
Q 1628 2841 1473 2761 
Q 1319 2681 1319 2516 
Q 1319 2381 1436 2309 
Q 1553 2238 1856 2203 
L 2053 2175 
Q 2913 2066 3209 1816 
Q 3506 1566 3506 1031 
Q 3506 472 3093 190 
Q 2681 -91 1863 -91 
Q 1516 -91 1145 -36 
Q 775 19 384 128 
L 384 978 
Q 719 816 1070 734 
Q 1422 653 1784 653 
Q 2113 653 2278 743 
Q 2444 834 2444 1013 
Q 2444 1163 2330 1236 
Q 2216 1309 1875 1350 
L 1678 1375 
Q 931 1469 631 1722 
Q 331 1975 331 2491 
Q 331 3047 712 3315 
Q 1094 3584 1881 3584 
Q 2191 3584 2531 3537 
Q 2872 3491 3272 3391 
z
" transform="scale(0.015625)"/>
      <path id="DejaVuSans-Bold-6b" d="M 538 4863 
L 1656 4863 
L 1656 2216 
L 2944 3500 
L 4244 3500 
L 2534 1894 
L 4378 0 
L 3022 0 
L 1656 1459 
L 1656 0 
L 538 0 
L 538 4863 
z
" transform="scale(0.015625)"/>
      <path id="DejaVuSans-Bold-20" transform="scale(0.015625)"/>
      <path id="DejaVuSans-Bold-7a" d="M 366 3500 
L 3419 3500 
L 3419 2719 
L 1575 800 
L 3419 800 
L 3419 0 
L 288 0 
L 288 781 
L 2131 2700 
L 366 2700 
L 366 3500 
z
" transform="scale(0.015625)"/>
      <path id="DejaVuSans-Bold-6f" d="M 2203 2784 
Q 1831 2784 1636 2517 
Q 1441 2250 1441 1747 
Q 1441 1244 1636 976 
Q 1831 709 2203 709 
Q 2569 709 2762 976 
Q 2956 1244 2956 1747 
Q 2956 2250 2762 2517 
Q 2569 2784 2203 2784 
z
M 2203 3584 
Q 3106 3584 3614 3096 
Q 4122 2609 4122 1747 
Q 4122 884 3614 396 
Q 3106 -91 2203 -91 
Q 1297 -91 786 396 
Q 275 884 275 1747 
Q 275 2609 786 3096 
Q 1297 3584 2203 3584 
z
" transform="scale(0.015625)"/>
      <path id="DejaVuSans-Bold-65" d="M 4031 1759 
L 4031 1441 
L 1416 1441 
Q 1456 1047 1700 850 
Q 1944 653 2381 653 
Q 2734 653 3104 758 
Q 3475 863 3866 1075 
L 3866 213 
Q 3469 63 3072 -14 
Q 2675 -91 2278 -91 
Q 1328 -91 801 392 
Q 275 875 275 1747 
Q 275 2603 792 3093 
Q 1309 3584 2216 3584 
Q 3041 3584 3536 3087 
Q 4031 2591 4031 1759 
z
M 2881 2131 
Q 2881 2450 2695 2645 
Q 2509 2841 2209 2841 
Q 1884 2841 1681 2658 
Q 1478 2475 1428 2131 
L 2881 2131 
z
" transform="scale(0.015625)"/>
     </defs>
     <use xlink:href="#DejaVuSans-Bold-68"/>
     <use xlink:href="#DejaVuSans-Bold-69" transform="translate(71.191406 0)"/>
     <use xlink:href="#DejaVuSans-Bold-67" transform="translate(105.46875 0)"/>
     <use xlink:href="#DejaVuSans-Bold-68" transform="translate(177.050781 0)"/>
     <use xlink:href="#DejaVuSans-Bold-2d" transform="translate(248.242188 0)"/>
     <use xlink:href="#DejaVuSans-Bold-72" transform="translate(289.746094 0)"/>
     <use xlink:href="#DejaVuSans-Bold-69" transform="translate(339.0625 0)"/>
     <use xlink:href="#DejaVuSans-Bold-73" transform="translate(373.339844 0)"/>
     <use xlink:href="#DejaVuSans-Bold-6b" transform="translate(432.861328 0)"/>
     <use xlink:href="#DejaVuSans-Bold-20" transform="translate(499.365234 0)"/>
     <use xlink:href="#DejaVuSans-Bold-7a" transform="translate(534.179688 0)"/>
     <use xlink:href="#DejaVuSans-Bold-6f" transform="translate(592.382812 0)"/>
     <use xlink:href="#DejaVuSans-Bold-6e" transform="translate(661.083984 0)"/>
     <use xlink:href="#DejaVuSans-Bold-65" transform="translate(732.275391 0)"/>
    </g>
   </g>
   <g id="PathCollection_2">
    <defs>
     <path id="m69feed30f9" d="M 0 2.915476 
C 0.773193 2.915476 1.514823 2.608283 2.061553 2.061553 
C 2.608283 1.514823 2.915476 0.773193 2.915476 0 
C 2.915476 -0.773193 2.608283 -1.514823 2.061553 -2.061553 
C 1.514823 -2.608283 0.773193 -2.915476 0 -2.915476 
C -0.773193 -2.915476 -1.514823 -2.608283 -2.061553 -2.061553 
C -2.608283 -1.514823 -2.915476 -0.773193 -2.915476 0 
C -2.915476 0.773193 -2.608283 1.514823 -2.061553 2.061553 
C -1.514823 2.608283 -0.773193 2.915476 0 2.915476 
z
" style="stroke: #000000; stroke-opacity: 0.82; stroke-width: 0.35"/>
    </defs>
    <g clip-path="url(#p71bf005644)">
     <use xlink:href="#m69feed30f9" x="426.330368" y="283.633062" style="fill: #ff7f0e; fill-opacity: 0.82; stroke: #000000; stroke-opacity: 0.82; stroke-width: 0.35"/>
     <use xlink:href="#m69feed30f9" x="292.561294" y="127.083995" style="fill: #ff7f0e; fill-opacity: 0.82; stroke: #000000; stroke-opacity: 0.82; stroke-width: 0.35"/>
     <use xlink:href="#m69feed30f9" x="298.378237" y="131.974807" style="fill: #ff7f0e; fill-opacity: 0.82; stroke: #000000; stroke-opacity: 0.82; stroke-width: 0.35"/>
     <use xlink:href="#m69feed30f9" x="320.360896" y="132.096298" style="fill: #ff7f0e; fill-opacity: 0.82; stroke: #000000; stroke-opacity: 0.82; stroke-width: 0.35"/>
     <use xlink:href="#m69feed30f9" x="130.33858" y="132.205277" style="fill: #ff7f0e; fill-opacity: 0.82; stroke: #000000; stroke-opacity: 0.82; stroke-width: 0.35"/>
     <use xlink:href="#m69feed30f9" x="132.060693" y="128.2998" style="fill: #ff7f0e; fill-opacity: 0.82; stroke: #000000; stroke-opacity: 0.82; stroke-width: 0.35"/>
     <use xlink:href="#m69feed30f9" x="125.563553" y="130.850994" style="fill: #ff7f0e; fill-opacity: 0.82; stroke: #000000; stroke-opacity: 0.82; stroke-width: 0.35"/>
     <use xlink:href="#m69feed30f9" x="129.567976" y="52.595818" style="fill: #ff7f0e; fill-opacity: 0.82; stroke: #000000; stroke-opacity: 0.82; stroke-width: 0.35"/>
     <use xlink:href="#m69feed30f9" x="123.114037" y="51.745426" style="fill: #ff7f0e; fill-opacity: 0.82; stroke: #000000; stroke-opacity: 0.82; stroke-width: 0.35"/>
     <use xlink:href="#m69feed30f9" x="132.075998" y="54.620957" style="fill: #ff7f0e; fill-opacity: 0.82; stroke: #000000; stroke-opacity: 0.82; stroke-width: 0.35"/>
     <use xlink:href="#m69feed30f9" x="134.114695" y="49.170338" style="fill: #ff7f0e; fill-opacity: 0.82; stroke: #000000; stroke-opacity: 0.82; stroke-width: 0.35"/>
     <use xlink:href="#m69feed30f9" x="181.881992" y="130.877524" style="fill: #ff7f0e; fill-opacity: 0.82; stroke: #000000; stroke-opacity: 0.82; stroke-width: 0.35"/>
     <use xlink:href="#m69feed30f9" x="154.806504" y="126.573299" style="fill: #ff7f0e; fill-opacity: 0.82; stroke: #000000; stroke-opacity: 0.82; stroke-width: 0.35"/>
     <use xlink:href="#m69feed30f9" x="282.995044" y="135.511577" style="fill: #ff7f0e; fill-opacity: 0.82; stroke: #000000; stroke-opacity: 0.82; stroke-width: 0.35"/>
     <use xlink:href="#m69feed30f9" x="210.621896" y="207.457005" style="fill: #ff7f0e; fill-opacity: 0.82; stroke: #000000; stroke-opacity: 0.82; stroke-width: 0.35"/>
     <use xlink:href="#m69feed30f9" x="211.275643" y="200.16734" style="fill: #ff7f0e; fill-opacity: 0.82; stroke: #000000; stroke-opacity: 0.82; stroke-width: 0.35"/>
    </g>
   </g>
   <g id="legend_1">
    <g id="patch_9">
     <path d="M 522.605543 306.660629 
L 615.580293 306.660629 
Q 617.340293 306.660629 617.340293 304.900629 
L 617.340293 267.343879 
Q 617.340293 265.583879 615.580293 265.583879 
L 522.605543 265.583879 
Q 520.845543 265.583879 520.845543 267.343879 
L 520.845543 304.900629 
Q 520.845543 306.660629 522.605543 306.660629 
z
" style="fill: #ffffff; opacity: 0.95; stroke: #000000; stroke-linejoin: miter"/>
    </g>
    <g id="line2d_17">
     <defs>
      <path id="mbad4597270" d="M 0 3 
C 0.795609 3 1.55874 2.683901 2.12132 2.12132 
C 2.683901 1.55874 3 0.795609 3 0 
C 3 -0.795609 2.683901 -1.55874 2.12132 -2.12132 
C 1.55874 -2.683901 0.795609 -3 0 -3 
C -0.795609 -3 -1.55874 -2.683901 -2.12132 -2.12132 
C -2.683901 -1.55874 -3 -0.795609 -3 0 
C -3 0.795609 -2.683901 1.55874 -2.12132 2.12132 
C -1.55874 2.683901 -0.795609 3 0 3 
z
" style="stroke: #000000; stroke-opacity: 0"/>
     </defs>
     <g>
      <use xlink:href="#mbad4597270" x="534.045543" y="273.629004" style="fill: #1f77b4; fill-opacity: 0.65; stroke: #000000; stroke-opacity: 0"/>
     </g>
    </g>
    <g id="text_18">
     <!-- |ΔlogP| &lt; 2.0 -->
     <g transform="translate(547.245543 276.709004) scale(0.088 -0.088)">
      <defs>
       <path id="DejaVuSans-7c" d="M 1344 4891 
L 1344 -1509 
L 813 -1509 
L 813 4891 
L 1344 4891 
z
" transform="scale(0.015625)"/>
       <path id="DejaVuSans-394" d="M 2188 4044 
L 906 525 
L 3472 525 
L 2188 4044 
z
M 50 0 
L 1831 4666 
L 2547 4666 
L 4325 0 
L 50 0 
z
" transform="scale(0.015625)"/>
      </defs>
      <use xlink:href="#DejaVuSans-7c"/>
      <use xlink:href="#DejaVuSans-394" transform="translate(33.691406 0)"/>
      <use xlink:href="#DejaVuSans-6c" transform="translate(102.099609 0)"/>
      <use xlink:href="#DejaVuSans-6f" transform="translate(129.882812 0)"/>
      <use xlink:href="#DejaVuSans-67" transform="translate(191.064453 0)"/>
      <use xlink:href="#DejaVuSans-50" transform="translate(254.541016 0)"/>
      <use xlink:href="#DejaVuSans-7c" transform="translate(314.84375 0)"/>
      <use xlink:href="#DejaVuSans-20" transform="translate(348.535156 0)"/>
      <use xlink:href="#DejaVuSans-3c" transform="translate(380.322266 0)"/>
      <use xlink:href="#DejaVuSans-20" transform="translate(464.111328 0)"/>
      <use xlink:href="#DejaVuSans-32" transform="translate(495.898438 0)"/>
      <use xlink:href="#DejaVuSans-2e" transform="translate(559.521484 0)"/>
      <use xlink:href="#DejaVuSans-30" transform="translate(591.308594 0)"/>
     </g>
    </g>
    <g id="line2d_18">
     <defs>
      <path id="m25998a0195" d="M 0 3.25 
C 0.86191 3.25 1.688635 2.907559 2.298097 2.298097 
C 2.907559 1.688635 3.25 0.86191 3.25 0 
C 3.25 -0.86191 2.907559 -1.688635 2.298097 -2.298097 
C 1.688635 -2.907559 0.86191 -3.25 0 -3.25 
C -0.86191 -3.25 -1.688635 -2.907559 -2.298097 -2.298097 
C -2.907559 -1.688635 -3.25 -0.86191 -3.25 0 
C -3.25 0.86191 -2.907559 1.688635 -2.298097 2.298097 
C -1.688635 2.907559 -0.86191 3.25 0 3.25 
z
" style="stroke: #000000; stroke-opacity: 0.85; stroke-width: 0.35"/>
     </defs>
     <g>
      <use xlink:href="#m25998a0195" x="534.045543" y="285.509004" style="fill: #ff7f0e; fill-opacity: 0.85; stroke: #000000; stroke-opacity: 0.85; stroke-width: 0.35"/>
     </g>
    </g>
    <g id="text_19">
     <!-- |ΔlogP| ≥ 2.0 -->
     <g transform="translate(547.245543 288.589004) scale(0.088 -0.088)">
      <use xlink:href="#DejaVuSans-7c"/>
      <use xlink:href="#DejaVuSans-394" transform="translate(33.691406 0)"/>
      <use xlink:href="#DejaVuSans-6c" transform="translate(102.099609 0)"/>
      <use xlink:href="#DejaVuSans-6f" transform="translate(129.882812 0)"/>
      <use xlink:href="#DejaVuSans-67" transform="translate(191.064453 0)"/>
      <use xlink:href="#DejaVuSans-50" transform="translate(254.541016 0)"/>
      <use xlink:href="#DejaVuSans-7c" transform="translate(314.84375 0)"/>
      <use xlink:href="#DejaVuSans-20" transform="translate(348.535156 0)"/>
      <use xlink:href="#DejaVuSans-2265" transform="translate(380.322266 0)"/>
      <use xlink:href="#DejaVuSans-20" transform="translate(464.111328 0)"/>
      <use xlink:href="#DejaVuSans-32" transform="translate(495.898438 0)"/>
      <use xlink:href="#DejaVuSans-2e" transform="translate(559.521484 0)"/>
      <use xlink:href="#DejaVuSans-30" transform="translate(591.308594 0)"/>
     </g>
    </g>
    <g id="line2d_19">
     <defs>
      <path id="m55bcc889ea" d="M 0 4.949747 
L 4.949747 0 
L 0 -4.949747 
L -4.949747 0 
z
" style="stroke: #000000; stroke-width: 1.05; stroke-linejoin: miter"/>
     </defs>
     <g>
      <use xlink:href="#m55bcc889ea" x="534.045543" y="297.350504" style="fill: #ffffff; stroke: #000000; stroke-width: 1.05; stroke-linejoin: miter"/>
     </g>
    </g>
    <g id="text_20">
     <!-- DFT/MEP panel -->
     <g transform="translate(547.245543 300.430504) scale(0.088 -0.088)">
      <defs>
       <path id="DejaVuSans-44" d="M 1259 4147 
L 1259 519 
L 2022 519 
Q 2988 519 3436 956 
Q 3884 1394 3884 2338 
Q 3884 3275 3436 3711 
Q 2988 4147 2022 4147 
L 1259 4147 
z
M 628 4666 
L 1925 4666 
Q 3281 4666 3915 4102 
Q 4550 3538 4550 2338 
Q 4550 1131 3912 565 
Q 3275 0 1925 0 
L 628 0 
L 628 4666 
z
" transform="scale(0.015625)"/>
       <path id="DejaVuSans-46" d="M 628 4666 
L 3309 4666 
L 3309 4134 
L 1259 4134 
L 1259 2759 
L 3109 2759 
L 3109 2228 
L 1259 2228 
L 1259 0 
L 628 0 
L 628 4666 
z
" transform="scale(0.015625)"/>
       <path id="DejaVuSans-54" d="M -19 4666 
L 3928 4666 
L 3928 4134 
L 2272 4134 
L 2272 0 
L 1638 0 
L 1638 4134 
L -19 4134 
L -19 4666 
z
" transform="scale(0.015625)"/>
       <path id="DejaVuSans-2f" d="M 1625 4666 
L 2156 4666 
L 531 -594 
L 0 -594 
L 1625 4666 
z
" transform="scale(0.015625)"/>
       <path id="DejaVuSans-4d" d="M 628 4666 
L 1569 4666 
L 2759 1491 
L 3956 4666 
L 4897 4666 
L 4897 0 
L 4281 0 
L 4281 4097 
L 3078 897 
L 2444 897 
L 1241 4097 
L 1241 0 
L 628 0 
L 628 4666 
z
" transform="scale(0.015625)"/>
      </defs>
      <use xlink:href="#DejaVuSans-44"/>
      <use xlink:href="#DejaVuSans-46" transform="translate(77.001953 0)"/>
      <use xlink:href="#DejaVuSans-54" transform="translate(132.771484 0)"/>
      <use xlink:href="#DejaVuSans-2f" transform="translate(193.855469 0)"/>
      <use xlink:href="#DejaVuSans-4d" transform="translate(227.546875 0)"/>
      <use xlink:href="#DejaVuSans-45" transform="translate(313.826172 0)"/>
      <use xlink:href="#DejaVuSans-50" transform="translate(377.009766 0)"/>
      <use xlink:href="#DejaVuSans-20" transform="translate(437.3125 0)"/>
      <use xlink:href="#DejaVuSans-70" transform="translate(469.099609 0)"/>
      <use xlink:href="#DejaVuSans-61" transform="translate(532.576172 0)"/>
      <use xlink:href="#DejaVuSans-6e" transform="translate(593.855469 0)"/>
      <use xlink:href="#DejaVuSans-65" transform="translate(657.234375 0)"/>
      <use xlink:href="#DejaVuSans-6c" transform="translate(718.757812 0)"/>
     </g>
    </g>
   </g>
   <g id="PathCollection_3">
    <defs>
     <path id="C1_0_f73d50aaae" d="M 0 6.244998 
L 6.244998 -0 
L 0 -6.244998 
L -6.244998 0 
z
"/>
    </defs>
    <g clip-path="url(#p71bf005644)">
     <use xlink:href="#C1_0_f73d50aaae" x="426.330368" y="283.633062" style="fill: none; stroke: #000000; stroke-width: 1.05"/>
    </g>
    <g clip-path="url(#p71bf005644)">
     <use xlink:href="#C1_0_f73d50aaae" x="331.542076" y="136.17046" style="fill: none; stroke: #000000; stroke-width: 1.05"/>
    </g>
    <g clip-path="url(#p71bf005644)">
     <use xlink:href="#C1_0_f73d50aaae" x="130.33858" y="132.205277" style="fill: none; stroke: #000000; stroke-width: 1.05"/>
    </g>
    <g clip-path="url(#p71bf005644)">
     <use xlink:href="#C1_0_f73d50aaae" x="224.339502" y="125.922582" style="fill: none; stroke: #000000; stroke-width: 1.05"/>
    </g>
    <g clip-path="url(#p71bf005644)">
     <use xlink:href="#C1_0_f73d50aaae" x="238.481052" y="136.71238" style="fill: none; stroke: #000000; stroke-width: 1.05"/>
    </g>
    <g clip-path="url(#p71bf005644)">
     <use xlink:href="#C1_0_f73d50aaae" x="184.848379" y="290.169725" style="fill: none; stroke: #000000; stroke-width: 1.05"/>
    </g>
    <g clip-path="url(#p71bf005644)">
     <use xlink:href="#C1_0_f73d50aaae" x="154.806504" y="126.573299" style="fill: none; stroke: #000000; stroke-width: 1.05"/>
    </g>
    <g clip-path="url(#p71bf005644)">
     <use xlink:href="#C1_0_f73d50aaae" x="226.780541" y="48.591793" style="fill: none; stroke: #000000; stroke-width: 1.05"/>
    </g>
    <g clip-path="url(#p71bf005644)">
     <use xlink:href="#C1_0_f73d50aaae" x="233.921862" y="205.736524" style="fill: none; stroke: #000000; stroke-width: 1.05"/>
    </g>
    <g clip-path="url(#p71bf005644)">
     <use xlink:href="#C1_0_f73d50aaae" x="211.275643" y="200.16734" style="fill: none; stroke: #000000; stroke-width: 1.05"/>
    </g>
   </g>
   <g id="text_21">
    <g id="patch_10">
     <path d="M 181.468466 286.005175 
L 196.356716 286.005175 
Q 197.604716 286.005175 197.604716 284.757175 
L 197.604716 277.208238 
Q 197.604716 275.960238 196.356716 275.960238 
L 181.468466 275.960238 
Q 180.220466 275.960238 180.220466 277.208238 
L 180.220466 284.757175 
Q 180.220466 286.005175 181.468466 286.005175 
z
" style="fill: #ffffff; opacity: 0.92; stroke: #595959; stroke-width: 0.45; stroke-linejoin: miter"/>
    </g>
    <!-- 055 -->
    <g transform="translate(181.468466 283.135019) scale(0.078 -0.078)">
     <use xlink:href="#DejaVuSans-30"/>
     <use xlink:href="#DejaVuSans-35" transform="translate(63.623047 0)"/>
     <use xlink:href="#DejaVuSans-35" transform="translate(127.246094 0)"/>
    </g>
   </g>
   <g id="text_22">
    <g id="patch_11">
     <path d="M 220.959588 143.194409 
L 235.847838 143.194409 
Q 237.095838 143.194409 237.095838 141.946409 
L 237.095838 134.397471 
Q 237.095838 133.149471 235.847838 133.149471 
L 220.959588 133.149471 
Q 219.711588 133.149471 219.711588 134.397471 
L 219.711588 141.946409 
Q 219.711588 143.194409 220.959588 143.194409 
z
" style="fill: #ffffff; opacity: 0.92; stroke: #595959; stroke-width: 0.45; stroke-linejoin: miter"/>
    </g>
    <!-- 043 -->
    <g transform="translate(220.959588 140.324252) scale(0.078 -0.078)">
     <use xlink:href="#DejaVuSans-30"/>
     <use xlink:href="#DejaVuSans-34" transform="translate(63.623047 0)"/>
     <use xlink:href="#DejaVuSans-33" transform="translate(127.246094 0)"/>
    </g>
   </g>
   <g id="text_23">
    <g id="patch_12">
     <path d="M 235.101139 131.782246 
L 249.989389 131.782246 
Q 251.237389 131.782246 251.237389 130.534246 
L 251.237389 122.985308 
Q 251.237389 121.737308 249.989389 121.737308 
L 235.101139 121.737308 
Q 233.853139 121.737308 233.853139 122.985308 
L 233.853139 130.534246 
Q 233.853139 131.782246 235.101139 131.782246 
z
" style="fill: #ffffff; opacity: 0.92; stroke: #595959; stroke-width: 0.45; stroke-linejoin: miter"/>
    </g>
    <!-- 044 -->
    <g transform="translate(235.101139 128.912089) scale(0.078 -0.078)">
     <use xlink:href="#DejaVuSans-30"/>
     <use xlink:href="#DejaVuSans-34" transform="translate(63.623047 0)"/>
     <use xlink:href="#DejaVuSans-34" transform="translate(127.246094 0)"/>
    </g>
   </g>
   <g id="text_24">
    <g id="patch_13">
     <path d="M 126.958666 150.242688 
L 141.846916 150.242688 
Q 143.094916 150.242688 143.094916 148.994688 
L 143.094916 141.445751 
Q 143.094916 140.197751 141.846916 140.197751 
L 126.958666 140.197751 
Q 125.710666 140.197751 125.710666 141.445751 
L 125.710666 148.994688 
Q 125.710666 150.242688 126.958666 150.242688 
z
" style="fill: #ffffff; opacity: 0.92; stroke: #595959; stroke-width: 0.45; stroke-linejoin: miter"/>
    </g>
    <!-- 029 -->
    <g transform="translate(126.958666 147.372532) scale(0.078 -0.078)">
     <defs>
      <path id="DejaVuSans-39" d="M 703 97 
L 703 672 
Q 941 559 1184 500 
Q 1428 441 1663 441 
Q 2288 441 2617 861 
Q 2947 1281 2994 2138 
Q 2813 1869 2534 1725 
Q 2256 1581 1919 1581 
Q 1219 1581 811 2004 
Q 403 2428 403 3163 
Q 403 3881 828 4315 
Q 1253 4750 1959 4750 
Q 2769 4750 3195 4129 
Q 3622 3509 3622 2328 
Q 3622 1225 3098 567 
Q 2575 -91 1691 -91 
Q 1453 -91 1209 -44 
Q 966 3 703 97 
z
M 1959 2075 
Q 2384 2075 2632 2365 
Q 2881 2656 2881 3163 
Q 2881 3666 2632 3958 
Q 2384 4250 1959 4250 
Q 1534 4250 1286 3958 
Q 1038 3666 1038 3163 
Q 1038 2656 1286 2365 
Q 1534 2075 1959 2075 
z
" transform="scale(0.015625)"/>
     </defs>
     <use xlink:href="#DejaVuSans-30"/>
     <use xlink:href="#DejaVuSans-32" transform="translate(63.623047 0)"/>
     <use xlink:href="#DejaVuSans-39" transform="translate(127.246094 0)"/>
    </g>
   </g>
   <g id="text_25">
    <g id="patch_14">
     <path d="M 151.426591 120.111995 
L 166.314841 120.111995 
Q 167.562841 120.111995 167.562841 118.863995 
L 167.562841 111.315058 
Q 167.562841 110.067058 166.314841 110.067058 
L 151.426591 110.067058 
Q 150.178591 110.067058 150.178591 111.315058 
L 150.178591 118.863995 
Q 150.178591 120.111995 151.426591 120.111995 
z
" style="fill: #ffffff; opacity: 0.92; stroke: #595959; stroke-width: 0.45; stroke-linejoin: miter"/>
    </g>
    <!-- 058 -->
    <g transform="translate(151.426591 117.241839) scale(0.078 -0.078)">
     <defs>
      <path id="DejaVuSans-38" d="M 2034 2216 
Q 1584 2216 1326 1975 
Q 1069 1734 1069 1313 
Q 1069 891 1326 650 
Q 1584 409 2034 409 
Q 2484 409 2743 651 
Q 3003 894 3003 1313 
Q 3003 1734 2745 1975 
Q 2488 2216 2034 2216 
z
M 1403 2484 
Q 997 2584 770 2862 
Q 544 3141 544 3541 
Q 544 4100 942 4425 
Q 1341 4750 2034 4750 
Q 2731 4750 3128 4425 
Q 3525 4100 3525 3541 
Q 3525 3141 3298 2862 
Q 3072 2584 2669 2484 
Q 3125 2378 3379 2068 
Q 3634 1759 3634 1313 
Q 3634 634 3220 271 
Q 2806 -91 2034 -91 
Q 1263 -91 848 271 
Q 434 634 434 1313 
Q 434 1759 690 2068 
Q 947 2378 1403 2484 
z
M 1172 3481 
Q 1172 3119 1398 2916 
Q 1625 2713 2034 2713 
Q 2441 2713 2670 2916 
Q 2900 3119 2900 3481 
Q 2900 3844 2670 4047 
Q 2441 4250 2034 4250 
Q 1625 4250 1398 4047 
Q 1172 3844 1172 3481 
z
" transform="scale(0.015625)"/>
     </defs>
     <use xlink:href="#DejaVuSans-30"/>
     <use xlink:href="#DejaVuSans-35" transform="translate(63.623047 0)"/>
     <use xlink:href="#DejaVuSans-38" transform="translate(127.246094 0)"/>
    </g>
   </g>
   <g id="text_26">
    <g id="patch_15">
     <path d="M 223.400627 42.896074 
L 238.288877 42.896074 
Q 239.536877 42.896074 239.536877 41.648074 
L 239.536877 34.099136 
Q 239.536877 32.851136 238.288877 32.851136 
L 223.400627 32.851136 
Q 222.152627 32.851136 222.152627 34.099136 
L 222.152627 41.648074 
Q 222.152627 42.896074 223.400627 42.896074 
z
" style="fill: #ffffff; opacity: 0.92; stroke: #595959; stroke-width: 0.45; stroke-linejoin: miter"/>
    </g>
    <!-- 079 -->
    <g transform="translate(223.400627 40.025918) scale(0.078 -0.078)">
     <defs>
      <path id="DejaVuSans-37" d="M 525 4666 
L 3525 4666 
L 3525 4397 
L 1831 0 
L 1172 0 
L 2766 4134 
L 525 4134 
L 525 4666 
z
" transform="scale(0.015625)"/>
     </defs>
     <use xlink:href="#DejaVuSans-30"/>
     <use xlink:href="#DejaVuSans-37" transform="translate(63.623047 0)"/>
     <use xlink:href="#DejaVuSans-39" transform="translate(127.246094 0)"/>
    </g>
   </g>
   <g id="text_27">
    <g id="patch_16">
     <path d="M 422.950455 299.373719 
L 437.838705 299.373719 
Q 439.086705 299.373719 439.086705 298.125719 
L 439.086705 290.576782 
Q 439.086705 289.328782 437.838705 289.328782 
L 422.950455 289.328782 
Q 421.702455 289.328782 421.702455 290.576782 
L 421.702455 298.125719 
Q 421.702455 299.373719 422.950455 299.373719 
z
" style="fill: #ffffff; opacity: 0.92; stroke: #595959; stroke-width: 0.45; stroke-linejoin: miter"/>
    </g>
    <!-- 016 -->
    <g transform="translate(422.950455 296.503563) scale(0.078 -0.078)">
     <use xlink:href="#DejaVuSans-30"/>
     <use xlink:href="#DejaVuSans-31" transform="translate(63.623047 0)"/>
     <use xlink:href="#DejaVuSans-36" transform="translate(127.246094 0)"/>
    </g>
   </g>
   <g id="text_28">
    <g id="patch_17">
     <path d="M 230.541948 202.337559 
L 245.430198 202.337559 
Q 246.678198 202.337559 246.678198 201.089559 
L 246.678198 193.540622 
Q 246.678198 192.292622 245.430198 192.292622 
L 230.541948 192.292622 
Q 229.293948 192.292622 229.293948 193.540622 
L 229.293948 201.089559 
Q 229.293948 202.337559 230.541948 202.337559 
z
" style="fill: #ffffff; opacity: 0.92; stroke: #595959; stroke-width: 0.45; stroke-linejoin: miter"/>
    </g>
    <!-- 090 -->
    <g transform="translate(230.541948 199.467403) scale(0.078 -0.078)">
     <use xlink:href="#DejaVuSans-30"/>
     <use xlink:href="#DejaVuSans-39" transform="translate(63.623047 0)"/>
     <use xlink:href="#DejaVuSans-30" transform="translate(127.246094 0)"/>
    </g>
   </g>
   <g id="text_29">
    <g id="patch_18">
     <path d="M 328.162163 152.676702 
L 343.050413 152.676702 
Q 344.298413 152.676702 344.298413 151.428702 
L 344.298413 143.879764 
Q 344.298413 142.631764 343.050413 142.631764 
L 328.162163 142.631764 
Q 326.914163 142.631764 326.914163 143.879764 
L 326.914163 151.428702 
Q 326.914163 152.676702 328.162163 152.676702 
z
" style="fill: #ffffff; opacity: 0.92; stroke: #595959; stroke-width: 0.45; stroke-linejoin: miter"/>
    </g>
    <!-- 020 -->
    <g transform="translate(328.162163 149.806546) scale(0.078 -0.078)">
     <use xlink:href="#DejaVuSans-30"/>
     <use xlink:href="#DejaVuSans-32" transform="translate(63.623047 0)"/>
     <use xlink:href="#DejaVuSans-30" transform="translate(127.246094 0)"/>
    </g>
   </g>
   <g id="text_30">
    <g id="patch_19">
     <path d="M 207.89573 195.237206 
L 222.78398 195.237206 
Q 224.03198 195.237206 224.03198 193.989206 
L 224.03198 186.440269 
Q 224.03198 185.192269 222.78398 185.192269 
L 207.89573 185.192269 
Q 206.64773 185.192269 206.64773 186.440269 
L 206.64773 193.989206 
Q 206.64773 195.237206 207.89573 195.237206 
z
" style="fill: #ffffff; opacity: 0.92; stroke: #595959; stroke-width: 0.45; stroke-linejoin: miter"/>
    </g>
    <!-- 092 -->
    <g transform="translate(207.89573 192.36705) scale(0.078 -0.078)">
     <use xlink:href="#DejaVuSans-30"/>
     <use xlink:href="#DejaVuSans-39" transform="translate(63.623047 0)"/>
     <use xlink:href="#DejaVuSans-32" transform="translate(127.246094 0)"/>
    </g>
   </g>
  </g>
 </g>
 <defs>
  <clipPath id="p71bf005644">
   <rect x="71.753047" y="7.2" width="440.2896" height="310.061867"/>
  </clipPath>
 </defs>
</svg>
